G04 #@! TF.GenerationSoftware,KiCad,Pcbnew,5.1.12-84ad8e8a86~92~ubuntu20.04.1*
G04 #@! TF.CreationDate,2021-11-18T17:54:01-07:00*
G04 #@! TF.ProjectId,power-monitor,706f7765-722d-46d6-9f6e-69746f722e6b,rev?*
G04 #@! TF.SameCoordinates,Original*
G04 #@! TF.FileFunction,Copper,L1,Top*
G04 #@! TF.FilePolarity,Positive*
%FSLAX46Y46*%
G04 Gerber Fmt 4.6, Leading zero omitted, Abs format (unit mm)*
G04 Created by KiCad (PCBNEW 5.1.12-84ad8e8a86~92~ubuntu20.04.1) date 2021-11-18 17:54:01*
%MOMM*%
%LPD*%
G01*
G04 APERTURE LIST*
G04 #@! TA.AperFunction,ComponentPad*
%ADD10O,1.700000X1.700000*%
G04 #@! TD*
G04 #@! TA.AperFunction,ComponentPad*
%ADD11R,1.700000X1.700000*%
G04 #@! TD*
G04 #@! TA.AperFunction,ComponentPad*
%ADD12C,2.100000*%
G04 #@! TD*
G04 #@! TA.AperFunction,ViaPad*
%ADD13C,0.800000*%
G04 #@! TD*
G04 #@! TA.AperFunction,Conductor*
%ADD14C,0.200000*%
G04 #@! TD*
G04 #@! TA.AperFunction,Conductor*
%ADD15C,2.000000*%
G04 #@! TD*
G04 #@! TA.AperFunction,Conductor*
%ADD16C,0.500000*%
G04 #@! TD*
G04 #@! TA.AperFunction,Conductor*
%ADD17C,0.254000*%
G04 #@! TD*
G04 #@! TA.AperFunction,Conductor*
%ADD18C,0.100000*%
G04 #@! TD*
G04 APERTURE END LIST*
D10*
X137160000Y-81280000D03*
X134620000Y-81280000D03*
X132080000Y-81280000D03*
X129540000Y-81280000D03*
D11*
X127000000Y-81280000D03*
G04 #@! TA.AperFunction,SMDPad,CuDef*
G36*
G01*
X136095000Y-85435000D02*
X136095000Y-85285000D01*
G75*
G02*
X136170000Y-85210000I75000J0D01*
G01*
X137470000Y-85210000D01*
G75*
G02*
X137545000Y-85285000I0J-75000D01*
G01*
X137545000Y-85435000D01*
G75*
G02*
X137470000Y-85510000I-75000J0D01*
G01*
X136170000Y-85510000D01*
G75*
G02*
X136095000Y-85435000I0J75000D01*
G01*
G37*
G04 #@! TD.AperFunction*
G04 #@! TA.AperFunction,SMDPad,CuDef*
G36*
G01*
X136095000Y-85935000D02*
X136095000Y-85785000D01*
G75*
G02*
X136170000Y-85710000I75000J0D01*
G01*
X137470000Y-85710000D01*
G75*
G02*
X137545000Y-85785000I0J-75000D01*
G01*
X137545000Y-85935000D01*
G75*
G02*
X137470000Y-86010000I-75000J0D01*
G01*
X136170000Y-86010000D01*
G75*
G02*
X136095000Y-85935000I0J75000D01*
G01*
G37*
G04 #@! TD.AperFunction*
G04 #@! TA.AperFunction,SMDPad,CuDef*
G36*
G01*
X136095000Y-86435000D02*
X136095000Y-86285000D01*
G75*
G02*
X136170000Y-86210000I75000J0D01*
G01*
X137470000Y-86210000D01*
G75*
G02*
X137545000Y-86285000I0J-75000D01*
G01*
X137545000Y-86435000D01*
G75*
G02*
X137470000Y-86510000I-75000J0D01*
G01*
X136170000Y-86510000D01*
G75*
G02*
X136095000Y-86435000I0J75000D01*
G01*
G37*
G04 #@! TD.AperFunction*
G04 #@! TA.AperFunction,SMDPad,CuDef*
G36*
G01*
X136095000Y-86935000D02*
X136095000Y-86785000D01*
G75*
G02*
X136170000Y-86710000I75000J0D01*
G01*
X137470000Y-86710000D01*
G75*
G02*
X137545000Y-86785000I0J-75000D01*
G01*
X137545000Y-86935000D01*
G75*
G02*
X137470000Y-87010000I-75000J0D01*
G01*
X136170000Y-87010000D01*
G75*
G02*
X136095000Y-86935000I0J75000D01*
G01*
G37*
G04 #@! TD.AperFunction*
G04 #@! TA.AperFunction,SMDPad,CuDef*
G36*
G01*
X136095000Y-87435000D02*
X136095000Y-87285000D01*
G75*
G02*
X136170000Y-87210000I75000J0D01*
G01*
X137470000Y-87210000D01*
G75*
G02*
X137545000Y-87285000I0J-75000D01*
G01*
X137545000Y-87435000D01*
G75*
G02*
X137470000Y-87510000I-75000J0D01*
G01*
X136170000Y-87510000D01*
G75*
G02*
X136095000Y-87435000I0J75000D01*
G01*
G37*
G04 #@! TD.AperFunction*
G04 #@! TA.AperFunction,SMDPad,CuDef*
G36*
G01*
X131695000Y-87435000D02*
X131695000Y-87285000D01*
G75*
G02*
X131770000Y-87210000I75000J0D01*
G01*
X133070000Y-87210000D01*
G75*
G02*
X133145000Y-87285000I0J-75000D01*
G01*
X133145000Y-87435000D01*
G75*
G02*
X133070000Y-87510000I-75000J0D01*
G01*
X131770000Y-87510000D01*
G75*
G02*
X131695000Y-87435000I0J75000D01*
G01*
G37*
G04 #@! TD.AperFunction*
G04 #@! TA.AperFunction,SMDPad,CuDef*
G36*
G01*
X131695000Y-86935000D02*
X131695000Y-86785000D01*
G75*
G02*
X131770000Y-86710000I75000J0D01*
G01*
X133070000Y-86710000D01*
G75*
G02*
X133145000Y-86785000I0J-75000D01*
G01*
X133145000Y-86935000D01*
G75*
G02*
X133070000Y-87010000I-75000J0D01*
G01*
X131770000Y-87010000D01*
G75*
G02*
X131695000Y-86935000I0J75000D01*
G01*
G37*
G04 #@! TD.AperFunction*
G04 #@! TA.AperFunction,SMDPad,CuDef*
G36*
G01*
X131695000Y-86435000D02*
X131695000Y-86285000D01*
G75*
G02*
X131770000Y-86210000I75000J0D01*
G01*
X133070000Y-86210000D01*
G75*
G02*
X133145000Y-86285000I0J-75000D01*
G01*
X133145000Y-86435000D01*
G75*
G02*
X133070000Y-86510000I-75000J0D01*
G01*
X131770000Y-86510000D01*
G75*
G02*
X131695000Y-86435000I0J75000D01*
G01*
G37*
G04 #@! TD.AperFunction*
G04 #@! TA.AperFunction,SMDPad,CuDef*
G36*
G01*
X131695000Y-85935000D02*
X131695000Y-85785000D01*
G75*
G02*
X131770000Y-85710000I75000J0D01*
G01*
X133070000Y-85710000D01*
G75*
G02*
X133145000Y-85785000I0J-75000D01*
G01*
X133145000Y-85935000D01*
G75*
G02*
X133070000Y-86010000I-75000J0D01*
G01*
X131770000Y-86010000D01*
G75*
G02*
X131695000Y-85935000I0J75000D01*
G01*
G37*
G04 #@! TD.AperFunction*
G04 #@! TA.AperFunction,SMDPad,CuDef*
G36*
G01*
X131695000Y-85435000D02*
X131695000Y-85285000D01*
G75*
G02*
X131770000Y-85210000I75000J0D01*
G01*
X133070000Y-85210000D01*
G75*
G02*
X133145000Y-85285000I0J-75000D01*
G01*
X133145000Y-85435000D01*
G75*
G02*
X133070000Y-85510000I-75000J0D01*
G01*
X131770000Y-85510000D01*
G75*
G02*
X131695000Y-85435000I0J75000D01*
G01*
G37*
G04 #@! TD.AperFunction*
G04 #@! TA.AperFunction,SMDPad,CuDef*
G36*
G01*
X123327500Y-81690000D02*
X123672500Y-81690000D01*
G75*
G02*
X123820000Y-81837500I0J-147500D01*
G01*
X123820000Y-82132500D01*
G75*
G02*
X123672500Y-82280000I-147500J0D01*
G01*
X123327500Y-82280000D01*
G75*
G02*
X123180000Y-82132500I0J147500D01*
G01*
X123180000Y-81837500D01*
G75*
G02*
X123327500Y-81690000I147500J0D01*
G01*
G37*
G04 #@! TD.AperFunction*
G04 #@! TA.AperFunction,SMDPad,CuDef*
G36*
G01*
X123327500Y-80720000D02*
X123672500Y-80720000D01*
G75*
G02*
X123820000Y-80867500I0J-147500D01*
G01*
X123820000Y-81162500D01*
G75*
G02*
X123672500Y-81310000I-147500J0D01*
G01*
X123327500Y-81310000D01*
G75*
G02*
X123180000Y-81162500I0J147500D01*
G01*
X123180000Y-80867500D01*
G75*
G02*
X123327500Y-80720000I147500J0D01*
G01*
G37*
G04 #@! TD.AperFunction*
G04 #@! TA.AperFunction,SMDPad,CuDef*
G36*
G01*
X126450001Y-85050000D02*
X125549999Y-85050000D01*
G75*
G02*
X125300000Y-84800001I0J249999D01*
G01*
X125300000Y-84149999D01*
G75*
G02*
X125549999Y-83900000I249999J0D01*
G01*
X126450001Y-83900000D01*
G75*
G02*
X126700000Y-84149999I0J-249999D01*
G01*
X126700000Y-84800001D01*
G75*
G02*
X126450001Y-85050000I-249999J0D01*
G01*
G37*
G04 #@! TD.AperFunction*
G04 #@! TA.AperFunction,SMDPad,CuDef*
G36*
G01*
X126450001Y-87100000D02*
X125549999Y-87100000D01*
G75*
G02*
X125300000Y-86850001I0J249999D01*
G01*
X125300000Y-86199999D01*
G75*
G02*
X125549999Y-85950000I249999J0D01*
G01*
X126450001Y-85950000D01*
G75*
G02*
X126700000Y-86199999I0J-249999D01*
G01*
X126700000Y-86850001D01*
G75*
G02*
X126450001Y-87100000I-249999J0D01*
G01*
G37*
G04 #@! TD.AperFunction*
G04 #@! TA.AperFunction,SMDPad,CuDef*
G36*
G01*
X122450000Y-94049999D02*
X122450000Y-94950001D01*
G75*
G02*
X122200001Y-95200000I-249999J0D01*
G01*
X121549999Y-95200000D01*
G75*
G02*
X121300000Y-94950001I0J249999D01*
G01*
X121300000Y-94049999D01*
G75*
G02*
X121549999Y-93800000I249999J0D01*
G01*
X122200001Y-93800000D01*
G75*
G02*
X122450000Y-94049999I0J-249999D01*
G01*
G37*
G04 #@! TD.AperFunction*
G04 #@! TA.AperFunction,SMDPad,CuDef*
G36*
G01*
X124500000Y-94049999D02*
X124500000Y-94950001D01*
G75*
G02*
X124250001Y-95200000I-249999J0D01*
G01*
X123599999Y-95200000D01*
G75*
G02*
X123350000Y-94950001I0J249999D01*
G01*
X123350000Y-94049999D01*
G75*
G02*
X123599999Y-93800000I249999J0D01*
G01*
X124250001Y-93800000D01*
G75*
G02*
X124500000Y-94049999I0J-249999D01*
G01*
G37*
G04 #@! TD.AperFunction*
G04 #@! TA.AperFunction,SMDPad,CuDef*
G36*
G01*
X140049999Y-81950000D02*
X140950001Y-81950000D01*
G75*
G02*
X141200000Y-82199999I0J-249999D01*
G01*
X141200000Y-82850001D01*
G75*
G02*
X140950001Y-83100000I-249999J0D01*
G01*
X140049999Y-83100000D01*
G75*
G02*
X139800000Y-82850001I0J249999D01*
G01*
X139800000Y-82199999D01*
G75*
G02*
X140049999Y-81950000I249999J0D01*
G01*
G37*
G04 #@! TD.AperFunction*
G04 #@! TA.AperFunction,SMDPad,CuDef*
G36*
G01*
X140049999Y-79900000D02*
X140950001Y-79900000D01*
G75*
G02*
X141200000Y-80149999I0J-249999D01*
G01*
X141200000Y-80800001D01*
G75*
G02*
X140950001Y-81050000I-249999J0D01*
G01*
X140049999Y-81050000D01*
G75*
G02*
X139800000Y-80800001I0J249999D01*
G01*
X139800000Y-80149999D01*
G75*
G02*
X140049999Y-79900000I249999J0D01*
G01*
G37*
G04 #@! TD.AperFunction*
G04 #@! TA.AperFunction,SMDPad,CuDef*
G36*
G01*
X142549999Y-81950000D02*
X143450001Y-81950000D01*
G75*
G02*
X143700000Y-82199999I0J-249999D01*
G01*
X143700000Y-82850001D01*
G75*
G02*
X143450001Y-83100000I-249999J0D01*
G01*
X142549999Y-83100000D01*
G75*
G02*
X142300000Y-82850001I0J249999D01*
G01*
X142300000Y-82199999D01*
G75*
G02*
X142549999Y-81950000I249999J0D01*
G01*
G37*
G04 #@! TD.AperFunction*
G04 #@! TA.AperFunction,SMDPad,CuDef*
G36*
G01*
X142549999Y-79900000D02*
X143450001Y-79900000D01*
G75*
G02*
X143700000Y-80149999I0J-249999D01*
G01*
X143700000Y-80800001D01*
G75*
G02*
X143450001Y-81050000I-249999J0D01*
G01*
X142549999Y-81050000D01*
G75*
G02*
X142300000Y-80800001I0J249999D01*
G01*
X142300000Y-80149999D01*
G75*
G02*
X142549999Y-79900000I249999J0D01*
G01*
G37*
G04 #@! TD.AperFunction*
G04 #@! TA.AperFunction,SMDPad,CuDef*
G36*
G01*
X140725000Y-87005000D02*
X140725000Y-88255000D01*
G75*
G02*
X140475000Y-88505000I-250000J0D01*
G01*
X139550000Y-88505000D01*
G75*
G02*
X139300000Y-88255000I0J250000D01*
G01*
X139300000Y-87005000D01*
G75*
G02*
X139550000Y-86755000I250000J0D01*
G01*
X140475000Y-86755000D01*
G75*
G02*
X140725000Y-87005000I0J-250000D01*
G01*
G37*
G04 #@! TD.AperFunction*
G04 #@! TA.AperFunction,SMDPad,CuDef*
G36*
G01*
X143700000Y-87005000D02*
X143700000Y-88255000D01*
G75*
G02*
X143450000Y-88505000I-250000J0D01*
G01*
X142525000Y-88505000D01*
G75*
G02*
X142275000Y-88255000I0J250000D01*
G01*
X142275000Y-87005000D01*
G75*
G02*
X142525000Y-86755000I250000J0D01*
G01*
X143450000Y-86755000D01*
G75*
G02*
X143700000Y-87005000I0J-250000D01*
G01*
G37*
G04 #@! TD.AperFunction*
G04 #@! TA.AperFunction,SMDPad,CuDef*
G36*
G01*
X132310000Y-90955000D02*
X132310000Y-90655000D01*
G75*
G02*
X132460000Y-90505000I150000J0D01*
G01*
X134110000Y-90505000D01*
G75*
G02*
X134260000Y-90655000I0J-150000D01*
G01*
X134260000Y-90955000D01*
G75*
G02*
X134110000Y-91105000I-150000J0D01*
G01*
X132460000Y-91105000D01*
G75*
G02*
X132310000Y-90955000I0J150000D01*
G01*
G37*
G04 #@! TD.AperFunction*
G04 #@! TA.AperFunction,SMDPad,CuDef*
G36*
G01*
X132310000Y-92225000D02*
X132310000Y-91925000D01*
G75*
G02*
X132460000Y-91775000I150000J0D01*
G01*
X134110000Y-91775000D01*
G75*
G02*
X134260000Y-91925000I0J-150000D01*
G01*
X134260000Y-92225000D01*
G75*
G02*
X134110000Y-92375000I-150000J0D01*
G01*
X132460000Y-92375000D01*
G75*
G02*
X132310000Y-92225000I0J150000D01*
G01*
G37*
G04 #@! TD.AperFunction*
G04 #@! TA.AperFunction,SMDPad,CuDef*
G36*
G01*
X132310000Y-93495000D02*
X132310000Y-93195000D01*
G75*
G02*
X132460000Y-93045000I150000J0D01*
G01*
X134110000Y-93045000D01*
G75*
G02*
X134260000Y-93195000I0J-150000D01*
G01*
X134260000Y-93495000D01*
G75*
G02*
X134110000Y-93645000I-150000J0D01*
G01*
X132460000Y-93645000D01*
G75*
G02*
X132310000Y-93495000I0J150000D01*
G01*
G37*
G04 #@! TD.AperFunction*
G04 #@! TA.AperFunction,SMDPad,CuDef*
G36*
G01*
X132310000Y-94765000D02*
X132310000Y-94465000D01*
G75*
G02*
X132460000Y-94315000I150000J0D01*
G01*
X134110000Y-94315000D01*
G75*
G02*
X134260000Y-94465000I0J-150000D01*
G01*
X134260000Y-94765000D01*
G75*
G02*
X134110000Y-94915000I-150000J0D01*
G01*
X132460000Y-94915000D01*
G75*
G02*
X132310000Y-94765000I0J150000D01*
G01*
G37*
G04 #@! TD.AperFunction*
G04 #@! TA.AperFunction,SMDPad,CuDef*
G36*
G01*
X127360000Y-94765000D02*
X127360000Y-94465000D01*
G75*
G02*
X127510000Y-94315000I150000J0D01*
G01*
X129160000Y-94315000D01*
G75*
G02*
X129310000Y-94465000I0J-150000D01*
G01*
X129310000Y-94765000D01*
G75*
G02*
X129160000Y-94915000I-150000J0D01*
G01*
X127510000Y-94915000D01*
G75*
G02*
X127360000Y-94765000I0J150000D01*
G01*
G37*
G04 #@! TD.AperFunction*
G04 #@! TA.AperFunction,SMDPad,CuDef*
G36*
G01*
X127360000Y-93495000D02*
X127360000Y-93195000D01*
G75*
G02*
X127510000Y-93045000I150000J0D01*
G01*
X129160000Y-93045000D01*
G75*
G02*
X129310000Y-93195000I0J-150000D01*
G01*
X129310000Y-93495000D01*
G75*
G02*
X129160000Y-93645000I-150000J0D01*
G01*
X127510000Y-93645000D01*
G75*
G02*
X127360000Y-93495000I0J150000D01*
G01*
G37*
G04 #@! TD.AperFunction*
G04 #@! TA.AperFunction,SMDPad,CuDef*
G36*
G01*
X127360000Y-92225000D02*
X127360000Y-91925000D01*
G75*
G02*
X127510000Y-91775000I150000J0D01*
G01*
X129160000Y-91775000D01*
G75*
G02*
X129310000Y-91925000I0J-150000D01*
G01*
X129310000Y-92225000D01*
G75*
G02*
X129160000Y-92375000I-150000J0D01*
G01*
X127510000Y-92375000D01*
G75*
G02*
X127360000Y-92225000I0J150000D01*
G01*
G37*
G04 #@! TD.AperFunction*
G04 #@! TA.AperFunction,SMDPad,CuDef*
G36*
G01*
X127360000Y-90955000D02*
X127360000Y-90655000D01*
G75*
G02*
X127510000Y-90505000I150000J0D01*
G01*
X129160000Y-90505000D01*
G75*
G02*
X129310000Y-90655000I0J-150000D01*
G01*
X129310000Y-90955000D01*
G75*
G02*
X129160000Y-91105000I-150000J0D01*
G01*
X127510000Y-91105000D01*
G75*
G02*
X127360000Y-90955000I0J150000D01*
G01*
G37*
G04 #@! TD.AperFunction*
D12*
X148500000Y-87710000D03*
X148500000Y-92710000D03*
X116500000Y-92630000D03*
X116500000Y-87630000D03*
G04 #@! TA.AperFunction,SMDPad,CuDef*
G36*
G01*
X128950001Y-85050000D02*
X128049999Y-85050000D01*
G75*
G02*
X127800000Y-84800001I0J249999D01*
G01*
X127800000Y-84149999D01*
G75*
G02*
X128049999Y-83900000I249999J0D01*
G01*
X128950001Y-83900000D01*
G75*
G02*
X129200000Y-84149999I0J-249999D01*
G01*
X129200000Y-84800001D01*
G75*
G02*
X128950001Y-85050000I-249999J0D01*
G01*
G37*
G04 #@! TD.AperFunction*
G04 #@! TA.AperFunction,SMDPad,CuDef*
G36*
G01*
X128950001Y-87100000D02*
X128049999Y-87100000D01*
G75*
G02*
X127800000Y-86850001I0J249999D01*
G01*
X127800000Y-86199999D01*
G75*
G02*
X128049999Y-85950000I249999J0D01*
G01*
X128950001Y-85950000D01*
G75*
G02*
X129200000Y-86199999I0J-249999D01*
G01*
X129200000Y-86850001D01*
G75*
G02*
X128950001Y-87100000I-249999J0D01*
G01*
G37*
G04 #@! TD.AperFunction*
G04 #@! TA.AperFunction,SMDPad,CuDef*
G36*
G01*
X139750000Y-84462500D02*
X139750000Y-84937500D01*
G75*
G02*
X139512500Y-85175000I-237500J0D01*
G01*
X138937500Y-85175000D01*
G75*
G02*
X138700000Y-84937500I0J237500D01*
G01*
X138700000Y-84462500D01*
G75*
G02*
X138937500Y-84225000I237500J0D01*
G01*
X139512500Y-84225000D01*
G75*
G02*
X139750000Y-84462500I0J-237500D01*
G01*
G37*
G04 #@! TD.AperFunction*
G04 #@! TA.AperFunction,SMDPad,CuDef*
G36*
G01*
X141500000Y-84462500D02*
X141500000Y-84937500D01*
G75*
G02*
X141262500Y-85175000I-237500J0D01*
G01*
X140687500Y-85175000D01*
G75*
G02*
X140450000Y-84937500I0J237500D01*
G01*
X140450000Y-84462500D01*
G75*
G02*
X140687500Y-84225000I237500J0D01*
G01*
X141262500Y-84225000D01*
G75*
G02*
X141500000Y-84462500I0J-237500D01*
G01*
G37*
G04 #@! TD.AperFunction*
G04 #@! TA.AperFunction,SMDPad,CuDef*
G36*
G01*
X121762500Y-89250000D02*
X122237500Y-89250000D01*
G75*
G02*
X122475000Y-89487500I0J-237500D01*
G01*
X122475000Y-90062500D01*
G75*
G02*
X122237500Y-90300000I-237500J0D01*
G01*
X121762500Y-90300000D01*
G75*
G02*
X121525000Y-90062500I0J237500D01*
G01*
X121525000Y-89487500D01*
G75*
G02*
X121762500Y-89250000I237500J0D01*
G01*
G37*
G04 #@! TD.AperFunction*
G04 #@! TA.AperFunction,SMDPad,CuDef*
G36*
G01*
X121762500Y-87500000D02*
X122237500Y-87500000D01*
G75*
G02*
X122475000Y-87737500I0J-237500D01*
G01*
X122475000Y-88312500D01*
G75*
G02*
X122237500Y-88550000I-237500J0D01*
G01*
X121762500Y-88550000D01*
G75*
G02*
X121525000Y-88312500I0J237500D01*
G01*
X121525000Y-87737500D01*
G75*
G02*
X121762500Y-87500000I237500J0D01*
G01*
G37*
G04 #@! TD.AperFunction*
D13*
X132300000Y-83000000D03*
X137700000Y-84600000D03*
X142412942Y-85286483D03*
X141400000Y-89300000D03*
X137265884Y-83530022D03*
X130800000Y-90800000D03*
X132000000Y-90800000D03*
X130800000Y-94400000D03*
X135200000Y-90800000D03*
X135200000Y-94400000D03*
X136600000Y-94400000D03*
X136600000Y-90800000D03*
X138000000Y-90800000D03*
X138000000Y-94400000D03*
X132000000Y-94400000D03*
X130800000Y-92600000D03*
X139400000Y-90800000D03*
X141000000Y-90600000D03*
X142800000Y-89800000D03*
X144200000Y-89800000D03*
X145600000Y-89800000D03*
X147000000Y-89800000D03*
X139400000Y-94400000D03*
X140800000Y-94400000D03*
X142200000Y-94400000D03*
X143600000Y-94400000D03*
X145000000Y-94400000D03*
X146400000Y-94400000D03*
X151400000Y-94400000D03*
X149800000Y-94400000D03*
X145800000Y-79600000D03*
X144200000Y-84400000D03*
X151200000Y-79600000D03*
X151200000Y-85000000D03*
X147600000Y-84400000D03*
X151000000Y-90000000D03*
X137400000Y-79400000D03*
D14*
X126700000Y-84475000D02*
X126000000Y-84475000D01*
X127000000Y-84175000D02*
X126700000Y-84475000D01*
X127000000Y-81280000D02*
X127000000Y-84175000D01*
D15*
X127870000Y-92630000D02*
X128100000Y-92400000D01*
X128335000Y-92075000D02*
X128100000Y-92400000D01*
X121549990Y-90225010D02*
X122000000Y-90225010D01*
X120194999Y-91580001D02*
X121549990Y-90225010D01*
X117549999Y-91580001D02*
X120194999Y-91580001D01*
X123399980Y-92075000D02*
X121549990Y-90225010D01*
X127180001Y-91580001D02*
X128200000Y-92600000D01*
X117549999Y-91580001D02*
X127180001Y-91580001D01*
X116500000Y-92630000D02*
X117549999Y-91580001D01*
X128335000Y-92075000D02*
X128200000Y-92600000D01*
D14*
X132300000Y-83000000D02*
X132300000Y-85800000D01*
X128335000Y-92075000D02*
X128335000Y-90805000D01*
D15*
X128200000Y-92600000D02*
X123399980Y-92075000D01*
D14*
X138700000Y-84700000D02*
X139225000Y-84700000D01*
X136095000Y-86860000D02*
X136820000Y-86860000D01*
X136064654Y-86860000D02*
X136095000Y-86860000D01*
X135794990Y-86590336D02*
X136064654Y-86860000D01*
X135794990Y-85129664D02*
X135794990Y-86590336D01*
X136224654Y-84700000D02*
X135794990Y-85129664D01*
X139225000Y-84700000D02*
X136224654Y-84700000D01*
X132420000Y-85360000D02*
X132420000Y-85860000D01*
D15*
X121605000Y-87630000D02*
X122000000Y-88025000D01*
X116500000Y-87630000D02*
X121605000Y-87630000D01*
X124674374Y-88025000D02*
X125449374Y-88800000D01*
X122000000Y-88025000D02*
X124674374Y-88025000D01*
X140012500Y-88505000D02*
X140012500Y-87630000D01*
X139717500Y-88800000D02*
X140012500Y-88505000D01*
X125449374Y-88800000D02*
X139717500Y-88800000D01*
D14*
X142224415Y-85475010D02*
X142412942Y-85286483D01*
X138714854Y-85475010D02*
X142224415Y-85475010D01*
X138599844Y-85360000D02*
X138714854Y-85475010D01*
X136820000Y-85360000D02*
X138599844Y-85360000D01*
X140807500Y-89300000D02*
X140012500Y-88505000D01*
X141400000Y-89300000D02*
X140807500Y-89300000D01*
X143000000Y-80475000D02*
X140500000Y-80475000D01*
X137965000Y-80475000D02*
X137160000Y-81280000D01*
X140500000Y-80475000D02*
X137965000Y-80475000D01*
X123500000Y-81985000D02*
X123180000Y-81985000D01*
X136310001Y-80430001D02*
X137160000Y-81280000D01*
X123180000Y-81985000D02*
X122879990Y-81684990D01*
X122879990Y-81684990D02*
X122879990Y-80682134D01*
X122879990Y-80682134D02*
X123912135Y-79649989D01*
X123912135Y-79649989D02*
X125127822Y-79649989D01*
X125127822Y-79649989D02*
X125207822Y-79729989D01*
X125207822Y-79729989D02*
X135609989Y-79729989D01*
X135609989Y-79729989D02*
X136310001Y-80430001D01*
X136136001Y-84200001D02*
X135394979Y-84941023D01*
X140975000Y-84700000D02*
X140975000Y-84225000D01*
X140975000Y-84225000D02*
X140654541Y-83904541D01*
X140654541Y-83904541D02*
X138040543Y-83904541D01*
X135394979Y-87094979D02*
X135660000Y-87360000D01*
X138040543Y-83904541D02*
X138036002Y-83900000D01*
X135394979Y-84941023D02*
X135394979Y-87094979D01*
X136600000Y-83900000D02*
X136299999Y-84200001D01*
X136095000Y-87360000D02*
X136820000Y-87360000D01*
X136299999Y-84200001D02*
X136136001Y-84200001D01*
X135660000Y-87360000D02*
X136095000Y-87360000D01*
X137265884Y-83530022D02*
X137265884Y-83734116D01*
X137200000Y-83800000D02*
X136600000Y-83900000D01*
X137265884Y-83734116D02*
X137200000Y-83800000D01*
X138036002Y-83900000D02*
X137200000Y-83800000D01*
X128500000Y-82320000D02*
X128500000Y-84475000D01*
X129540000Y-81280000D02*
X128500000Y-82320000D01*
X123500000Y-80720000D02*
X123500000Y-81015000D01*
X124090001Y-80129999D02*
X123500000Y-80720000D01*
X129540000Y-81280000D02*
X128389999Y-80129999D01*
D16*
X123919998Y-82730010D02*
X124900000Y-81750008D01*
X119179988Y-82730010D02*
X123919998Y-82730010D01*
X114999999Y-86909999D02*
X119179988Y-82730010D01*
X114999999Y-93350001D02*
X114999999Y-86909999D01*
X116149998Y-94500000D02*
X114999999Y-93350001D01*
X121875000Y-94500000D02*
X116149998Y-94500000D01*
X124900000Y-81750008D02*
X124900000Y-80200000D01*
D14*
X124090001Y-80129999D02*
X128389999Y-80129999D01*
X127800000Y-86525000D02*
X126000000Y-86525000D01*
X128500000Y-86525000D02*
X127800000Y-86525000D01*
D15*
X143067500Y-87710000D02*
X142987500Y-87630000D01*
X148500000Y-87710000D02*
X143067500Y-87710000D01*
D14*
X142442500Y-86210000D02*
X142987500Y-86755000D01*
X142987500Y-86755000D02*
X142987500Y-87630000D01*
X136970000Y-86210000D02*
X142442500Y-86210000D01*
X136820000Y-86360000D02*
X136970000Y-86210000D01*
X136820000Y-85860000D02*
X136820000Y-86360000D01*
X133770001Y-80430001D02*
X134620000Y-81280000D01*
X133469999Y-80129999D02*
X133770001Y-80430001D01*
X131527999Y-80129999D02*
X133469999Y-80129999D01*
X130929999Y-80727999D02*
X131527999Y-80129999D01*
X130929999Y-86125345D02*
X130929999Y-80727999D01*
X131664654Y-86860000D02*
X130929999Y-86125345D01*
X132420000Y-86860000D02*
X131664654Y-86860000D01*
X142699990Y-81649990D02*
X143000000Y-81950000D01*
X135770001Y-82430001D02*
X139042165Y-82430001D01*
X143000000Y-81950000D02*
X143000000Y-82525000D01*
X139822176Y-81649990D02*
X142699990Y-81649990D01*
X139042165Y-82430001D02*
X139822176Y-81649990D01*
X134620000Y-81280000D02*
X135770001Y-82430001D01*
X133500000Y-87035346D02*
X133500000Y-82700000D01*
X132420000Y-87360000D02*
X133175346Y-87360000D01*
X133175346Y-87360000D02*
X133500000Y-87035346D01*
X132080000Y-81280000D02*
X133500000Y-82700000D01*
X133500000Y-82700000D02*
X133630012Y-82830012D01*
X139800000Y-82525000D02*
X140500000Y-82525000D01*
X139494988Y-82830012D02*
X139800000Y-82525000D01*
X133630012Y-82830012D02*
X139494988Y-82830012D01*
D16*
X128220000Y-94500000D02*
X128335000Y-94615000D01*
X123925000Y-94500000D02*
X128220000Y-94500000D01*
D17*
X147575271Y-79363962D02*
X147263962Y-79675271D01*
X147019369Y-80041331D01*
X146850890Y-80448075D01*
X146765000Y-80879872D01*
X146765000Y-81320128D01*
X146850890Y-81751925D01*
X147019369Y-82158669D01*
X147263962Y-82524729D01*
X147575271Y-82836038D01*
X147941331Y-83080631D01*
X148348075Y-83249110D01*
X148779872Y-83335000D01*
X149220128Y-83335000D01*
X149651925Y-83249110D01*
X150058669Y-83080631D01*
X150424729Y-82836038D01*
X150736038Y-82524729D01*
X150980631Y-82158669D01*
X151149110Y-81751925D01*
X151235000Y-81320128D01*
X151235000Y-80879872D01*
X151149110Y-80448075D01*
X150980631Y-80041331D01*
X150736038Y-79675271D01*
X150424729Y-79363962D01*
X150119478Y-79160000D01*
X151467721Y-79160000D01*
X151565424Y-79169580D01*
X151628356Y-79188580D01*
X151686405Y-79219445D01*
X151737343Y-79260989D01*
X151779248Y-79311644D01*
X151810515Y-79369471D01*
X151829956Y-79432272D01*
X151840000Y-79527835D01*
X151840001Y-94467711D01*
X151830420Y-94565424D01*
X151811420Y-94628357D01*
X151780554Y-94686406D01*
X151739011Y-94737343D01*
X151688356Y-94779248D01*
X151630529Y-94810515D01*
X151567728Y-94829956D01*
X151472165Y-94840000D01*
X130423670Y-94840000D01*
X130417962Y-93881066D01*
X147508539Y-93881066D01*
X147610339Y-94150579D01*
X147908477Y-94296463D01*
X148229346Y-94381380D01*
X148560617Y-94402066D01*
X148889557Y-94357728D01*
X149203527Y-94250069D01*
X149389661Y-94150579D01*
X149491461Y-93881066D01*
X148500000Y-92889605D01*
X147508539Y-93881066D01*
X130417962Y-93881066D01*
X130411352Y-92770617D01*
X146807934Y-92770617D01*
X146852272Y-93099557D01*
X146959931Y-93413527D01*
X147059421Y-93599661D01*
X147328934Y-93701461D01*
X148320395Y-92710000D01*
X148679605Y-92710000D01*
X149671066Y-93701461D01*
X149940579Y-93599661D01*
X150086463Y-93301523D01*
X150171380Y-92980654D01*
X150192066Y-92649383D01*
X150147728Y-92320443D01*
X150040069Y-92006473D01*
X149940579Y-91820339D01*
X149671066Y-91718539D01*
X148679605Y-92710000D01*
X148320395Y-92710000D01*
X147328934Y-91718539D01*
X147059421Y-91820339D01*
X146913537Y-92118477D01*
X146828620Y-92439346D01*
X146807934Y-92770617D01*
X130411352Y-92770617D01*
X130404021Y-91538934D01*
X147508539Y-91538934D01*
X148500000Y-92530395D01*
X149491461Y-91538934D01*
X149389661Y-91269421D01*
X149091523Y-91123537D01*
X148770654Y-91038620D01*
X148439383Y-91017934D01*
X148110443Y-91062272D01*
X147796473Y-91169931D01*
X147610339Y-91269421D01*
X147508539Y-91538934D01*
X130404021Y-91538934D01*
X130397449Y-90435000D01*
X139637181Y-90435000D01*
X139717500Y-90442911D01*
X139797819Y-90435000D01*
X139797822Y-90435000D01*
X140038016Y-90411343D01*
X140346215Y-90317852D01*
X140630252Y-90166031D01*
X140724760Y-90088471D01*
X140740226Y-90103937D01*
X140909744Y-90217205D01*
X141098102Y-90295226D01*
X141298061Y-90335000D01*
X141501939Y-90335000D01*
X141701898Y-90295226D01*
X141890256Y-90217205D01*
X142059774Y-90103937D01*
X142203937Y-89959774D01*
X142317205Y-89790256D01*
X142395226Y-89601898D01*
X142435000Y-89401939D01*
X142435000Y-89225829D01*
X142438785Y-89227852D01*
X142746984Y-89321343D01*
X142987178Y-89345000D01*
X142987180Y-89345000D01*
X143067499Y-89352911D01*
X143147819Y-89345000D01*
X148082677Y-89345000D01*
X148334042Y-89395000D01*
X148665958Y-89395000D01*
X148991496Y-89330246D01*
X149298147Y-89203228D01*
X149574125Y-89018825D01*
X149808825Y-88784125D01*
X149993228Y-88508147D01*
X150120246Y-88201496D01*
X150185000Y-87875958D01*
X150185000Y-87544042D01*
X150120246Y-87218504D01*
X149993228Y-86911853D01*
X149808825Y-86635875D01*
X149574125Y-86401175D01*
X149298147Y-86216772D01*
X148991496Y-86089754D01*
X148665958Y-86025000D01*
X148334042Y-86025000D01*
X148082677Y-86075000D01*
X143493752Y-86075000D01*
X143308016Y-86018658D01*
X143288702Y-86016756D01*
X143217410Y-85945463D01*
X143330147Y-85776739D01*
X143408168Y-85588381D01*
X143447942Y-85388422D01*
X143447942Y-85184544D01*
X143408168Y-84984585D01*
X143330147Y-84796227D01*
X143216879Y-84626709D01*
X143072716Y-84482546D01*
X142903198Y-84369278D01*
X142714840Y-84291257D01*
X142514881Y-84251483D01*
X142311003Y-84251483D01*
X142120545Y-84289367D01*
X142071423Y-84127433D01*
X141990512Y-83976058D01*
X141881623Y-83843377D01*
X141748942Y-83734488D01*
X141597567Y-83653577D01*
X141433316Y-83603752D01*
X141417575Y-83602202D01*
X141443387Y-83588405D01*
X141577962Y-83477962D01*
X141688405Y-83343387D01*
X141750000Y-83228151D01*
X141811595Y-83343387D01*
X141922038Y-83477962D01*
X142056613Y-83588405D01*
X142210149Y-83670472D01*
X142376745Y-83721008D01*
X142549999Y-83738072D01*
X143450001Y-83738072D01*
X143623255Y-83721008D01*
X143789851Y-83670472D01*
X143943387Y-83588405D01*
X144077962Y-83477962D01*
X144188405Y-83343387D01*
X144270472Y-83189851D01*
X144321008Y-83023255D01*
X144338072Y-82850001D01*
X144338072Y-82199999D01*
X144321008Y-82026745D01*
X144270472Y-81860149D01*
X144188405Y-81706613D01*
X144077962Y-81572038D01*
X143990184Y-81500000D01*
X144077962Y-81427962D01*
X144188405Y-81293387D01*
X144270472Y-81139851D01*
X144321008Y-80973255D01*
X144338072Y-80800001D01*
X144338072Y-80149999D01*
X144321008Y-79976745D01*
X144270472Y-79810149D01*
X144188405Y-79656613D01*
X144077962Y-79522038D01*
X143943387Y-79411595D01*
X143789851Y-79329528D01*
X143623255Y-79278992D01*
X143450001Y-79261928D01*
X142549999Y-79261928D01*
X142376745Y-79278992D01*
X142210149Y-79329528D01*
X142056613Y-79411595D01*
X141922038Y-79522038D01*
X141811595Y-79656613D01*
X141767024Y-79740000D01*
X141732976Y-79740000D01*
X141688405Y-79656613D01*
X141577962Y-79522038D01*
X141443387Y-79411595D01*
X141289851Y-79329528D01*
X141123255Y-79278992D01*
X140950001Y-79261928D01*
X140049999Y-79261928D01*
X139876745Y-79278992D01*
X139710149Y-79329528D01*
X139556613Y-79411595D01*
X139422038Y-79522038D01*
X139311595Y-79656613D01*
X139267024Y-79740000D01*
X138001105Y-79740000D01*
X137965000Y-79736444D01*
X137928895Y-79740000D01*
X137820915Y-79750635D01*
X137682367Y-79792663D01*
X137577176Y-79848889D01*
X137306260Y-79795000D01*
X137013740Y-79795000D01*
X136764103Y-79844656D01*
X136155247Y-79235801D01*
X136132227Y-79207751D01*
X136074042Y-79160000D01*
X147880522Y-79160000D01*
X147575271Y-79363962D01*
G04 #@! TA.AperFunction,Conductor*
D18*
G36*
X147575271Y-79363962D02*
G01*
X147263962Y-79675271D01*
X147019369Y-80041331D01*
X146850890Y-80448075D01*
X146765000Y-80879872D01*
X146765000Y-81320128D01*
X146850890Y-81751925D01*
X147019369Y-82158669D01*
X147263962Y-82524729D01*
X147575271Y-82836038D01*
X147941331Y-83080631D01*
X148348075Y-83249110D01*
X148779872Y-83335000D01*
X149220128Y-83335000D01*
X149651925Y-83249110D01*
X150058669Y-83080631D01*
X150424729Y-82836038D01*
X150736038Y-82524729D01*
X150980631Y-82158669D01*
X151149110Y-81751925D01*
X151235000Y-81320128D01*
X151235000Y-80879872D01*
X151149110Y-80448075D01*
X150980631Y-80041331D01*
X150736038Y-79675271D01*
X150424729Y-79363962D01*
X150119478Y-79160000D01*
X151467721Y-79160000D01*
X151565424Y-79169580D01*
X151628356Y-79188580D01*
X151686405Y-79219445D01*
X151737343Y-79260989D01*
X151779248Y-79311644D01*
X151810515Y-79369471D01*
X151829956Y-79432272D01*
X151840000Y-79527835D01*
X151840001Y-94467711D01*
X151830420Y-94565424D01*
X151811420Y-94628357D01*
X151780554Y-94686406D01*
X151739011Y-94737343D01*
X151688356Y-94779248D01*
X151630529Y-94810515D01*
X151567728Y-94829956D01*
X151472165Y-94840000D01*
X130423670Y-94840000D01*
X130417962Y-93881066D01*
X147508539Y-93881066D01*
X147610339Y-94150579D01*
X147908477Y-94296463D01*
X148229346Y-94381380D01*
X148560617Y-94402066D01*
X148889557Y-94357728D01*
X149203527Y-94250069D01*
X149389661Y-94150579D01*
X149491461Y-93881066D01*
X148500000Y-92889605D01*
X147508539Y-93881066D01*
X130417962Y-93881066D01*
X130411352Y-92770617D01*
X146807934Y-92770617D01*
X146852272Y-93099557D01*
X146959931Y-93413527D01*
X147059421Y-93599661D01*
X147328934Y-93701461D01*
X148320395Y-92710000D01*
X148679605Y-92710000D01*
X149671066Y-93701461D01*
X149940579Y-93599661D01*
X150086463Y-93301523D01*
X150171380Y-92980654D01*
X150192066Y-92649383D01*
X150147728Y-92320443D01*
X150040069Y-92006473D01*
X149940579Y-91820339D01*
X149671066Y-91718539D01*
X148679605Y-92710000D01*
X148320395Y-92710000D01*
X147328934Y-91718539D01*
X147059421Y-91820339D01*
X146913537Y-92118477D01*
X146828620Y-92439346D01*
X146807934Y-92770617D01*
X130411352Y-92770617D01*
X130404021Y-91538934D01*
X147508539Y-91538934D01*
X148500000Y-92530395D01*
X149491461Y-91538934D01*
X149389661Y-91269421D01*
X149091523Y-91123537D01*
X148770654Y-91038620D01*
X148439383Y-91017934D01*
X148110443Y-91062272D01*
X147796473Y-91169931D01*
X147610339Y-91269421D01*
X147508539Y-91538934D01*
X130404021Y-91538934D01*
X130397449Y-90435000D01*
X139637181Y-90435000D01*
X139717500Y-90442911D01*
X139797819Y-90435000D01*
X139797822Y-90435000D01*
X140038016Y-90411343D01*
X140346215Y-90317852D01*
X140630252Y-90166031D01*
X140724760Y-90088471D01*
X140740226Y-90103937D01*
X140909744Y-90217205D01*
X141098102Y-90295226D01*
X141298061Y-90335000D01*
X141501939Y-90335000D01*
X141701898Y-90295226D01*
X141890256Y-90217205D01*
X142059774Y-90103937D01*
X142203937Y-89959774D01*
X142317205Y-89790256D01*
X142395226Y-89601898D01*
X142435000Y-89401939D01*
X142435000Y-89225829D01*
X142438785Y-89227852D01*
X142746984Y-89321343D01*
X142987178Y-89345000D01*
X142987180Y-89345000D01*
X143067499Y-89352911D01*
X143147819Y-89345000D01*
X148082677Y-89345000D01*
X148334042Y-89395000D01*
X148665958Y-89395000D01*
X148991496Y-89330246D01*
X149298147Y-89203228D01*
X149574125Y-89018825D01*
X149808825Y-88784125D01*
X149993228Y-88508147D01*
X150120246Y-88201496D01*
X150185000Y-87875958D01*
X150185000Y-87544042D01*
X150120246Y-87218504D01*
X149993228Y-86911853D01*
X149808825Y-86635875D01*
X149574125Y-86401175D01*
X149298147Y-86216772D01*
X148991496Y-86089754D01*
X148665958Y-86025000D01*
X148334042Y-86025000D01*
X148082677Y-86075000D01*
X143493752Y-86075000D01*
X143308016Y-86018658D01*
X143288702Y-86016756D01*
X143217410Y-85945463D01*
X143330147Y-85776739D01*
X143408168Y-85588381D01*
X143447942Y-85388422D01*
X143447942Y-85184544D01*
X143408168Y-84984585D01*
X143330147Y-84796227D01*
X143216879Y-84626709D01*
X143072716Y-84482546D01*
X142903198Y-84369278D01*
X142714840Y-84291257D01*
X142514881Y-84251483D01*
X142311003Y-84251483D01*
X142120545Y-84289367D01*
X142071423Y-84127433D01*
X141990512Y-83976058D01*
X141881623Y-83843377D01*
X141748942Y-83734488D01*
X141597567Y-83653577D01*
X141433316Y-83603752D01*
X141417575Y-83602202D01*
X141443387Y-83588405D01*
X141577962Y-83477962D01*
X141688405Y-83343387D01*
X141750000Y-83228151D01*
X141811595Y-83343387D01*
X141922038Y-83477962D01*
X142056613Y-83588405D01*
X142210149Y-83670472D01*
X142376745Y-83721008D01*
X142549999Y-83738072D01*
X143450001Y-83738072D01*
X143623255Y-83721008D01*
X143789851Y-83670472D01*
X143943387Y-83588405D01*
X144077962Y-83477962D01*
X144188405Y-83343387D01*
X144270472Y-83189851D01*
X144321008Y-83023255D01*
X144338072Y-82850001D01*
X144338072Y-82199999D01*
X144321008Y-82026745D01*
X144270472Y-81860149D01*
X144188405Y-81706613D01*
X144077962Y-81572038D01*
X143990184Y-81500000D01*
X144077962Y-81427962D01*
X144188405Y-81293387D01*
X144270472Y-81139851D01*
X144321008Y-80973255D01*
X144338072Y-80800001D01*
X144338072Y-80149999D01*
X144321008Y-79976745D01*
X144270472Y-79810149D01*
X144188405Y-79656613D01*
X144077962Y-79522038D01*
X143943387Y-79411595D01*
X143789851Y-79329528D01*
X143623255Y-79278992D01*
X143450001Y-79261928D01*
X142549999Y-79261928D01*
X142376745Y-79278992D01*
X142210149Y-79329528D01*
X142056613Y-79411595D01*
X141922038Y-79522038D01*
X141811595Y-79656613D01*
X141767024Y-79740000D01*
X141732976Y-79740000D01*
X141688405Y-79656613D01*
X141577962Y-79522038D01*
X141443387Y-79411595D01*
X141289851Y-79329528D01*
X141123255Y-79278992D01*
X140950001Y-79261928D01*
X140049999Y-79261928D01*
X139876745Y-79278992D01*
X139710149Y-79329528D01*
X139556613Y-79411595D01*
X139422038Y-79522038D01*
X139311595Y-79656613D01*
X139267024Y-79740000D01*
X138001105Y-79740000D01*
X137965000Y-79736444D01*
X137928895Y-79740000D01*
X137820915Y-79750635D01*
X137682367Y-79792663D01*
X137577176Y-79848889D01*
X137306260Y-79795000D01*
X137013740Y-79795000D01*
X136764103Y-79844656D01*
X136155247Y-79235801D01*
X136132227Y-79207751D01*
X136074042Y-79160000D01*
X147880522Y-79160000D01*
X147575271Y-79363962D01*
G37*
G04 #@! TD.AperFunction*
D17*
X116008504Y-89250246D02*
X116334042Y-89315000D01*
X116665958Y-89315000D01*
X116917323Y-89265000D01*
X120887121Y-89265000D01*
X120890000Y-89489250D01*
X121048750Y-89648000D01*
X121797840Y-89648000D01*
X121919678Y-89660000D01*
X121919680Y-89660000D01*
X121999999Y-89667911D01*
X122080319Y-89660000D01*
X123997135Y-89660000D01*
X124236453Y-89899318D01*
X124287660Y-89961714D01*
X124536622Y-90166031D01*
X124713960Y-90260820D01*
X124820659Y-90317852D01*
X125128857Y-90411343D01*
X125449374Y-90442912D01*
X125529704Y-90435000D01*
X126728822Y-90435000D01*
X126721928Y-90505000D01*
X126725000Y-90519250D01*
X126883750Y-90678000D01*
X128208000Y-90678000D01*
X128208000Y-90658000D01*
X128462000Y-90658000D01*
X128462000Y-90678000D01*
X128482000Y-90678000D01*
X128482000Y-90932000D01*
X128462000Y-90932000D01*
X128462000Y-91948000D01*
X128482000Y-91948000D01*
X128482000Y-92202000D01*
X128462000Y-92202000D01*
X128462000Y-93218000D01*
X128482000Y-93218000D01*
X128482000Y-93472000D01*
X128462000Y-93472000D01*
X128462000Y-93492000D01*
X128208000Y-93492000D01*
X128208000Y-93472000D01*
X126883750Y-93472000D01*
X126740750Y-93615000D01*
X125019614Y-93615000D01*
X124988405Y-93556613D01*
X124877962Y-93422038D01*
X124743387Y-93311595D01*
X124589851Y-93229528D01*
X124423255Y-93178992D01*
X124250001Y-93161928D01*
X123599999Y-93161928D01*
X123426745Y-93178992D01*
X123260149Y-93229528D01*
X123106613Y-93311595D01*
X122972038Y-93422038D01*
X122900000Y-93509816D01*
X122827962Y-93422038D01*
X122693387Y-93311595D01*
X122539851Y-93229528D01*
X122373255Y-93178992D01*
X122200001Y-93161928D01*
X121549999Y-93161928D01*
X121376745Y-93178992D01*
X121210149Y-93229528D01*
X121056613Y-93311595D01*
X120922038Y-93422038D01*
X120811595Y-93556613D01*
X120780386Y-93615000D01*
X117688171Y-93615000D01*
X117940579Y-93519661D01*
X118086463Y-93221523D01*
X118171380Y-92900654D01*
X118192066Y-92569383D01*
X118165866Y-92375000D01*
X126721928Y-92375000D01*
X126734188Y-92499482D01*
X126770498Y-92619180D01*
X126819043Y-92710000D01*
X126770498Y-92800820D01*
X126734188Y-92920518D01*
X126721928Y-93045000D01*
X126725000Y-93059250D01*
X126883750Y-93218000D01*
X128208000Y-93218000D01*
X128208000Y-92202000D01*
X126883750Y-92202000D01*
X126725000Y-92360750D01*
X126721928Y-92375000D01*
X118165866Y-92375000D01*
X118147728Y-92240443D01*
X118040069Y-91926473D01*
X117940579Y-91740339D01*
X117671066Y-91638539D01*
X116679605Y-92630000D01*
X116693748Y-92644143D01*
X116514143Y-92823748D01*
X116500000Y-92809605D01*
X116485858Y-92823748D01*
X116306253Y-92644143D01*
X116320395Y-92630000D01*
X116306253Y-92615858D01*
X116485858Y-92436253D01*
X116500000Y-92450395D01*
X117491461Y-91458934D01*
X117389661Y-91189421D01*
X117217133Y-91105000D01*
X126721928Y-91105000D01*
X126734188Y-91229482D01*
X126770498Y-91349180D01*
X126819043Y-91440000D01*
X126770498Y-91530820D01*
X126734188Y-91650518D01*
X126721928Y-91775000D01*
X126725000Y-91789250D01*
X126883750Y-91948000D01*
X128208000Y-91948000D01*
X128208000Y-90932000D01*
X126883750Y-90932000D01*
X126725000Y-91090750D01*
X126721928Y-91105000D01*
X117217133Y-91105000D01*
X117091523Y-91043537D01*
X116770654Y-90958620D01*
X116439383Y-90937934D01*
X116110443Y-90982272D01*
X115884999Y-91059576D01*
X115884999Y-90300000D01*
X120886928Y-90300000D01*
X120899188Y-90424482D01*
X120935498Y-90544180D01*
X120994463Y-90654494D01*
X121073815Y-90751185D01*
X121170506Y-90830537D01*
X121280820Y-90889502D01*
X121400518Y-90925812D01*
X121525000Y-90938072D01*
X121714250Y-90935000D01*
X121873000Y-90776250D01*
X121873000Y-89902000D01*
X122127000Y-89902000D01*
X122127000Y-90776250D01*
X122285750Y-90935000D01*
X122475000Y-90938072D01*
X122599482Y-90925812D01*
X122719180Y-90889502D01*
X122829494Y-90830537D01*
X122926185Y-90751185D01*
X123005537Y-90654494D01*
X123064502Y-90544180D01*
X123100812Y-90424482D01*
X123113072Y-90300000D01*
X123110000Y-90060750D01*
X122951250Y-89902000D01*
X122127000Y-89902000D01*
X121873000Y-89902000D01*
X121048750Y-89902000D01*
X120890000Y-90060750D01*
X120886928Y-90300000D01*
X115884999Y-90300000D01*
X115884999Y-89199089D01*
X116008504Y-89250246D01*
G04 #@! TA.AperFunction,Conductor*
D18*
G36*
X116008504Y-89250246D02*
G01*
X116334042Y-89315000D01*
X116665958Y-89315000D01*
X116917323Y-89265000D01*
X120887121Y-89265000D01*
X120890000Y-89489250D01*
X121048750Y-89648000D01*
X121797840Y-89648000D01*
X121919678Y-89660000D01*
X121919680Y-89660000D01*
X121999999Y-89667911D01*
X122080319Y-89660000D01*
X123997135Y-89660000D01*
X124236453Y-89899318D01*
X124287660Y-89961714D01*
X124536622Y-90166031D01*
X124713960Y-90260820D01*
X124820659Y-90317852D01*
X125128857Y-90411343D01*
X125449374Y-90442912D01*
X125529704Y-90435000D01*
X126728822Y-90435000D01*
X126721928Y-90505000D01*
X126725000Y-90519250D01*
X126883750Y-90678000D01*
X128208000Y-90678000D01*
X128208000Y-90658000D01*
X128462000Y-90658000D01*
X128462000Y-90678000D01*
X128482000Y-90678000D01*
X128482000Y-90932000D01*
X128462000Y-90932000D01*
X128462000Y-91948000D01*
X128482000Y-91948000D01*
X128482000Y-92202000D01*
X128462000Y-92202000D01*
X128462000Y-93218000D01*
X128482000Y-93218000D01*
X128482000Y-93472000D01*
X128462000Y-93472000D01*
X128462000Y-93492000D01*
X128208000Y-93492000D01*
X128208000Y-93472000D01*
X126883750Y-93472000D01*
X126740750Y-93615000D01*
X125019614Y-93615000D01*
X124988405Y-93556613D01*
X124877962Y-93422038D01*
X124743387Y-93311595D01*
X124589851Y-93229528D01*
X124423255Y-93178992D01*
X124250001Y-93161928D01*
X123599999Y-93161928D01*
X123426745Y-93178992D01*
X123260149Y-93229528D01*
X123106613Y-93311595D01*
X122972038Y-93422038D01*
X122900000Y-93509816D01*
X122827962Y-93422038D01*
X122693387Y-93311595D01*
X122539851Y-93229528D01*
X122373255Y-93178992D01*
X122200001Y-93161928D01*
X121549999Y-93161928D01*
X121376745Y-93178992D01*
X121210149Y-93229528D01*
X121056613Y-93311595D01*
X120922038Y-93422038D01*
X120811595Y-93556613D01*
X120780386Y-93615000D01*
X117688171Y-93615000D01*
X117940579Y-93519661D01*
X118086463Y-93221523D01*
X118171380Y-92900654D01*
X118192066Y-92569383D01*
X118165866Y-92375000D01*
X126721928Y-92375000D01*
X126734188Y-92499482D01*
X126770498Y-92619180D01*
X126819043Y-92710000D01*
X126770498Y-92800820D01*
X126734188Y-92920518D01*
X126721928Y-93045000D01*
X126725000Y-93059250D01*
X126883750Y-93218000D01*
X128208000Y-93218000D01*
X128208000Y-92202000D01*
X126883750Y-92202000D01*
X126725000Y-92360750D01*
X126721928Y-92375000D01*
X118165866Y-92375000D01*
X118147728Y-92240443D01*
X118040069Y-91926473D01*
X117940579Y-91740339D01*
X117671066Y-91638539D01*
X116679605Y-92630000D01*
X116693748Y-92644143D01*
X116514143Y-92823748D01*
X116500000Y-92809605D01*
X116485858Y-92823748D01*
X116306253Y-92644143D01*
X116320395Y-92630000D01*
X116306253Y-92615858D01*
X116485858Y-92436253D01*
X116500000Y-92450395D01*
X117491461Y-91458934D01*
X117389661Y-91189421D01*
X117217133Y-91105000D01*
X126721928Y-91105000D01*
X126734188Y-91229482D01*
X126770498Y-91349180D01*
X126819043Y-91440000D01*
X126770498Y-91530820D01*
X126734188Y-91650518D01*
X126721928Y-91775000D01*
X126725000Y-91789250D01*
X126883750Y-91948000D01*
X128208000Y-91948000D01*
X128208000Y-90932000D01*
X126883750Y-90932000D01*
X126725000Y-91090750D01*
X126721928Y-91105000D01*
X117217133Y-91105000D01*
X117091523Y-91043537D01*
X116770654Y-90958620D01*
X116439383Y-90937934D01*
X116110443Y-90982272D01*
X115884999Y-91059576D01*
X115884999Y-90300000D01*
X120886928Y-90300000D01*
X120899188Y-90424482D01*
X120935498Y-90544180D01*
X120994463Y-90654494D01*
X121073815Y-90751185D01*
X121170506Y-90830537D01*
X121280820Y-90889502D01*
X121400518Y-90925812D01*
X121525000Y-90938072D01*
X121714250Y-90935000D01*
X121873000Y-90776250D01*
X121873000Y-89902000D01*
X122127000Y-89902000D01*
X122127000Y-90776250D01*
X122285750Y-90935000D01*
X122475000Y-90938072D01*
X122599482Y-90925812D01*
X122719180Y-90889502D01*
X122829494Y-90830537D01*
X122926185Y-90751185D01*
X123005537Y-90654494D01*
X123064502Y-90544180D01*
X123100812Y-90424482D01*
X123113072Y-90300000D01*
X123110000Y-90060750D01*
X122951250Y-89902000D01*
X122127000Y-89902000D01*
X121873000Y-89902000D01*
X121048750Y-89902000D01*
X120890000Y-90060750D01*
X120886928Y-90300000D01*
X115884999Y-90300000D01*
X115884999Y-89199089D01*
X116008504Y-89250246D01*
G37*
G04 #@! TD.AperFunction*
D17*
X127127000Y-81153000D02*
X127147000Y-81153000D01*
X127147000Y-81407000D01*
X127127000Y-81407000D01*
X127127000Y-82606250D01*
X127285750Y-82765000D01*
X127765000Y-82767609D01*
X127765000Y-83312889D01*
X127710149Y-83329528D01*
X127556613Y-83411595D01*
X127422038Y-83522038D01*
X127311595Y-83656613D01*
X127297654Y-83682694D01*
X127289502Y-83655820D01*
X127230537Y-83545506D01*
X127151185Y-83448815D01*
X127054494Y-83369463D01*
X126944180Y-83310498D01*
X126824482Y-83274188D01*
X126700000Y-83261928D01*
X126285750Y-83265000D01*
X126127000Y-83423750D01*
X126127000Y-84348000D01*
X126147000Y-84348000D01*
X126147000Y-84602000D01*
X126127000Y-84602000D01*
X126127000Y-84622000D01*
X125873000Y-84622000D01*
X125873000Y-84602000D01*
X124823750Y-84602000D01*
X124665000Y-84760750D01*
X124661928Y-85050000D01*
X124674188Y-85174482D01*
X124710498Y-85294180D01*
X124769463Y-85404494D01*
X124848815Y-85501185D01*
X124928594Y-85566658D01*
X124922038Y-85572038D01*
X124811595Y-85706613D01*
X124729528Y-85860149D01*
X124678992Y-86026745D01*
X124661928Y-86199999D01*
X124661928Y-86383315D01*
X124594055Y-86390000D01*
X122671322Y-86390000D01*
X122517752Y-86263969D01*
X122233715Y-86112148D01*
X121925516Y-86018657D01*
X121685322Y-85995000D01*
X121685319Y-85995000D01*
X121605000Y-85987089D01*
X121524681Y-85995000D01*
X117166576Y-85995000D01*
X119261576Y-83900000D01*
X124661928Y-83900000D01*
X124665000Y-84189250D01*
X124823750Y-84348000D01*
X125873000Y-84348000D01*
X125873000Y-83423750D01*
X125714250Y-83265000D01*
X125300000Y-83261928D01*
X125175518Y-83274188D01*
X125055820Y-83310498D01*
X124945506Y-83369463D01*
X124848815Y-83448815D01*
X124769463Y-83545506D01*
X124710498Y-83655820D01*
X124674188Y-83775518D01*
X124661928Y-83900000D01*
X119261576Y-83900000D01*
X119546567Y-83615010D01*
X123876529Y-83615010D01*
X123919998Y-83619291D01*
X123963467Y-83615010D01*
X123963475Y-83615010D01*
X124093488Y-83602205D01*
X124260311Y-83551599D01*
X124414057Y-83469421D01*
X124548815Y-83358827D01*
X124576532Y-83325054D01*
X125495050Y-82406537D01*
X125528817Y-82378825D01*
X125552977Y-82349386D01*
X125560498Y-82374180D01*
X125619463Y-82484494D01*
X125698815Y-82581185D01*
X125795506Y-82660537D01*
X125905820Y-82719502D01*
X126025518Y-82755812D01*
X126150000Y-82768072D01*
X126714250Y-82765000D01*
X126873000Y-82606250D01*
X126873000Y-81407000D01*
X126853000Y-81407000D01*
X126853000Y-81153000D01*
X126873000Y-81153000D01*
X126873000Y-81133000D01*
X127127000Y-81133000D01*
X127127000Y-81153000D01*
G04 #@! TA.AperFunction,Conductor*
D18*
G36*
X127127000Y-81153000D02*
G01*
X127147000Y-81153000D01*
X127147000Y-81407000D01*
X127127000Y-81407000D01*
X127127000Y-82606250D01*
X127285750Y-82765000D01*
X127765000Y-82767609D01*
X127765000Y-83312889D01*
X127710149Y-83329528D01*
X127556613Y-83411595D01*
X127422038Y-83522038D01*
X127311595Y-83656613D01*
X127297654Y-83682694D01*
X127289502Y-83655820D01*
X127230537Y-83545506D01*
X127151185Y-83448815D01*
X127054494Y-83369463D01*
X126944180Y-83310498D01*
X126824482Y-83274188D01*
X126700000Y-83261928D01*
X126285750Y-83265000D01*
X126127000Y-83423750D01*
X126127000Y-84348000D01*
X126147000Y-84348000D01*
X126147000Y-84602000D01*
X126127000Y-84602000D01*
X126127000Y-84622000D01*
X125873000Y-84622000D01*
X125873000Y-84602000D01*
X124823750Y-84602000D01*
X124665000Y-84760750D01*
X124661928Y-85050000D01*
X124674188Y-85174482D01*
X124710498Y-85294180D01*
X124769463Y-85404494D01*
X124848815Y-85501185D01*
X124928594Y-85566658D01*
X124922038Y-85572038D01*
X124811595Y-85706613D01*
X124729528Y-85860149D01*
X124678992Y-86026745D01*
X124661928Y-86199999D01*
X124661928Y-86383315D01*
X124594055Y-86390000D01*
X122671322Y-86390000D01*
X122517752Y-86263969D01*
X122233715Y-86112148D01*
X121925516Y-86018657D01*
X121685322Y-85995000D01*
X121685319Y-85995000D01*
X121605000Y-85987089D01*
X121524681Y-85995000D01*
X117166576Y-85995000D01*
X119261576Y-83900000D01*
X124661928Y-83900000D01*
X124665000Y-84189250D01*
X124823750Y-84348000D01*
X125873000Y-84348000D01*
X125873000Y-83423750D01*
X125714250Y-83265000D01*
X125300000Y-83261928D01*
X125175518Y-83274188D01*
X125055820Y-83310498D01*
X124945506Y-83369463D01*
X124848815Y-83448815D01*
X124769463Y-83545506D01*
X124710498Y-83655820D01*
X124674188Y-83775518D01*
X124661928Y-83900000D01*
X119261576Y-83900000D01*
X119546567Y-83615010D01*
X123876529Y-83615010D01*
X123919998Y-83619291D01*
X123963467Y-83615010D01*
X123963475Y-83615010D01*
X124093488Y-83602205D01*
X124260311Y-83551599D01*
X124414057Y-83469421D01*
X124548815Y-83358827D01*
X124576532Y-83325054D01*
X125495050Y-82406537D01*
X125528817Y-82378825D01*
X125552977Y-82349386D01*
X125560498Y-82374180D01*
X125619463Y-82484494D01*
X125698815Y-82581185D01*
X125795506Y-82660537D01*
X125905820Y-82719502D01*
X126025518Y-82755812D01*
X126150000Y-82768072D01*
X126714250Y-82765000D01*
X126873000Y-82606250D01*
X126873000Y-81407000D01*
X126853000Y-81407000D01*
X126853000Y-81153000D01*
X126873000Y-81153000D01*
X126873000Y-81133000D01*
X127127000Y-81133000D01*
X127127000Y-81153000D01*
G37*
G04 #@! TD.AperFunction*
M02*
