G04 #@! TF.GenerationSoftware,KiCad,Pcbnew,5.1.12-84ad8e8a86~92~ubuntu20.04.1*
G04 #@! TF.CreationDate,2021-11-18T17:54:01-07:00*
G04 #@! TF.ProjectId,power-monitor,706f7765-722d-46d6-9f6e-69746f722e6b,rev?*
G04 #@! TF.SameCoordinates,Original*
G04 #@! TF.FileFunction,Copper,L2,Bot*
G04 #@! TF.FilePolarity,Positive*
%FSLAX46Y46*%
G04 Gerber Fmt 4.6, Leading zero omitted, Abs format (unit mm)*
G04 Created by KiCad (PCBNEW 5.1.12-84ad8e8a86~92~ubuntu20.04.1) date 2021-11-18 17:54:01*
%MOMM*%
%LPD*%
G01*
G04 APERTURE LIST*
G04 #@! TA.AperFunction,ComponentPad*
%ADD10O,1.700000X1.700000*%
G04 #@! TD*
G04 #@! TA.AperFunction,ComponentPad*
%ADD11R,1.700000X1.700000*%
G04 #@! TD*
G04 #@! TA.AperFunction,ComponentPad*
%ADD12C,2.100000*%
G04 #@! TD*
G04 #@! TA.AperFunction,ViaPad*
%ADD13C,0.800000*%
G04 #@! TD*
G04 #@! TA.AperFunction,Conductor*
%ADD14C,0.200000*%
G04 #@! TD*
G04 #@! TA.AperFunction,Conductor*
%ADD15C,0.254000*%
G04 #@! TD*
G04 #@! TA.AperFunction,Conductor*
%ADD16C,0.100000*%
G04 #@! TD*
G04 APERTURE END LIST*
D10*
X137160000Y-81280000D03*
X134620000Y-81280000D03*
X132080000Y-81280000D03*
X129540000Y-81280000D03*
D11*
X127000000Y-81280000D03*
D12*
X148500000Y-87710000D03*
X148500000Y-92710000D03*
X116500000Y-92630000D03*
X116500000Y-87630000D03*
D13*
X132300000Y-83000000D03*
X137700000Y-84600000D03*
X142412942Y-85286483D03*
X141400000Y-89300000D03*
X137265884Y-83530022D03*
X130800000Y-90800000D03*
X132000000Y-90800000D03*
X130800000Y-94400000D03*
X135200000Y-90800000D03*
X135200000Y-94400000D03*
X136600000Y-94400000D03*
X136600000Y-90800000D03*
X138000000Y-90800000D03*
X138000000Y-94400000D03*
X132000000Y-94400000D03*
X130800000Y-92600000D03*
X139400000Y-90800000D03*
X141000000Y-90600000D03*
X142800000Y-89800000D03*
X144200000Y-89800000D03*
X145600000Y-89800000D03*
X147000000Y-89800000D03*
X139400000Y-94400000D03*
X140800000Y-94400000D03*
X142200000Y-94400000D03*
X143600000Y-94400000D03*
X145000000Y-94400000D03*
X146400000Y-94400000D03*
X151400000Y-94400000D03*
X149800000Y-94400000D03*
X145800000Y-79600000D03*
X144200000Y-84400000D03*
X151200000Y-79600000D03*
X151200000Y-85000000D03*
X147600000Y-84400000D03*
X151000000Y-90000000D03*
X137400000Y-79400000D03*
D14*
X127670000Y-83000000D02*
X132300000Y-83000000D01*
X127000000Y-82330000D02*
X127670000Y-83000000D01*
X127000000Y-81280000D02*
X127000000Y-82330000D01*
X137330023Y-84230023D02*
X137700000Y-84600000D01*
X132300000Y-83000000D02*
X133530023Y-84230023D01*
X133530023Y-84230023D02*
X137330023Y-84230023D01*
X141400000Y-86299425D02*
X141400000Y-89300000D01*
X142412942Y-85286483D02*
X141400000Y-86299425D01*
X137160000Y-83424138D02*
X137265884Y-83530022D01*
X137160000Y-81280000D02*
X137160000Y-83424138D01*
D15*
X147575271Y-79363962D02*
X147263962Y-79675271D01*
X147019369Y-80041331D01*
X146850890Y-80448075D01*
X146765000Y-80879872D01*
X146765000Y-81320128D01*
X146850890Y-81751925D01*
X147019369Y-82158669D01*
X147263962Y-82524729D01*
X147575271Y-82836038D01*
X147941331Y-83080631D01*
X148348075Y-83249110D01*
X148779872Y-83335000D01*
X149220128Y-83335000D01*
X149651925Y-83249110D01*
X150058669Y-83080631D01*
X150424729Y-82836038D01*
X150736038Y-82524729D01*
X150980631Y-82158669D01*
X151149110Y-81751925D01*
X151235000Y-81320128D01*
X151235000Y-80879872D01*
X151149110Y-80448075D01*
X150980631Y-80041331D01*
X150736038Y-79675271D01*
X150424729Y-79363962D01*
X150119478Y-79160000D01*
X151467721Y-79160000D01*
X151565424Y-79169580D01*
X151628356Y-79188580D01*
X151686405Y-79219445D01*
X151737343Y-79260989D01*
X151779248Y-79311644D01*
X151810515Y-79369471D01*
X151829956Y-79432272D01*
X151840000Y-79527835D01*
X151840001Y-94467711D01*
X151830420Y-94565424D01*
X151811420Y-94628357D01*
X151780554Y-94686406D01*
X151739011Y-94737343D01*
X151688356Y-94779248D01*
X151630529Y-94810515D01*
X151567728Y-94829956D01*
X151472165Y-94840000D01*
X130423670Y-94840000D01*
X130417963Y-93881066D01*
X147508539Y-93881066D01*
X147610339Y-94150579D01*
X147908477Y-94296463D01*
X148229346Y-94381380D01*
X148560617Y-94402066D01*
X148889557Y-94357728D01*
X149203527Y-94250069D01*
X149389661Y-94150579D01*
X149491461Y-93881066D01*
X148500000Y-92889605D01*
X147508539Y-93881066D01*
X130417963Y-93881066D01*
X130411353Y-92770617D01*
X146807934Y-92770617D01*
X146852272Y-93099557D01*
X146959931Y-93413527D01*
X147059421Y-93599661D01*
X147328934Y-93701461D01*
X148320395Y-92710000D01*
X148679605Y-92710000D01*
X149671066Y-93701461D01*
X149940579Y-93599661D01*
X150086463Y-93301523D01*
X150171380Y-92980654D01*
X150192066Y-92649383D01*
X150147728Y-92320443D01*
X150040069Y-92006473D01*
X149940579Y-91820339D01*
X149671066Y-91718539D01*
X148679605Y-92710000D01*
X148320395Y-92710000D01*
X147328934Y-91718539D01*
X147059421Y-91820339D01*
X146913537Y-92118477D01*
X146828620Y-92439346D01*
X146807934Y-92770617D01*
X130411353Y-92770617D01*
X130404022Y-91538934D01*
X147508539Y-91538934D01*
X148500000Y-92530395D01*
X149491461Y-91538934D01*
X149389661Y-91269421D01*
X149091523Y-91123537D01*
X148770654Y-91038620D01*
X148439383Y-91017934D01*
X148110443Y-91062272D01*
X147796473Y-91169931D01*
X147610339Y-91269421D01*
X147508539Y-91538934D01*
X130404022Y-91538934D01*
X130390087Y-89198061D01*
X140365000Y-89198061D01*
X140365000Y-89401939D01*
X140404774Y-89601898D01*
X140482795Y-89790256D01*
X140596063Y-89959774D01*
X140740226Y-90103937D01*
X140909744Y-90217205D01*
X141098102Y-90295226D01*
X141298061Y-90335000D01*
X141501939Y-90335000D01*
X141701898Y-90295226D01*
X141890256Y-90217205D01*
X142059774Y-90103937D01*
X142203937Y-89959774D01*
X142317205Y-89790256D01*
X142395226Y-89601898D01*
X142435000Y-89401939D01*
X142435000Y-89198061D01*
X142395226Y-88998102D01*
X142317205Y-88809744D01*
X142203937Y-88640226D01*
X142135000Y-88571289D01*
X142135000Y-87544042D01*
X146815000Y-87544042D01*
X146815000Y-87875958D01*
X146879754Y-88201496D01*
X147006772Y-88508147D01*
X147191175Y-88784125D01*
X147425875Y-89018825D01*
X147701853Y-89203228D01*
X148008504Y-89330246D01*
X148334042Y-89395000D01*
X148665958Y-89395000D01*
X148991496Y-89330246D01*
X149298147Y-89203228D01*
X149574125Y-89018825D01*
X149808825Y-88784125D01*
X149993228Y-88508147D01*
X150120246Y-88201496D01*
X150185000Y-87875958D01*
X150185000Y-87544042D01*
X150120246Y-87218504D01*
X149993228Y-86911853D01*
X149808825Y-86635875D01*
X149574125Y-86401175D01*
X149298147Y-86216772D01*
X148991496Y-86089754D01*
X148665958Y-86025000D01*
X148334042Y-86025000D01*
X148008504Y-86089754D01*
X147701853Y-86216772D01*
X147425875Y-86401175D01*
X147191175Y-86635875D01*
X147006772Y-86911853D01*
X146879754Y-87218504D01*
X146815000Y-87544042D01*
X142135000Y-87544042D01*
X142135000Y-86603871D01*
X142417388Y-86321483D01*
X142514881Y-86321483D01*
X142714840Y-86281709D01*
X142903198Y-86203688D01*
X143072716Y-86090420D01*
X143216879Y-85946257D01*
X143330147Y-85776739D01*
X143408168Y-85588381D01*
X143447942Y-85388422D01*
X143447942Y-85184544D01*
X143408168Y-84984585D01*
X143330147Y-84796227D01*
X143216879Y-84626709D01*
X143072716Y-84482546D01*
X142903198Y-84369278D01*
X142714840Y-84291257D01*
X142514881Y-84251483D01*
X142311003Y-84251483D01*
X142111044Y-84291257D01*
X141922686Y-84369278D01*
X141753168Y-84482546D01*
X141609005Y-84626709D01*
X141495737Y-84796227D01*
X141417716Y-84984585D01*
X141377942Y-85184544D01*
X141377942Y-85282037D01*
X140905808Y-85754171D01*
X140877762Y-85777188D01*
X140785913Y-85889106D01*
X140717663Y-86016793D01*
X140695531Y-86089754D01*
X140675635Y-86155340D01*
X140661444Y-86299425D01*
X140665000Y-86335530D01*
X140665001Y-88571288D01*
X140596063Y-88640226D01*
X140482795Y-88809744D01*
X140404774Y-88998102D01*
X140365000Y-89198061D01*
X130390087Y-89198061D01*
X130357568Y-83735000D01*
X131571289Y-83735000D01*
X131640226Y-83803937D01*
X131809744Y-83917205D01*
X131998102Y-83995226D01*
X132198061Y-84035000D01*
X132295554Y-84035000D01*
X132984769Y-84724216D01*
X133007785Y-84752261D01*
X133119703Y-84844110D01*
X133247390Y-84912360D01*
X133385938Y-84954388D01*
X133493918Y-84965023D01*
X133493927Y-84965023D01*
X133530022Y-84968578D01*
X133566117Y-84965023D01*
X136730921Y-84965023D01*
X136782795Y-85090256D01*
X136896063Y-85259774D01*
X137040226Y-85403937D01*
X137209744Y-85517205D01*
X137398102Y-85595226D01*
X137598061Y-85635000D01*
X137801939Y-85635000D01*
X138001898Y-85595226D01*
X138190256Y-85517205D01*
X138359774Y-85403937D01*
X138503937Y-85259774D01*
X138617205Y-85090256D01*
X138695226Y-84901898D01*
X138735000Y-84701939D01*
X138735000Y-84498061D01*
X138695226Y-84298102D01*
X138617205Y-84109744D01*
X138503937Y-83940226D01*
X138359774Y-83796063D01*
X138278980Y-83742079D01*
X138300884Y-83631961D01*
X138300884Y-83428083D01*
X138261110Y-83228124D01*
X138183089Y-83039766D01*
X138069821Y-82870248D01*
X137925658Y-82726085D01*
X137895000Y-82705600D01*
X137895000Y-82574883D01*
X138106632Y-82433475D01*
X138313475Y-82226632D01*
X138475990Y-81983411D01*
X138587932Y-81713158D01*
X138645000Y-81426260D01*
X138645000Y-81133740D01*
X138587932Y-80846842D01*
X138475990Y-80576589D01*
X138313475Y-80333368D01*
X138106632Y-80126525D01*
X137863411Y-79964010D01*
X137593158Y-79852068D01*
X137306260Y-79795000D01*
X137013740Y-79795000D01*
X136726842Y-79852068D01*
X136456589Y-79964010D01*
X136213368Y-80126525D01*
X136006525Y-80333368D01*
X135890000Y-80507760D01*
X135773475Y-80333368D01*
X135566632Y-80126525D01*
X135323411Y-79964010D01*
X135053158Y-79852068D01*
X134766260Y-79795000D01*
X134473740Y-79795000D01*
X134186842Y-79852068D01*
X133916589Y-79964010D01*
X133673368Y-80126525D01*
X133466525Y-80333368D01*
X133350000Y-80507760D01*
X133233475Y-80333368D01*
X133026632Y-80126525D01*
X132783411Y-79964010D01*
X132513158Y-79852068D01*
X132226260Y-79795000D01*
X131933740Y-79795000D01*
X131646842Y-79852068D01*
X131376589Y-79964010D01*
X131133368Y-80126525D01*
X130926525Y-80333368D01*
X130810000Y-80507760D01*
X130693475Y-80333368D01*
X130486632Y-80126525D01*
X130335487Y-80025533D01*
X130330335Y-79160000D01*
X147880522Y-79160000D01*
X147575271Y-79363962D01*
G04 #@! TA.AperFunction,Conductor*
D16*
G36*
X147575271Y-79363962D02*
G01*
X147263962Y-79675271D01*
X147019369Y-80041331D01*
X146850890Y-80448075D01*
X146765000Y-80879872D01*
X146765000Y-81320128D01*
X146850890Y-81751925D01*
X147019369Y-82158669D01*
X147263962Y-82524729D01*
X147575271Y-82836038D01*
X147941331Y-83080631D01*
X148348075Y-83249110D01*
X148779872Y-83335000D01*
X149220128Y-83335000D01*
X149651925Y-83249110D01*
X150058669Y-83080631D01*
X150424729Y-82836038D01*
X150736038Y-82524729D01*
X150980631Y-82158669D01*
X151149110Y-81751925D01*
X151235000Y-81320128D01*
X151235000Y-80879872D01*
X151149110Y-80448075D01*
X150980631Y-80041331D01*
X150736038Y-79675271D01*
X150424729Y-79363962D01*
X150119478Y-79160000D01*
X151467721Y-79160000D01*
X151565424Y-79169580D01*
X151628356Y-79188580D01*
X151686405Y-79219445D01*
X151737343Y-79260989D01*
X151779248Y-79311644D01*
X151810515Y-79369471D01*
X151829956Y-79432272D01*
X151840000Y-79527835D01*
X151840001Y-94467711D01*
X151830420Y-94565424D01*
X151811420Y-94628357D01*
X151780554Y-94686406D01*
X151739011Y-94737343D01*
X151688356Y-94779248D01*
X151630529Y-94810515D01*
X151567728Y-94829956D01*
X151472165Y-94840000D01*
X130423670Y-94840000D01*
X130417963Y-93881066D01*
X147508539Y-93881066D01*
X147610339Y-94150579D01*
X147908477Y-94296463D01*
X148229346Y-94381380D01*
X148560617Y-94402066D01*
X148889557Y-94357728D01*
X149203527Y-94250069D01*
X149389661Y-94150579D01*
X149491461Y-93881066D01*
X148500000Y-92889605D01*
X147508539Y-93881066D01*
X130417963Y-93881066D01*
X130411353Y-92770617D01*
X146807934Y-92770617D01*
X146852272Y-93099557D01*
X146959931Y-93413527D01*
X147059421Y-93599661D01*
X147328934Y-93701461D01*
X148320395Y-92710000D01*
X148679605Y-92710000D01*
X149671066Y-93701461D01*
X149940579Y-93599661D01*
X150086463Y-93301523D01*
X150171380Y-92980654D01*
X150192066Y-92649383D01*
X150147728Y-92320443D01*
X150040069Y-92006473D01*
X149940579Y-91820339D01*
X149671066Y-91718539D01*
X148679605Y-92710000D01*
X148320395Y-92710000D01*
X147328934Y-91718539D01*
X147059421Y-91820339D01*
X146913537Y-92118477D01*
X146828620Y-92439346D01*
X146807934Y-92770617D01*
X130411353Y-92770617D01*
X130404022Y-91538934D01*
X147508539Y-91538934D01*
X148500000Y-92530395D01*
X149491461Y-91538934D01*
X149389661Y-91269421D01*
X149091523Y-91123537D01*
X148770654Y-91038620D01*
X148439383Y-91017934D01*
X148110443Y-91062272D01*
X147796473Y-91169931D01*
X147610339Y-91269421D01*
X147508539Y-91538934D01*
X130404022Y-91538934D01*
X130390087Y-89198061D01*
X140365000Y-89198061D01*
X140365000Y-89401939D01*
X140404774Y-89601898D01*
X140482795Y-89790256D01*
X140596063Y-89959774D01*
X140740226Y-90103937D01*
X140909744Y-90217205D01*
X141098102Y-90295226D01*
X141298061Y-90335000D01*
X141501939Y-90335000D01*
X141701898Y-90295226D01*
X141890256Y-90217205D01*
X142059774Y-90103937D01*
X142203937Y-89959774D01*
X142317205Y-89790256D01*
X142395226Y-89601898D01*
X142435000Y-89401939D01*
X142435000Y-89198061D01*
X142395226Y-88998102D01*
X142317205Y-88809744D01*
X142203937Y-88640226D01*
X142135000Y-88571289D01*
X142135000Y-87544042D01*
X146815000Y-87544042D01*
X146815000Y-87875958D01*
X146879754Y-88201496D01*
X147006772Y-88508147D01*
X147191175Y-88784125D01*
X147425875Y-89018825D01*
X147701853Y-89203228D01*
X148008504Y-89330246D01*
X148334042Y-89395000D01*
X148665958Y-89395000D01*
X148991496Y-89330246D01*
X149298147Y-89203228D01*
X149574125Y-89018825D01*
X149808825Y-88784125D01*
X149993228Y-88508147D01*
X150120246Y-88201496D01*
X150185000Y-87875958D01*
X150185000Y-87544042D01*
X150120246Y-87218504D01*
X149993228Y-86911853D01*
X149808825Y-86635875D01*
X149574125Y-86401175D01*
X149298147Y-86216772D01*
X148991496Y-86089754D01*
X148665958Y-86025000D01*
X148334042Y-86025000D01*
X148008504Y-86089754D01*
X147701853Y-86216772D01*
X147425875Y-86401175D01*
X147191175Y-86635875D01*
X147006772Y-86911853D01*
X146879754Y-87218504D01*
X146815000Y-87544042D01*
X142135000Y-87544042D01*
X142135000Y-86603871D01*
X142417388Y-86321483D01*
X142514881Y-86321483D01*
X142714840Y-86281709D01*
X142903198Y-86203688D01*
X143072716Y-86090420D01*
X143216879Y-85946257D01*
X143330147Y-85776739D01*
X143408168Y-85588381D01*
X143447942Y-85388422D01*
X143447942Y-85184544D01*
X143408168Y-84984585D01*
X143330147Y-84796227D01*
X143216879Y-84626709D01*
X143072716Y-84482546D01*
X142903198Y-84369278D01*
X142714840Y-84291257D01*
X142514881Y-84251483D01*
X142311003Y-84251483D01*
X142111044Y-84291257D01*
X141922686Y-84369278D01*
X141753168Y-84482546D01*
X141609005Y-84626709D01*
X141495737Y-84796227D01*
X141417716Y-84984585D01*
X141377942Y-85184544D01*
X141377942Y-85282037D01*
X140905808Y-85754171D01*
X140877762Y-85777188D01*
X140785913Y-85889106D01*
X140717663Y-86016793D01*
X140695531Y-86089754D01*
X140675635Y-86155340D01*
X140661444Y-86299425D01*
X140665000Y-86335530D01*
X140665001Y-88571288D01*
X140596063Y-88640226D01*
X140482795Y-88809744D01*
X140404774Y-88998102D01*
X140365000Y-89198061D01*
X130390087Y-89198061D01*
X130357568Y-83735000D01*
X131571289Y-83735000D01*
X131640226Y-83803937D01*
X131809744Y-83917205D01*
X131998102Y-83995226D01*
X132198061Y-84035000D01*
X132295554Y-84035000D01*
X132984769Y-84724216D01*
X133007785Y-84752261D01*
X133119703Y-84844110D01*
X133247390Y-84912360D01*
X133385938Y-84954388D01*
X133493918Y-84965023D01*
X133493927Y-84965023D01*
X133530022Y-84968578D01*
X133566117Y-84965023D01*
X136730921Y-84965023D01*
X136782795Y-85090256D01*
X136896063Y-85259774D01*
X137040226Y-85403937D01*
X137209744Y-85517205D01*
X137398102Y-85595226D01*
X137598061Y-85635000D01*
X137801939Y-85635000D01*
X138001898Y-85595226D01*
X138190256Y-85517205D01*
X138359774Y-85403937D01*
X138503937Y-85259774D01*
X138617205Y-85090256D01*
X138695226Y-84901898D01*
X138735000Y-84701939D01*
X138735000Y-84498061D01*
X138695226Y-84298102D01*
X138617205Y-84109744D01*
X138503937Y-83940226D01*
X138359774Y-83796063D01*
X138278980Y-83742079D01*
X138300884Y-83631961D01*
X138300884Y-83428083D01*
X138261110Y-83228124D01*
X138183089Y-83039766D01*
X138069821Y-82870248D01*
X137925658Y-82726085D01*
X137895000Y-82705600D01*
X137895000Y-82574883D01*
X138106632Y-82433475D01*
X138313475Y-82226632D01*
X138475990Y-81983411D01*
X138587932Y-81713158D01*
X138645000Y-81426260D01*
X138645000Y-81133740D01*
X138587932Y-80846842D01*
X138475990Y-80576589D01*
X138313475Y-80333368D01*
X138106632Y-80126525D01*
X137863411Y-79964010D01*
X137593158Y-79852068D01*
X137306260Y-79795000D01*
X137013740Y-79795000D01*
X136726842Y-79852068D01*
X136456589Y-79964010D01*
X136213368Y-80126525D01*
X136006525Y-80333368D01*
X135890000Y-80507760D01*
X135773475Y-80333368D01*
X135566632Y-80126525D01*
X135323411Y-79964010D01*
X135053158Y-79852068D01*
X134766260Y-79795000D01*
X134473740Y-79795000D01*
X134186842Y-79852068D01*
X133916589Y-79964010D01*
X133673368Y-80126525D01*
X133466525Y-80333368D01*
X133350000Y-80507760D01*
X133233475Y-80333368D01*
X133026632Y-80126525D01*
X132783411Y-79964010D01*
X132513158Y-79852068D01*
X132226260Y-79795000D01*
X131933740Y-79795000D01*
X131646842Y-79852068D01*
X131376589Y-79964010D01*
X131133368Y-80126525D01*
X130926525Y-80333368D01*
X130810000Y-80507760D01*
X130693475Y-80333368D01*
X130486632Y-80126525D01*
X130335487Y-80025533D01*
X130330335Y-79160000D01*
X147880522Y-79160000D01*
X147575271Y-79363962D01*
G37*
G04 #@! TD.AperFunction*
D15*
X114575271Y-79363962D02*
X114263962Y-79675271D01*
X114019369Y-80041331D01*
X113850890Y-80448075D01*
X113765000Y-80879872D01*
X113765000Y-81320128D01*
X113850890Y-81751925D01*
X114019369Y-82158669D01*
X114263962Y-82524729D01*
X114575271Y-82836038D01*
X114941331Y-83080631D01*
X115348075Y-83249110D01*
X115779872Y-83335000D01*
X116220128Y-83335000D01*
X116651925Y-83249110D01*
X117058669Y-83080631D01*
X117424729Y-82836038D01*
X117736038Y-82524729D01*
X117980631Y-82158669D01*
X117992506Y-82130000D01*
X125511928Y-82130000D01*
X125524188Y-82254482D01*
X125560498Y-82374180D01*
X125619463Y-82484494D01*
X125698815Y-82581185D01*
X125795506Y-82660537D01*
X125905820Y-82719502D01*
X126025518Y-82755812D01*
X126150000Y-82768072D01*
X126714250Y-82765000D01*
X126873000Y-82606250D01*
X126873000Y-81407000D01*
X125673750Y-81407000D01*
X125515000Y-81565750D01*
X125511928Y-82130000D01*
X117992506Y-82130000D01*
X118149110Y-81751925D01*
X118235000Y-81320128D01*
X118235000Y-80879872D01*
X118149110Y-80448075D01*
X118141624Y-80430000D01*
X125511928Y-80430000D01*
X125515000Y-80994250D01*
X125673750Y-81153000D01*
X126873000Y-81153000D01*
X126873000Y-79953750D01*
X126714250Y-79795000D01*
X126150000Y-79791928D01*
X126025518Y-79804188D01*
X125905820Y-79840498D01*
X125795506Y-79899463D01*
X125698815Y-79978815D01*
X125619463Y-80075506D01*
X125560498Y-80185820D01*
X125524188Y-80305518D01*
X125511928Y-80430000D01*
X118141624Y-80430000D01*
X117980631Y-80041331D01*
X117736038Y-79675271D01*
X117424729Y-79363962D01*
X117119478Y-79160000D01*
X129380802Y-79160000D01*
X129388329Y-79796076D01*
X129106842Y-79852068D01*
X128836589Y-79964010D01*
X128593368Y-80126525D01*
X128461513Y-80258380D01*
X128439502Y-80185820D01*
X128380537Y-80075506D01*
X128301185Y-79978815D01*
X128204494Y-79899463D01*
X128094180Y-79840498D01*
X127974482Y-79804188D01*
X127850000Y-79791928D01*
X127285750Y-79795000D01*
X127127000Y-79953750D01*
X127127000Y-81153000D01*
X127147000Y-81153000D01*
X127147000Y-81407000D01*
X127127000Y-81407000D01*
X127127000Y-82606250D01*
X127285750Y-82765000D01*
X127850000Y-82768072D01*
X127974482Y-82755812D01*
X128094180Y-82719502D01*
X128204494Y-82660537D01*
X128301185Y-82581185D01*
X128380537Y-82484494D01*
X128439502Y-82374180D01*
X128461513Y-82301620D01*
X128593368Y-82433475D01*
X128836589Y-82595990D01*
X129106842Y-82707932D01*
X129393740Y-82765000D01*
X129423464Y-82765000D01*
X129566364Y-94840000D01*
X113532279Y-94840000D01*
X113434576Y-94830420D01*
X113371643Y-94811420D01*
X113313594Y-94780554D01*
X113262657Y-94739011D01*
X113220752Y-94688356D01*
X113189485Y-94630529D01*
X113170044Y-94567728D01*
X113160000Y-94472165D01*
X113160000Y-93801066D01*
X115508539Y-93801066D01*
X115610339Y-94070579D01*
X115908477Y-94216463D01*
X116229346Y-94301380D01*
X116560617Y-94322066D01*
X116889557Y-94277728D01*
X117203527Y-94170069D01*
X117389661Y-94070579D01*
X117491461Y-93801066D01*
X116500000Y-92809605D01*
X115508539Y-93801066D01*
X113160000Y-93801066D01*
X113160000Y-92690617D01*
X114807934Y-92690617D01*
X114852272Y-93019557D01*
X114959931Y-93333527D01*
X115059421Y-93519661D01*
X115328934Y-93621461D01*
X116320395Y-92630000D01*
X116679605Y-92630000D01*
X117671066Y-93621461D01*
X117940579Y-93519661D01*
X118086463Y-93221523D01*
X118171380Y-92900654D01*
X118192066Y-92569383D01*
X118147728Y-92240443D01*
X118040069Y-91926473D01*
X117940579Y-91740339D01*
X117671066Y-91638539D01*
X116679605Y-92630000D01*
X116320395Y-92630000D01*
X115328934Y-91638539D01*
X115059421Y-91740339D01*
X114913537Y-92038477D01*
X114828620Y-92359346D01*
X114807934Y-92690617D01*
X113160000Y-92690617D01*
X113160000Y-91458934D01*
X115508539Y-91458934D01*
X116500000Y-92450395D01*
X117491461Y-91458934D01*
X117389661Y-91189421D01*
X117091523Y-91043537D01*
X116770654Y-90958620D01*
X116439383Y-90937934D01*
X116110443Y-90982272D01*
X115796473Y-91089931D01*
X115610339Y-91189421D01*
X115508539Y-91458934D01*
X113160000Y-91458934D01*
X113160000Y-87464042D01*
X114815000Y-87464042D01*
X114815000Y-87795958D01*
X114879754Y-88121496D01*
X115006772Y-88428147D01*
X115191175Y-88704125D01*
X115425875Y-88938825D01*
X115701853Y-89123228D01*
X116008504Y-89250246D01*
X116334042Y-89315000D01*
X116665958Y-89315000D01*
X116991496Y-89250246D01*
X117298147Y-89123228D01*
X117574125Y-88938825D01*
X117808825Y-88704125D01*
X117993228Y-88428147D01*
X118120246Y-88121496D01*
X118185000Y-87795958D01*
X118185000Y-87464042D01*
X118120246Y-87138504D01*
X117993228Y-86831853D01*
X117808825Y-86555875D01*
X117574125Y-86321175D01*
X117298147Y-86136772D01*
X116991496Y-86009754D01*
X116665958Y-85945000D01*
X116334042Y-85945000D01*
X116008504Y-86009754D01*
X115701853Y-86136772D01*
X115425875Y-86321175D01*
X115191175Y-86555875D01*
X115006772Y-86831853D01*
X114879754Y-87138504D01*
X114815000Y-87464042D01*
X113160000Y-87464042D01*
X113160000Y-79532279D01*
X113169580Y-79434576D01*
X113188580Y-79371644D01*
X113219445Y-79313595D01*
X113260989Y-79262657D01*
X113311644Y-79220752D01*
X113369471Y-79189485D01*
X113432272Y-79170044D01*
X113527835Y-79160000D01*
X114880522Y-79160000D01*
X114575271Y-79363962D01*
G04 #@! TA.AperFunction,Conductor*
D16*
G36*
X114575271Y-79363962D02*
G01*
X114263962Y-79675271D01*
X114019369Y-80041331D01*
X113850890Y-80448075D01*
X113765000Y-80879872D01*
X113765000Y-81320128D01*
X113850890Y-81751925D01*
X114019369Y-82158669D01*
X114263962Y-82524729D01*
X114575271Y-82836038D01*
X114941331Y-83080631D01*
X115348075Y-83249110D01*
X115779872Y-83335000D01*
X116220128Y-83335000D01*
X116651925Y-83249110D01*
X117058669Y-83080631D01*
X117424729Y-82836038D01*
X117736038Y-82524729D01*
X117980631Y-82158669D01*
X117992506Y-82130000D01*
X125511928Y-82130000D01*
X125524188Y-82254482D01*
X125560498Y-82374180D01*
X125619463Y-82484494D01*
X125698815Y-82581185D01*
X125795506Y-82660537D01*
X125905820Y-82719502D01*
X126025518Y-82755812D01*
X126150000Y-82768072D01*
X126714250Y-82765000D01*
X126873000Y-82606250D01*
X126873000Y-81407000D01*
X125673750Y-81407000D01*
X125515000Y-81565750D01*
X125511928Y-82130000D01*
X117992506Y-82130000D01*
X118149110Y-81751925D01*
X118235000Y-81320128D01*
X118235000Y-80879872D01*
X118149110Y-80448075D01*
X118141624Y-80430000D01*
X125511928Y-80430000D01*
X125515000Y-80994250D01*
X125673750Y-81153000D01*
X126873000Y-81153000D01*
X126873000Y-79953750D01*
X126714250Y-79795000D01*
X126150000Y-79791928D01*
X126025518Y-79804188D01*
X125905820Y-79840498D01*
X125795506Y-79899463D01*
X125698815Y-79978815D01*
X125619463Y-80075506D01*
X125560498Y-80185820D01*
X125524188Y-80305518D01*
X125511928Y-80430000D01*
X118141624Y-80430000D01*
X117980631Y-80041331D01*
X117736038Y-79675271D01*
X117424729Y-79363962D01*
X117119478Y-79160000D01*
X129380802Y-79160000D01*
X129388329Y-79796076D01*
X129106842Y-79852068D01*
X128836589Y-79964010D01*
X128593368Y-80126525D01*
X128461513Y-80258380D01*
X128439502Y-80185820D01*
X128380537Y-80075506D01*
X128301185Y-79978815D01*
X128204494Y-79899463D01*
X128094180Y-79840498D01*
X127974482Y-79804188D01*
X127850000Y-79791928D01*
X127285750Y-79795000D01*
X127127000Y-79953750D01*
X127127000Y-81153000D01*
X127147000Y-81153000D01*
X127147000Y-81407000D01*
X127127000Y-81407000D01*
X127127000Y-82606250D01*
X127285750Y-82765000D01*
X127850000Y-82768072D01*
X127974482Y-82755812D01*
X128094180Y-82719502D01*
X128204494Y-82660537D01*
X128301185Y-82581185D01*
X128380537Y-82484494D01*
X128439502Y-82374180D01*
X128461513Y-82301620D01*
X128593368Y-82433475D01*
X128836589Y-82595990D01*
X129106842Y-82707932D01*
X129393740Y-82765000D01*
X129423464Y-82765000D01*
X129566364Y-94840000D01*
X113532279Y-94840000D01*
X113434576Y-94830420D01*
X113371643Y-94811420D01*
X113313594Y-94780554D01*
X113262657Y-94739011D01*
X113220752Y-94688356D01*
X113189485Y-94630529D01*
X113170044Y-94567728D01*
X113160000Y-94472165D01*
X113160000Y-93801066D01*
X115508539Y-93801066D01*
X115610339Y-94070579D01*
X115908477Y-94216463D01*
X116229346Y-94301380D01*
X116560617Y-94322066D01*
X116889557Y-94277728D01*
X117203527Y-94170069D01*
X117389661Y-94070579D01*
X117491461Y-93801066D01*
X116500000Y-92809605D01*
X115508539Y-93801066D01*
X113160000Y-93801066D01*
X113160000Y-92690617D01*
X114807934Y-92690617D01*
X114852272Y-93019557D01*
X114959931Y-93333527D01*
X115059421Y-93519661D01*
X115328934Y-93621461D01*
X116320395Y-92630000D01*
X116679605Y-92630000D01*
X117671066Y-93621461D01*
X117940579Y-93519661D01*
X118086463Y-93221523D01*
X118171380Y-92900654D01*
X118192066Y-92569383D01*
X118147728Y-92240443D01*
X118040069Y-91926473D01*
X117940579Y-91740339D01*
X117671066Y-91638539D01*
X116679605Y-92630000D01*
X116320395Y-92630000D01*
X115328934Y-91638539D01*
X115059421Y-91740339D01*
X114913537Y-92038477D01*
X114828620Y-92359346D01*
X114807934Y-92690617D01*
X113160000Y-92690617D01*
X113160000Y-91458934D01*
X115508539Y-91458934D01*
X116500000Y-92450395D01*
X117491461Y-91458934D01*
X117389661Y-91189421D01*
X117091523Y-91043537D01*
X116770654Y-90958620D01*
X116439383Y-90937934D01*
X116110443Y-90982272D01*
X115796473Y-91089931D01*
X115610339Y-91189421D01*
X115508539Y-91458934D01*
X113160000Y-91458934D01*
X113160000Y-87464042D01*
X114815000Y-87464042D01*
X114815000Y-87795958D01*
X114879754Y-88121496D01*
X115006772Y-88428147D01*
X115191175Y-88704125D01*
X115425875Y-88938825D01*
X115701853Y-89123228D01*
X116008504Y-89250246D01*
X116334042Y-89315000D01*
X116665958Y-89315000D01*
X116991496Y-89250246D01*
X117298147Y-89123228D01*
X117574125Y-88938825D01*
X117808825Y-88704125D01*
X117993228Y-88428147D01*
X118120246Y-88121496D01*
X118185000Y-87795958D01*
X118185000Y-87464042D01*
X118120246Y-87138504D01*
X117993228Y-86831853D01*
X117808825Y-86555875D01*
X117574125Y-86321175D01*
X117298147Y-86136772D01*
X116991496Y-86009754D01*
X116665958Y-85945000D01*
X116334042Y-85945000D01*
X116008504Y-86009754D01*
X115701853Y-86136772D01*
X115425875Y-86321175D01*
X115191175Y-86555875D01*
X115006772Y-86831853D01*
X114879754Y-87138504D01*
X114815000Y-87464042D01*
X113160000Y-87464042D01*
X113160000Y-79532279D01*
X113169580Y-79434576D01*
X113188580Y-79371644D01*
X113219445Y-79313595D01*
X113260989Y-79262657D01*
X113311644Y-79220752D01*
X113369471Y-79189485D01*
X113432272Y-79170044D01*
X113527835Y-79160000D01*
X114880522Y-79160000D01*
X114575271Y-79363962D01*
G37*
G04 #@! TD.AperFunction*
M02*
