G04 #@! TF.GenerationSoftware,KiCad,Pcbnew,5.1.5+dfsg1-2build2*
G04 #@! TF.CreationDate,2021-10-23T10:29:23-06:00*
G04 #@! TF.ProjectId,power-monitor,706f7765-722d-46d6-9f6e-69746f722e6b,rev?*
G04 #@! TF.SameCoordinates,Original*
G04 #@! TF.FileFunction,Legend,Bot*
G04 #@! TF.FilePolarity,Positive*
%FSLAX46Y46*%
G04 Gerber Fmt 4.6, Leading zero omitted, Abs format (unit mm)*
G04 Created by KiCad (PCBNEW 5.1.5+dfsg1-2build2) date 2021-10-23 10:29:23*
%MOMM*%
%LPD*%
G04 APERTURE LIST*
%ADD10C,0.150000*%
%ADD11C,0.200000*%
G04 APERTURE END LIST*
D10*
X141557142Y-94185714D02*
X141557142Y-95185714D01*
X141557142Y-94233333D02*
X141461904Y-94185714D01*
X141271428Y-94185714D01*
X141176190Y-94233333D01*
X141128571Y-94280952D01*
X141080952Y-94376190D01*
X141080952Y-94661904D01*
X141128571Y-94757142D01*
X141176190Y-94804761D01*
X141271428Y-94852380D01*
X141461904Y-94852380D01*
X141557142Y-94804761D01*
X140509523Y-94852380D02*
X140604761Y-94804761D01*
X140652380Y-94757142D01*
X140700000Y-94661904D01*
X140700000Y-94376190D01*
X140652380Y-94280952D01*
X140604761Y-94233333D01*
X140509523Y-94185714D01*
X140366666Y-94185714D01*
X140271428Y-94233333D01*
X140223809Y-94280952D01*
X140176190Y-94376190D01*
X140176190Y-94661904D01*
X140223809Y-94757142D01*
X140271428Y-94804761D01*
X140366666Y-94852380D01*
X140509523Y-94852380D01*
X139842857Y-94185714D02*
X139652380Y-94852380D01*
X139461904Y-94376190D01*
X139271428Y-94852380D01*
X139080952Y-94185714D01*
X138319047Y-94804761D02*
X138414285Y-94852380D01*
X138604761Y-94852380D01*
X138700000Y-94804761D01*
X138747619Y-94709523D01*
X138747619Y-94328571D01*
X138700000Y-94233333D01*
X138604761Y-94185714D01*
X138414285Y-94185714D01*
X138319047Y-94233333D01*
X138271428Y-94328571D01*
X138271428Y-94423809D01*
X138747619Y-94519047D01*
X137842857Y-94852380D02*
X137842857Y-94185714D01*
X137842857Y-94376190D02*
X137795238Y-94280952D01*
X137747619Y-94233333D01*
X137652380Y-94185714D01*
X137557142Y-94185714D01*
X137223809Y-94471428D02*
X136461904Y-94471428D01*
X135985714Y-94852380D02*
X135985714Y-94185714D01*
X135985714Y-94280952D02*
X135938095Y-94233333D01*
X135842857Y-94185714D01*
X135700000Y-94185714D01*
X135604761Y-94233333D01*
X135557142Y-94328571D01*
X135557142Y-94852380D01*
X135557142Y-94328571D02*
X135509523Y-94233333D01*
X135414285Y-94185714D01*
X135271428Y-94185714D01*
X135176190Y-94233333D01*
X135128571Y-94328571D01*
X135128571Y-94852380D01*
X134509523Y-94852380D02*
X134604761Y-94804761D01*
X134652380Y-94757142D01*
X134700000Y-94661904D01*
X134700000Y-94376190D01*
X134652380Y-94280952D01*
X134604761Y-94233333D01*
X134509523Y-94185714D01*
X134366666Y-94185714D01*
X134271428Y-94233333D01*
X134223809Y-94280952D01*
X134176190Y-94376190D01*
X134176190Y-94661904D01*
X134223809Y-94757142D01*
X134271428Y-94804761D01*
X134366666Y-94852380D01*
X134509523Y-94852380D01*
X133747619Y-94185714D02*
X133747619Y-94852380D01*
X133747619Y-94280952D02*
X133700000Y-94233333D01*
X133604761Y-94185714D01*
X133461904Y-94185714D01*
X133366666Y-94233333D01*
X133319047Y-94328571D01*
X133319047Y-94852380D01*
X132842857Y-94852380D02*
X132842857Y-94185714D01*
X132842857Y-93852380D02*
X132890476Y-93900000D01*
X132842857Y-93947619D01*
X132795238Y-93900000D01*
X132842857Y-93852380D01*
X132842857Y-93947619D01*
X132509523Y-94185714D02*
X132128571Y-94185714D01*
X132366666Y-93852380D02*
X132366666Y-94709523D01*
X132319047Y-94804761D01*
X132223809Y-94852380D01*
X132128571Y-94852380D01*
X131652380Y-94852380D02*
X131747619Y-94804761D01*
X131795238Y-94757142D01*
X131842857Y-94661904D01*
X131842857Y-94376190D01*
X131795238Y-94280952D01*
X131747619Y-94233333D01*
X131652380Y-94185714D01*
X131509523Y-94185714D01*
X131414285Y-94233333D01*
X131366666Y-94280952D01*
X131319047Y-94376190D01*
X131319047Y-94661904D01*
X131366666Y-94757142D01*
X131414285Y-94804761D01*
X131509523Y-94852380D01*
X131652380Y-94852380D01*
X130890476Y-94852380D02*
X130890476Y-94185714D01*
X130890476Y-94376190D02*
X130842857Y-94280952D01*
X130795238Y-94233333D01*
X130700000Y-94185714D01*
X130604761Y-94185714D01*
X129604761Y-94185714D02*
X129366666Y-94852380D01*
X129128571Y-94185714D01*
X128223809Y-94852380D02*
X128795238Y-94852380D01*
X128509523Y-94852380D02*
X128509523Y-93852380D01*
X128604761Y-93995238D01*
X128700000Y-94090476D01*
X128795238Y-94138095D01*
X127795238Y-94757142D02*
X127747619Y-94804761D01*
X127795238Y-94852380D01*
X127842857Y-94804761D01*
X127795238Y-94757142D01*
X127795238Y-94852380D01*
X127128571Y-93852380D02*
X127033333Y-93852380D01*
X126938095Y-93900000D01*
X126890476Y-93947619D01*
X126842857Y-94042857D01*
X126795238Y-94233333D01*
X126795238Y-94471428D01*
X126842857Y-94661904D01*
X126890476Y-94757142D01*
X126938095Y-94804761D01*
X127033333Y-94852380D01*
X127128571Y-94852380D01*
X127223809Y-94804761D01*
X127271428Y-94757142D01*
X127319047Y-94661904D01*
X127366666Y-94471428D01*
X127366666Y-94233333D01*
X127319047Y-94042857D01*
X127271428Y-93947619D01*
X127223809Y-93900000D01*
X127128571Y-93852380D01*
D11*
X144000000Y-89504761D02*
X143619047Y-89504761D01*
X143428571Y-89600000D01*
X143238095Y-89790476D01*
X143142857Y-90171428D01*
X143142857Y-90838095D01*
X143238095Y-91219047D01*
X143428571Y-91409523D01*
X143619047Y-91504761D01*
X144000000Y-91504761D01*
X144190476Y-91409523D01*
X144380952Y-91219047D01*
X144476190Y-90838095D01*
X144476190Y-90171428D01*
X144380952Y-89790476D01*
X144190476Y-89600000D01*
X144000000Y-89504761D01*
X142285714Y-89504761D02*
X142285714Y-91123809D01*
X142190476Y-91314285D01*
X142095238Y-91409523D01*
X141904761Y-91504761D01*
X141523809Y-91504761D01*
X141333333Y-91409523D01*
X141238095Y-91314285D01*
X141142857Y-91123809D01*
X141142857Y-89504761D01*
X140476190Y-89504761D02*
X139333333Y-89504761D01*
X139904761Y-91504761D02*
X139904761Y-89504761D01*
X122847619Y-91504761D02*
X122847619Y-89504761D01*
X121895238Y-91504761D02*
X121895238Y-89504761D01*
X120752380Y-91504761D01*
X120752380Y-89504761D01*
X145038095Y-87742857D02*
X146561904Y-87742857D01*
X145800000Y-88504761D02*
X145800000Y-86980952D01*
X145038095Y-92742857D02*
X146561904Y-92742857D01*
X118438095Y-92742857D02*
X119961904Y-92742857D01*
X118438095Y-87742857D02*
X119961904Y-87742857D01*
X119200000Y-88504761D02*
X119200000Y-86980952D01*
D10*
X136652380Y-83266666D02*
X137652380Y-83600000D01*
X136652380Y-83933333D01*
X137557142Y-84838095D02*
X137604761Y-84790476D01*
X137652380Y-84647619D01*
X137652380Y-84552380D01*
X137604761Y-84409523D01*
X137509523Y-84314285D01*
X137414285Y-84266666D01*
X137223809Y-84219047D01*
X137080952Y-84219047D01*
X136890476Y-84266666D01*
X136795238Y-84314285D01*
X136700000Y-84409523D01*
X136652380Y-84552380D01*
X136652380Y-84647619D01*
X136700000Y-84790476D01*
X136747619Y-84838095D01*
X137557142Y-85838095D02*
X137604761Y-85790476D01*
X137652380Y-85647619D01*
X137652380Y-85552380D01*
X137604761Y-85409523D01*
X137509523Y-85314285D01*
X137414285Y-85266666D01*
X137223809Y-85219047D01*
X137080952Y-85219047D01*
X136890476Y-85266666D01*
X136795238Y-85314285D01*
X136700000Y-85409523D01*
X136652380Y-85552380D01*
X136652380Y-85647619D01*
X136700000Y-85790476D01*
X136747619Y-85838095D01*
X135004761Y-83385714D02*
X135052380Y-83528571D01*
X135052380Y-83766666D01*
X135004761Y-83861904D01*
X134957142Y-83909523D01*
X134861904Y-83957142D01*
X134766666Y-83957142D01*
X134671428Y-83909523D01*
X134623809Y-83861904D01*
X134576190Y-83766666D01*
X134528571Y-83576190D01*
X134480952Y-83480952D01*
X134433333Y-83433333D01*
X134338095Y-83385714D01*
X134242857Y-83385714D01*
X134147619Y-83433333D01*
X134100000Y-83480952D01*
X134052380Y-83576190D01*
X134052380Y-83814285D01*
X134100000Y-83957142D01*
X135052380Y-84385714D02*
X134052380Y-84385714D01*
X134052380Y-84623809D01*
X134100000Y-84766666D01*
X134195238Y-84861904D01*
X134290476Y-84909523D01*
X134480952Y-84957142D01*
X134623809Y-84957142D01*
X134814285Y-84909523D01*
X134909523Y-84861904D01*
X135004761Y-84766666D01*
X135052380Y-84623809D01*
X135052380Y-84385714D01*
X134766666Y-85338095D02*
X134766666Y-85814285D01*
X135052380Y-85242857D02*
X134052380Y-85576190D01*
X135052380Y-85909523D01*
X132404761Y-83409523D02*
X132452380Y-83552380D01*
X132452380Y-83790476D01*
X132404761Y-83885714D01*
X132357142Y-83933333D01*
X132261904Y-83980952D01*
X132166666Y-83980952D01*
X132071428Y-83933333D01*
X132023809Y-83885714D01*
X131976190Y-83790476D01*
X131928571Y-83600000D01*
X131880952Y-83504761D01*
X131833333Y-83457142D01*
X131738095Y-83409523D01*
X131642857Y-83409523D01*
X131547619Y-83457142D01*
X131500000Y-83504761D01*
X131452380Y-83600000D01*
X131452380Y-83838095D01*
X131500000Y-83980952D01*
X132357142Y-84980952D02*
X132404761Y-84933333D01*
X132452380Y-84790476D01*
X132452380Y-84695238D01*
X132404761Y-84552380D01*
X132309523Y-84457142D01*
X132214285Y-84409523D01*
X132023809Y-84361904D01*
X131880952Y-84361904D01*
X131690476Y-84409523D01*
X131595238Y-84457142D01*
X131500000Y-84552380D01*
X131452380Y-84695238D01*
X131452380Y-84790476D01*
X131500000Y-84933333D01*
X131547619Y-84980952D01*
X132452380Y-85885714D02*
X132452380Y-85409523D01*
X131452380Y-85409523D01*
X129528571Y-83476190D02*
X129528571Y-83809523D01*
X130052380Y-83952380D02*
X130052380Y-83476190D01*
X129052380Y-83476190D01*
X129052380Y-83952380D01*
X130052380Y-84380952D02*
X129052380Y-84380952D01*
X130052380Y-84952380D01*
X129052380Y-84952380D01*
X129766666Y-85380952D02*
X129766666Y-85857142D01*
X130052380Y-85285714D02*
X129052380Y-85619047D01*
X130052380Y-85952380D01*
X129528571Y-86619047D02*
X129576190Y-86761904D01*
X129623809Y-86809523D01*
X129719047Y-86857142D01*
X129861904Y-86857142D01*
X129957142Y-86809523D01*
X130004761Y-86761904D01*
X130052380Y-86666666D01*
X130052380Y-86285714D01*
X129052380Y-86285714D01*
X129052380Y-86619047D01*
X129100000Y-86714285D01*
X129147619Y-86761904D01*
X129242857Y-86809523D01*
X129338095Y-86809523D01*
X129433333Y-86761904D01*
X129480952Y-86714285D01*
X129528571Y-86619047D01*
X129528571Y-86285714D01*
X130052380Y-87761904D02*
X130052380Y-87285714D01*
X129052380Y-87285714D01*
X129528571Y-88095238D02*
X129528571Y-88428571D01*
X130052380Y-88571428D02*
X130052380Y-88095238D01*
X129052380Y-88095238D01*
X129052380Y-88571428D01*
X126500000Y-83838095D02*
X126452380Y-83742857D01*
X126452380Y-83600000D01*
X126500000Y-83457142D01*
X126595238Y-83361904D01*
X126690476Y-83314285D01*
X126880952Y-83266666D01*
X127023809Y-83266666D01*
X127214285Y-83314285D01*
X127309523Y-83361904D01*
X127404761Y-83457142D01*
X127452380Y-83600000D01*
X127452380Y-83695238D01*
X127404761Y-83838095D01*
X127357142Y-83885714D01*
X127023809Y-83885714D01*
X127023809Y-83695238D01*
X127452380Y-84314285D02*
X126452380Y-84314285D01*
X127452380Y-84885714D01*
X126452380Y-84885714D01*
X127452380Y-85361904D02*
X126452380Y-85361904D01*
X126452380Y-85600000D01*
X126500000Y-85742857D01*
X126595238Y-85838095D01*
X126690476Y-85885714D01*
X126880952Y-85933333D01*
X127023809Y-85933333D01*
X127214285Y-85885714D01*
X127309523Y-85838095D01*
X127404761Y-85742857D01*
X127452380Y-85600000D01*
X127452380Y-85361904D01*
M02*
