G04 #@! TF.GenerationSoftware,KiCad,Pcbnew,5.1.12-84ad8e8a86~92~ubuntu20.04.1*
G04 #@! TF.CreationDate,2021-11-18T17:54:01-07:00*
G04 #@! TF.ProjectId,power-monitor,706f7765-722d-46d6-9f6e-69746f722e6b,rev?*
G04 #@! TF.SameCoordinates,Original*
G04 #@! TF.FileFunction,Paste,Top*
G04 #@! TF.FilePolarity,Positive*
%FSLAX46Y46*%
G04 Gerber Fmt 4.6, Leading zero omitted, Abs format (unit mm)*
G04 Created by KiCad (PCBNEW 5.1.12-84ad8e8a86~92~ubuntu20.04.1) date 2021-11-18 17:54:01*
%MOMM*%
%LPD*%
G01*
G04 APERTURE LIST*
G04 APERTURE END LIST*
G36*
G01*
X136095000Y-85435000D02*
X136095000Y-85285000D01*
G75*
G02*
X136170000Y-85210000I75000J0D01*
G01*
X137470000Y-85210000D01*
G75*
G02*
X137545000Y-85285000I0J-75000D01*
G01*
X137545000Y-85435000D01*
G75*
G02*
X137470000Y-85510000I-75000J0D01*
G01*
X136170000Y-85510000D01*
G75*
G02*
X136095000Y-85435000I0J75000D01*
G01*
G37*
G36*
G01*
X136095000Y-85935000D02*
X136095000Y-85785000D01*
G75*
G02*
X136170000Y-85710000I75000J0D01*
G01*
X137470000Y-85710000D01*
G75*
G02*
X137545000Y-85785000I0J-75000D01*
G01*
X137545000Y-85935000D01*
G75*
G02*
X137470000Y-86010000I-75000J0D01*
G01*
X136170000Y-86010000D01*
G75*
G02*
X136095000Y-85935000I0J75000D01*
G01*
G37*
G36*
G01*
X136095000Y-86435000D02*
X136095000Y-86285000D01*
G75*
G02*
X136170000Y-86210000I75000J0D01*
G01*
X137470000Y-86210000D01*
G75*
G02*
X137545000Y-86285000I0J-75000D01*
G01*
X137545000Y-86435000D01*
G75*
G02*
X137470000Y-86510000I-75000J0D01*
G01*
X136170000Y-86510000D01*
G75*
G02*
X136095000Y-86435000I0J75000D01*
G01*
G37*
G36*
G01*
X136095000Y-86935000D02*
X136095000Y-86785000D01*
G75*
G02*
X136170000Y-86710000I75000J0D01*
G01*
X137470000Y-86710000D01*
G75*
G02*
X137545000Y-86785000I0J-75000D01*
G01*
X137545000Y-86935000D01*
G75*
G02*
X137470000Y-87010000I-75000J0D01*
G01*
X136170000Y-87010000D01*
G75*
G02*
X136095000Y-86935000I0J75000D01*
G01*
G37*
G36*
G01*
X136095000Y-87435000D02*
X136095000Y-87285000D01*
G75*
G02*
X136170000Y-87210000I75000J0D01*
G01*
X137470000Y-87210000D01*
G75*
G02*
X137545000Y-87285000I0J-75000D01*
G01*
X137545000Y-87435000D01*
G75*
G02*
X137470000Y-87510000I-75000J0D01*
G01*
X136170000Y-87510000D01*
G75*
G02*
X136095000Y-87435000I0J75000D01*
G01*
G37*
G36*
G01*
X131695000Y-87435000D02*
X131695000Y-87285000D01*
G75*
G02*
X131770000Y-87210000I75000J0D01*
G01*
X133070000Y-87210000D01*
G75*
G02*
X133145000Y-87285000I0J-75000D01*
G01*
X133145000Y-87435000D01*
G75*
G02*
X133070000Y-87510000I-75000J0D01*
G01*
X131770000Y-87510000D01*
G75*
G02*
X131695000Y-87435000I0J75000D01*
G01*
G37*
G36*
G01*
X131695000Y-86935000D02*
X131695000Y-86785000D01*
G75*
G02*
X131770000Y-86710000I75000J0D01*
G01*
X133070000Y-86710000D01*
G75*
G02*
X133145000Y-86785000I0J-75000D01*
G01*
X133145000Y-86935000D01*
G75*
G02*
X133070000Y-87010000I-75000J0D01*
G01*
X131770000Y-87010000D01*
G75*
G02*
X131695000Y-86935000I0J75000D01*
G01*
G37*
G36*
G01*
X131695000Y-86435000D02*
X131695000Y-86285000D01*
G75*
G02*
X131770000Y-86210000I75000J0D01*
G01*
X133070000Y-86210000D01*
G75*
G02*
X133145000Y-86285000I0J-75000D01*
G01*
X133145000Y-86435000D01*
G75*
G02*
X133070000Y-86510000I-75000J0D01*
G01*
X131770000Y-86510000D01*
G75*
G02*
X131695000Y-86435000I0J75000D01*
G01*
G37*
G36*
G01*
X131695000Y-85935000D02*
X131695000Y-85785000D01*
G75*
G02*
X131770000Y-85710000I75000J0D01*
G01*
X133070000Y-85710000D01*
G75*
G02*
X133145000Y-85785000I0J-75000D01*
G01*
X133145000Y-85935000D01*
G75*
G02*
X133070000Y-86010000I-75000J0D01*
G01*
X131770000Y-86010000D01*
G75*
G02*
X131695000Y-85935000I0J75000D01*
G01*
G37*
G36*
G01*
X131695000Y-85435000D02*
X131695000Y-85285000D01*
G75*
G02*
X131770000Y-85210000I75000J0D01*
G01*
X133070000Y-85210000D01*
G75*
G02*
X133145000Y-85285000I0J-75000D01*
G01*
X133145000Y-85435000D01*
G75*
G02*
X133070000Y-85510000I-75000J0D01*
G01*
X131770000Y-85510000D01*
G75*
G02*
X131695000Y-85435000I0J75000D01*
G01*
G37*
G36*
G01*
X123327500Y-81690000D02*
X123672500Y-81690000D01*
G75*
G02*
X123820000Y-81837500I0J-147500D01*
G01*
X123820000Y-82132500D01*
G75*
G02*
X123672500Y-82280000I-147500J0D01*
G01*
X123327500Y-82280000D01*
G75*
G02*
X123180000Y-82132500I0J147500D01*
G01*
X123180000Y-81837500D01*
G75*
G02*
X123327500Y-81690000I147500J0D01*
G01*
G37*
G36*
G01*
X123327500Y-80720000D02*
X123672500Y-80720000D01*
G75*
G02*
X123820000Y-80867500I0J-147500D01*
G01*
X123820000Y-81162500D01*
G75*
G02*
X123672500Y-81310000I-147500J0D01*
G01*
X123327500Y-81310000D01*
G75*
G02*
X123180000Y-81162500I0J147500D01*
G01*
X123180000Y-80867500D01*
G75*
G02*
X123327500Y-80720000I147500J0D01*
G01*
G37*
G36*
G01*
X126450001Y-85050000D02*
X125549999Y-85050000D01*
G75*
G02*
X125300000Y-84800001I0J249999D01*
G01*
X125300000Y-84149999D01*
G75*
G02*
X125549999Y-83900000I249999J0D01*
G01*
X126450001Y-83900000D01*
G75*
G02*
X126700000Y-84149999I0J-249999D01*
G01*
X126700000Y-84800001D01*
G75*
G02*
X126450001Y-85050000I-249999J0D01*
G01*
G37*
G36*
G01*
X126450001Y-87100000D02*
X125549999Y-87100000D01*
G75*
G02*
X125300000Y-86850001I0J249999D01*
G01*
X125300000Y-86199999D01*
G75*
G02*
X125549999Y-85950000I249999J0D01*
G01*
X126450001Y-85950000D01*
G75*
G02*
X126700000Y-86199999I0J-249999D01*
G01*
X126700000Y-86850001D01*
G75*
G02*
X126450001Y-87100000I-249999J0D01*
G01*
G37*
G36*
G01*
X122450000Y-94049999D02*
X122450000Y-94950001D01*
G75*
G02*
X122200001Y-95200000I-249999J0D01*
G01*
X121549999Y-95200000D01*
G75*
G02*
X121300000Y-94950001I0J249999D01*
G01*
X121300000Y-94049999D01*
G75*
G02*
X121549999Y-93800000I249999J0D01*
G01*
X122200001Y-93800000D01*
G75*
G02*
X122450000Y-94049999I0J-249999D01*
G01*
G37*
G36*
G01*
X124500000Y-94049999D02*
X124500000Y-94950001D01*
G75*
G02*
X124250001Y-95200000I-249999J0D01*
G01*
X123599999Y-95200000D01*
G75*
G02*
X123350000Y-94950001I0J249999D01*
G01*
X123350000Y-94049999D01*
G75*
G02*
X123599999Y-93800000I249999J0D01*
G01*
X124250001Y-93800000D01*
G75*
G02*
X124500000Y-94049999I0J-249999D01*
G01*
G37*
G36*
G01*
X140049999Y-81950000D02*
X140950001Y-81950000D01*
G75*
G02*
X141200000Y-82199999I0J-249999D01*
G01*
X141200000Y-82850001D01*
G75*
G02*
X140950001Y-83100000I-249999J0D01*
G01*
X140049999Y-83100000D01*
G75*
G02*
X139800000Y-82850001I0J249999D01*
G01*
X139800000Y-82199999D01*
G75*
G02*
X140049999Y-81950000I249999J0D01*
G01*
G37*
G36*
G01*
X140049999Y-79900000D02*
X140950001Y-79900000D01*
G75*
G02*
X141200000Y-80149999I0J-249999D01*
G01*
X141200000Y-80800001D01*
G75*
G02*
X140950001Y-81050000I-249999J0D01*
G01*
X140049999Y-81050000D01*
G75*
G02*
X139800000Y-80800001I0J249999D01*
G01*
X139800000Y-80149999D01*
G75*
G02*
X140049999Y-79900000I249999J0D01*
G01*
G37*
G36*
G01*
X142549999Y-81950000D02*
X143450001Y-81950000D01*
G75*
G02*
X143700000Y-82199999I0J-249999D01*
G01*
X143700000Y-82850001D01*
G75*
G02*
X143450001Y-83100000I-249999J0D01*
G01*
X142549999Y-83100000D01*
G75*
G02*
X142300000Y-82850001I0J249999D01*
G01*
X142300000Y-82199999D01*
G75*
G02*
X142549999Y-81950000I249999J0D01*
G01*
G37*
G36*
G01*
X142549999Y-79900000D02*
X143450001Y-79900000D01*
G75*
G02*
X143700000Y-80149999I0J-249999D01*
G01*
X143700000Y-80800001D01*
G75*
G02*
X143450001Y-81050000I-249999J0D01*
G01*
X142549999Y-81050000D01*
G75*
G02*
X142300000Y-80800001I0J249999D01*
G01*
X142300000Y-80149999D01*
G75*
G02*
X142549999Y-79900000I249999J0D01*
G01*
G37*
G36*
G01*
X140725000Y-87005000D02*
X140725000Y-88255000D01*
G75*
G02*
X140475000Y-88505000I-250000J0D01*
G01*
X139550000Y-88505000D01*
G75*
G02*
X139300000Y-88255000I0J250000D01*
G01*
X139300000Y-87005000D01*
G75*
G02*
X139550000Y-86755000I250000J0D01*
G01*
X140475000Y-86755000D01*
G75*
G02*
X140725000Y-87005000I0J-250000D01*
G01*
G37*
G36*
G01*
X143700000Y-87005000D02*
X143700000Y-88255000D01*
G75*
G02*
X143450000Y-88505000I-250000J0D01*
G01*
X142525000Y-88505000D01*
G75*
G02*
X142275000Y-88255000I0J250000D01*
G01*
X142275000Y-87005000D01*
G75*
G02*
X142525000Y-86755000I250000J0D01*
G01*
X143450000Y-86755000D01*
G75*
G02*
X143700000Y-87005000I0J-250000D01*
G01*
G37*
G36*
G01*
X132310000Y-90955000D02*
X132310000Y-90655000D01*
G75*
G02*
X132460000Y-90505000I150000J0D01*
G01*
X134110000Y-90505000D01*
G75*
G02*
X134260000Y-90655000I0J-150000D01*
G01*
X134260000Y-90955000D01*
G75*
G02*
X134110000Y-91105000I-150000J0D01*
G01*
X132460000Y-91105000D01*
G75*
G02*
X132310000Y-90955000I0J150000D01*
G01*
G37*
G36*
G01*
X132310000Y-92225000D02*
X132310000Y-91925000D01*
G75*
G02*
X132460000Y-91775000I150000J0D01*
G01*
X134110000Y-91775000D01*
G75*
G02*
X134260000Y-91925000I0J-150000D01*
G01*
X134260000Y-92225000D01*
G75*
G02*
X134110000Y-92375000I-150000J0D01*
G01*
X132460000Y-92375000D01*
G75*
G02*
X132310000Y-92225000I0J150000D01*
G01*
G37*
G36*
G01*
X132310000Y-93495000D02*
X132310000Y-93195000D01*
G75*
G02*
X132460000Y-93045000I150000J0D01*
G01*
X134110000Y-93045000D01*
G75*
G02*
X134260000Y-93195000I0J-150000D01*
G01*
X134260000Y-93495000D01*
G75*
G02*
X134110000Y-93645000I-150000J0D01*
G01*
X132460000Y-93645000D01*
G75*
G02*
X132310000Y-93495000I0J150000D01*
G01*
G37*
G36*
G01*
X132310000Y-94765000D02*
X132310000Y-94465000D01*
G75*
G02*
X132460000Y-94315000I150000J0D01*
G01*
X134110000Y-94315000D01*
G75*
G02*
X134260000Y-94465000I0J-150000D01*
G01*
X134260000Y-94765000D01*
G75*
G02*
X134110000Y-94915000I-150000J0D01*
G01*
X132460000Y-94915000D01*
G75*
G02*
X132310000Y-94765000I0J150000D01*
G01*
G37*
G36*
G01*
X127360000Y-94765000D02*
X127360000Y-94465000D01*
G75*
G02*
X127510000Y-94315000I150000J0D01*
G01*
X129160000Y-94315000D01*
G75*
G02*
X129310000Y-94465000I0J-150000D01*
G01*
X129310000Y-94765000D01*
G75*
G02*
X129160000Y-94915000I-150000J0D01*
G01*
X127510000Y-94915000D01*
G75*
G02*
X127360000Y-94765000I0J150000D01*
G01*
G37*
G36*
G01*
X127360000Y-93495000D02*
X127360000Y-93195000D01*
G75*
G02*
X127510000Y-93045000I150000J0D01*
G01*
X129160000Y-93045000D01*
G75*
G02*
X129310000Y-93195000I0J-150000D01*
G01*
X129310000Y-93495000D01*
G75*
G02*
X129160000Y-93645000I-150000J0D01*
G01*
X127510000Y-93645000D01*
G75*
G02*
X127360000Y-93495000I0J150000D01*
G01*
G37*
G36*
G01*
X127360000Y-92225000D02*
X127360000Y-91925000D01*
G75*
G02*
X127510000Y-91775000I150000J0D01*
G01*
X129160000Y-91775000D01*
G75*
G02*
X129310000Y-91925000I0J-150000D01*
G01*
X129310000Y-92225000D01*
G75*
G02*
X129160000Y-92375000I-150000J0D01*
G01*
X127510000Y-92375000D01*
G75*
G02*
X127360000Y-92225000I0J150000D01*
G01*
G37*
G36*
G01*
X127360000Y-90955000D02*
X127360000Y-90655000D01*
G75*
G02*
X127510000Y-90505000I150000J0D01*
G01*
X129160000Y-90505000D01*
G75*
G02*
X129310000Y-90655000I0J-150000D01*
G01*
X129310000Y-90955000D01*
G75*
G02*
X129160000Y-91105000I-150000J0D01*
G01*
X127510000Y-91105000D01*
G75*
G02*
X127360000Y-90955000I0J150000D01*
G01*
G37*
G36*
G01*
X128950001Y-85050000D02*
X128049999Y-85050000D01*
G75*
G02*
X127800000Y-84800001I0J249999D01*
G01*
X127800000Y-84149999D01*
G75*
G02*
X128049999Y-83900000I249999J0D01*
G01*
X128950001Y-83900000D01*
G75*
G02*
X129200000Y-84149999I0J-249999D01*
G01*
X129200000Y-84800001D01*
G75*
G02*
X128950001Y-85050000I-249999J0D01*
G01*
G37*
G36*
G01*
X128950001Y-87100000D02*
X128049999Y-87100000D01*
G75*
G02*
X127800000Y-86850001I0J249999D01*
G01*
X127800000Y-86199999D01*
G75*
G02*
X128049999Y-85950000I249999J0D01*
G01*
X128950001Y-85950000D01*
G75*
G02*
X129200000Y-86199999I0J-249999D01*
G01*
X129200000Y-86850001D01*
G75*
G02*
X128950001Y-87100000I-249999J0D01*
G01*
G37*
G36*
G01*
X139750000Y-84462500D02*
X139750000Y-84937500D01*
G75*
G02*
X139512500Y-85175000I-237500J0D01*
G01*
X138937500Y-85175000D01*
G75*
G02*
X138700000Y-84937500I0J237500D01*
G01*
X138700000Y-84462500D01*
G75*
G02*
X138937500Y-84225000I237500J0D01*
G01*
X139512500Y-84225000D01*
G75*
G02*
X139750000Y-84462500I0J-237500D01*
G01*
G37*
G36*
G01*
X141500000Y-84462500D02*
X141500000Y-84937500D01*
G75*
G02*
X141262500Y-85175000I-237500J0D01*
G01*
X140687500Y-85175000D01*
G75*
G02*
X140450000Y-84937500I0J237500D01*
G01*
X140450000Y-84462500D01*
G75*
G02*
X140687500Y-84225000I237500J0D01*
G01*
X141262500Y-84225000D01*
G75*
G02*
X141500000Y-84462500I0J-237500D01*
G01*
G37*
G36*
G01*
X121762500Y-89250000D02*
X122237500Y-89250000D01*
G75*
G02*
X122475000Y-89487500I0J-237500D01*
G01*
X122475000Y-90062500D01*
G75*
G02*
X122237500Y-90300000I-237500J0D01*
G01*
X121762500Y-90300000D01*
G75*
G02*
X121525000Y-90062500I0J237500D01*
G01*
X121525000Y-89487500D01*
G75*
G02*
X121762500Y-89250000I237500J0D01*
G01*
G37*
G36*
G01*
X121762500Y-87500000D02*
X122237500Y-87500000D01*
G75*
G02*
X122475000Y-87737500I0J-237500D01*
G01*
X122475000Y-88312500D01*
G75*
G02*
X122237500Y-88550000I-237500J0D01*
G01*
X121762500Y-88550000D01*
G75*
G02*
X121525000Y-88312500I0J237500D01*
G01*
X121525000Y-87737500D01*
G75*
G02*
X121762500Y-87500000I237500J0D01*
G01*
G37*
M02*
