M48
; DRILL file {KiCad 5.1.5+dfsg1-2build2} date Sat 23 Oct 2021 10:24:24 AM MDT
; FORMAT={-:-/ absolute / inch / decimal}
; #@! TF.CreationDate,2021-10-23T10:24:24-06:00
; #@! TF.GenerationSoftware,Kicad,Pcbnew,5.1.5+dfsg1-2build2
; #@! TF.FileFunction,Plated,1,2,PTH
FMAT,2
INCH
T1C0.0157
T2C0.0394
T3C0.0512
%
G90
G05
T1
X5.1496Y-3.5748
X5.1496Y-3.6457
X5.1496Y-3.7165
X5.1969Y-3.5748
X5.1969Y-3.7165
X5.2087Y-3.2677
X5.3228Y-3.5748
X5.3228Y-3.7165
X5.378Y-3.5748
X5.378Y-3.7165
X5.4042Y-3.2886
X5.4094Y-3.126
X5.4213Y-3.3307
X5.4331Y-3.5748
X5.4331Y-3.7165
X5.4882Y-3.5748
X5.4882Y-3.7165
X5.5433Y-3.7165
X5.5512Y-3.5669
X5.5669Y-3.5157
X5.5984Y-3.7165
X5.6068Y-3.3577
X5.622Y-3.5354
X5.6535Y-3.7165
X5.6772Y-3.3228
X5.6772Y-3.5354
X5.7087Y-3.7165
X5.7323Y-3.5354
X5.7402Y-3.1339
X5.7638Y-3.7165
X5.7874Y-3.5354
X5.811Y-3.3228
X5.8976Y-3.7165
X5.9449Y-3.5433
X5.9528Y-3.1339
X5.9528Y-3.3465
X5.9606Y-3.7165
T2
X5.0Y-3.2
X5.1Y-3.2
X5.2Y-3.2
X5.3Y-3.2
X5.4Y-3.2
T3
X4.5866Y-3.45
X4.5866Y-3.6469
X5.8465Y-3.4531
X5.8465Y-3.65
T0
M30
