G04 #@! TF.GenerationSoftware,KiCad,Pcbnew,5.1.5+dfsg1-2build2*
G04 #@! TF.CreationDate,2021-10-23T10:29:23-06:00*
G04 #@! TF.ProjectId,power-monitor,706f7765-722d-46d6-9f6e-69746f722e6b,rev?*
G04 #@! TF.SameCoordinates,Original*
G04 #@! TF.FileFunction,Soldermask,Top*
G04 #@! TF.FilePolarity,Negative*
%FSLAX46Y46*%
G04 Gerber Fmt 4.6, Leading zero omitted, Abs format (unit mm)*
G04 Created by KiCad (PCBNEW 5.1.5+dfsg1-2build2) date 2021-10-23 10:29:23*
%MOMM*%
%LPD*%
G04 APERTURE LIST*
%ADD10C,0.100000*%
G04 APERTURE END LIST*
D10*
G36*
X122338674Y-93753465D02*
G01*
X122376367Y-93764899D01*
X122411103Y-93783466D01*
X122441548Y-93808452D01*
X122466534Y-93838897D01*
X122485101Y-93873633D01*
X122496535Y-93911326D01*
X122501000Y-93956661D01*
X122501000Y-95043339D01*
X122496535Y-95088674D01*
X122485101Y-95126367D01*
X122466534Y-95161103D01*
X122441548Y-95191548D01*
X122411103Y-95216534D01*
X122376367Y-95235101D01*
X122338674Y-95246535D01*
X122293339Y-95251000D01*
X121456661Y-95251000D01*
X121411326Y-95246535D01*
X121373633Y-95235101D01*
X121338897Y-95216534D01*
X121308452Y-95191548D01*
X121283466Y-95161103D01*
X121264899Y-95126367D01*
X121253465Y-95088674D01*
X121249000Y-95043339D01*
X121249000Y-93956661D01*
X121253465Y-93911326D01*
X121264899Y-93873633D01*
X121283466Y-93838897D01*
X121308452Y-93808452D01*
X121338897Y-93783466D01*
X121373633Y-93764899D01*
X121411326Y-93753465D01*
X121456661Y-93749000D01*
X122293339Y-93749000D01*
X122338674Y-93753465D01*
G37*
G36*
X124388674Y-93753465D02*
G01*
X124426367Y-93764899D01*
X124461103Y-93783466D01*
X124491548Y-93808452D01*
X124516534Y-93838897D01*
X124535101Y-93873633D01*
X124546535Y-93911326D01*
X124551000Y-93956661D01*
X124551000Y-95043339D01*
X124546535Y-95088674D01*
X124535101Y-95126367D01*
X124516534Y-95161103D01*
X124491548Y-95191548D01*
X124461103Y-95216534D01*
X124426367Y-95235101D01*
X124388674Y-95246535D01*
X124343339Y-95251000D01*
X123506661Y-95251000D01*
X123461326Y-95246535D01*
X123423633Y-95235101D01*
X123388897Y-95216534D01*
X123358452Y-95191548D01*
X123333466Y-95161103D01*
X123314899Y-95126367D01*
X123303465Y-95088674D01*
X123299000Y-95043339D01*
X123299000Y-93956661D01*
X123303465Y-93911326D01*
X123314899Y-93873633D01*
X123333466Y-93838897D01*
X123358452Y-93808452D01*
X123388897Y-93783466D01*
X123423633Y-93764899D01*
X123461326Y-93753465D01*
X123506661Y-93749000D01*
X124343339Y-93749000D01*
X124388674Y-93753465D01*
G37*
G36*
X134219928Y-94266764D02*
G01*
X134241009Y-94273160D01*
X134260445Y-94283548D01*
X134277476Y-94297524D01*
X134291452Y-94314555D01*
X134301840Y-94333991D01*
X134308236Y-94355072D01*
X134311000Y-94383140D01*
X134311000Y-94846860D01*
X134308236Y-94874928D01*
X134301840Y-94896009D01*
X134291452Y-94915445D01*
X134277476Y-94932476D01*
X134260445Y-94946452D01*
X134241009Y-94956840D01*
X134219928Y-94963236D01*
X134191860Y-94966000D01*
X132378140Y-94966000D01*
X132350072Y-94963236D01*
X132328991Y-94956840D01*
X132309555Y-94946452D01*
X132292524Y-94932476D01*
X132278548Y-94915445D01*
X132268160Y-94896009D01*
X132261764Y-94874928D01*
X132259000Y-94846860D01*
X132259000Y-94383140D01*
X132261764Y-94355072D01*
X132268160Y-94333991D01*
X132278548Y-94314555D01*
X132292524Y-94297524D01*
X132309555Y-94283548D01*
X132328991Y-94273160D01*
X132350072Y-94266764D01*
X132378140Y-94264000D01*
X134191860Y-94264000D01*
X134219928Y-94266764D01*
G37*
G36*
X129269928Y-94266764D02*
G01*
X129291009Y-94273160D01*
X129310445Y-94283548D01*
X129327476Y-94297524D01*
X129341452Y-94314555D01*
X129351840Y-94333991D01*
X129358236Y-94355072D01*
X129361000Y-94383140D01*
X129361000Y-94846860D01*
X129358236Y-94874928D01*
X129351840Y-94896009D01*
X129341452Y-94915445D01*
X129327476Y-94932476D01*
X129310445Y-94946452D01*
X129291009Y-94956840D01*
X129269928Y-94963236D01*
X129241860Y-94966000D01*
X127428140Y-94966000D01*
X127400072Y-94963236D01*
X127378991Y-94956840D01*
X127359555Y-94946452D01*
X127342524Y-94932476D01*
X127328548Y-94915445D01*
X127318160Y-94896009D01*
X127311764Y-94874928D01*
X127309000Y-94846860D01*
X127309000Y-94383140D01*
X127311764Y-94355072D01*
X127318160Y-94333991D01*
X127328548Y-94314555D01*
X127342524Y-94297524D01*
X127359555Y-94283548D01*
X127378991Y-94273160D01*
X127400072Y-94266764D01*
X127428140Y-94264000D01*
X129241860Y-94264000D01*
X129269928Y-94266764D01*
G37*
G36*
X148714794Y-91630155D02*
G01*
X148821150Y-91651311D01*
X148921334Y-91692809D01*
X149021520Y-91734307D01*
X149201844Y-91854795D01*
X149355205Y-92008156D01*
X149475693Y-92188480D01*
X149475693Y-92188481D01*
X149558689Y-92388850D01*
X149601000Y-92601561D01*
X149601000Y-92818439D01*
X149558689Y-93031150D01*
X149529201Y-93102339D01*
X149475693Y-93231520D01*
X149355205Y-93411844D01*
X149201844Y-93565205D01*
X149021520Y-93685693D01*
X148821150Y-93768689D01*
X148746861Y-93783466D01*
X148608440Y-93811000D01*
X148391560Y-93811000D01*
X148253139Y-93783466D01*
X148178850Y-93768689D01*
X148078666Y-93727191D01*
X147978480Y-93685693D01*
X147798156Y-93565205D01*
X147644795Y-93411844D01*
X147524307Y-93231520D01*
X147470799Y-93102339D01*
X147441311Y-93031150D01*
X147399000Y-92818439D01*
X147399000Y-92601561D01*
X147441311Y-92388850D01*
X147524307Y-92188481D01*
X147524307Y-92188480D01*
X147644795Y-92008156D01*
X147798156Y-91854795D01*
X147978480Y-91734307D01*
X148078666Y-91692809D01*
X148178850Y-91651311D01*
X148285206Y-91630155D01*
X148391560Y-91609000D01*
X148608440Y-91609000D01*
X148714794Y-91630155D01*
G37*
G36*
X116714795Y-91550156D02*
G01*
X116821150Y-91571311D01*
X116912139Y-91609000D01*
X117021520Y-91654307D01*
X117201844Y-91774795D01*
X117355205Y-91928156D01*
X117475693Y-92108480D01*
X117475693Y-92108481D01*
X117558689Y-92308850D01*
X117601000Y-92521561D01*
X117601000Y-92738439D01*
X117558689Y-92951150D01*
X117527054Y-93027524D01*
X117475693Y-93151520D01*
X117355205Y-93331844D01*
X117201844Y-93485205D01*
X117021520Y-93605693D01*
X116927597Y-93644597D01*
X116821150Y-93688689D01*
X116784395Y-93696000D01*
X116608440Y-93731000D01*
X116391560Y-93731000D01*
X116215605Y-93696000D01*
X116178850Y-93688689D01*
X116072403Y-93644597D01*
X115978480Y-93605693D01*
X115798156Y-93485205D01*
X115644795Y-93331844D01*
X115524307Y-93151520D01*
X115472946Y-93027524D01*
X115441311Y-92951150D01*
X115399000Y-92738439D01*
X115399000Y-92521561D01*
X115441311Y-92308850D01*
X115524307Y-92108481D01*
X115524307Y-92108480D01*
X115644795Y-91928156D01*
X115798156Y-91774795D01*
X115978480Y-91654307D01*
X116087861Y-91609000D01*
X116178850Y-91571311D01*
X116285206Y-91550155D01*
X116391560Y-91529000D01*
X116608440Y-91529000D01*
X116714795Y-91550156D01*
G37*
G36*
X134219928Y-92996764D02*
G01*
X134241009Y-93003160D01*
X134260445Y-93013548D01*
X134277476Y-93027524D01*
X134291452Y-93044555D01*
X134301840Y-93063991D01*
X134308236Y-93085072D01*
X134311000Y-93113140D01*
X134311000Y-93576860D01*
X134308236Y-93604928D01*
X134301840Y-93626009D01*
X134291452Y-93645445D01*
X134277476Y-93662476D01*
X134260445Y-93676452D01*
X134241009Y-93686840D01*
X134219928Y-93693236D01*
X134191860Y-93696000D01*
X132378140Y-93696000D01*
X132350072Y-93693236D01*
X132328991Y-93686840D01*
X132309555Y-93676452D01*
X132292524Y-93662476D01*
X132278548Y-93645445D01*
X132268160Y-93626009D01*
X132261764Y-93604928D01*
X132259000Y-93576860D01*
X132259000Y-93113140D01*
X132261764Y-93085072D01*
X132268160Y-93063991D01*
X132278548Y-93044555D01*
X132292524Y-93027524D01*
X132309555Y-93013548D01*
X132328991Y-93003160D01*
X132350072Y-92996764D01*
X132378140Y-92994000D01*
X134191860Y-92994000D01*
X134219928Y-92996764D01*
G37*
G36*
X129269928Y-92996764D02*
G01*
X129291009Y-93003160D01*
X129310445Y-93013548D01*
X129327476Y-93027524D01*
X129341452Y-93044555D01*
X129351840Y-93063991D01*
X129358236Y-93085072D01*
X129361000Y-93113140D01*
X129361000Y-93576860D01*
X129358236Y-93604928D01*
X129351840Y-93626009D01*
X129341452Y-93645445D01*
X129327476Y-93662476D01*
X129310445Y-93676452D01*
X129291009Y-93686840D01*
X129269928Y-93693236D01*
X129241860Y-93696000D01*
X127428140Y-93696000D01*
X127400072Y-93693236D01*
X127378991Y-93686840D01*
X127359555Y-93676452D01*
X127342524Y-93662476D01*
X127328548Y-93645445D01*
X127318160Y-93626009D01*
X127311764Y-93604928D01*
X127309000Y-93576860D01*
X127309000Y-93113140D01*
X127311764Y-93085072D01*
X127318160Y-93063991D01*
X127328548Y-93044555D01*
X127342524Y-93027524D01*
X127359555Y-93013548D01*
X127378991Y-93003160D01*
X127400072Y-92996764D01*
X127428140Y-92994000D01*
X129241860Y-92994000D01*
X129269928Y-92996764D01*
G37*
G36*
X134219928Y-91726764D02*
G01*
X134241009Y-91733160D01*
X134260445Y-91743548D01*
X134277476Y-91757524D01*
X134291452Y-91774555D01*
X134301840Y-91793991D01*
X134308236Y-91815072D01*
X134311000Y-91843140D01*
X134311000Y-92306860D01*
X134308236Y-92334928D01*
X134301840Y-92356009D01*
X134291452Y-92375445D01*
X134277476Y-92392476D01*
X134260445Y-92406452D01*
X134241009Y-92416840D01*
X134219928Y-92423236D01*
X134191860Y-92426000D01*
X132378140Y-92426000D01*
X132350072Y-92423236D01*
X132328991Y-92416840D01*
X132309555Y-92406452D01*
X132292524Y-92392476D01*
X132278548Y-92375445D01*
X132268160Y-92356009D01*
X132261764Y-92334928D01*
X132259000Y-92306860D01*
X132259000Y-91843140D01*
X132261764Y-91815072D01*
X132268160Y-91793991D01*
X132278548Y-91774555D01*
X132292524Y-91757524D01*
X132309555Y-91743548D01*
X132328991Y-91733160D01*
X132350072Y-91726764D01*
X132378140Y-91724000D01*
X134191860Y-91724000D01*
X134219928Y-91726764D01*
G37*
G36*
X129269928Y-91726764D02*
G01*
X129291009Y-91733160D01*
X129310445Y-91743548D01*
X129327476Y-91757524D01*
X129341452Y-91774555D01*
X129351840Y-91793991D01*
X129358236Y-91815072D01*
X129361000Y-91843140D01*
X129361000Y-92306860D01*
X129358236Y-92334928D01*
X129351840Y-92356009D01*
X129341452Y-92375445D01*
X129327476Y-92392476D01*
X129310445Y-92406452D01*
X129291009Y-92416840D01*
X129269928Y-92423236D01*
X129241860Y-92426000D01*
X127428140Y-92426000D01*
X127400072Y-92423236D01*
X127378991Y-92416840D01*
X127359555Y-92406452D01*
X127342524Y-92392476D01*
X127328548Y-92375445D01*
X127318160Y-92356009D01*
X127311764Y-92334928D01*
X127309000Y-92306860D01*
X127309000Y-91843140D01*
X127311764Y-91815072D01*
X127318160Y-91793991D01*
X127328548Y-91774555D01*
X127342524Y-91757524D01*
X127359555Y-91743548D01*
X127378991Y-91733160D01*
X127400072Y-91726764D01*
X127428140Y-91724000D01*
X129241860Y-91724000D01*
X129269928Y-91726764D01*
G37*
G36*
X129269928Y-90456764D02*
G01*
X129291009Y-90463160D01*
X129310445Y-90473548D01*
X129327476Y-90487524D01*
X129341452Y-90504555D01*
X129351840Y-90523991D01*
X129358236Y-90545072D01*
X129361000Y-90573140D01*
X129361000Y-91036860D01*
X129358236Y-91064928D01*
X129351840Y-91086009D01*
X129341452Y-91105445D01*
X129327476Y-91122476D01*
X129310445Y-91136452D01*
X129291009Y-91146840D01*
X129269928Y-91153236D01*
X129241860Y-91156000D01*
X127428140Y-91156000D01*
X127400072Y-91153236D01*
X127378991Y-91146840D01*
X127359555Y-91136452D01*
X127342524Y-91122476D01*
X127328548Y-91105445D01*
X127318160Y-91086009D01*
X127311764Y-91064928D01*
X127309000Y-91036860D01*
X127309000Y-90573140D01*
X127311764Y-90545072D01*
X127318160Y-90523991D01*
X127328548Y-90504555D01*
X127342524Y-90487524D01*
X127359555Y-90473548D01*
X127378991Y-90463160D01*
X127400072Y-90456764D01*
X127428140Y-90454000D01*
X129241860Y-90454000D01*
X129269928Y-90456764D01*
G37*
G36*
X134219928Y-90456764D02*
G01*
X134241009Y-90463160D01*
X134260445Y-90473548D01*
X134277476Y-90487524D01*
X134291452Y-90504555D01*
X134301840Y-90523991D01*
X134308236Y-90545072D01*
X134311000Y-90573140D01*
X134311000Y-91036860D01*
X134308236Y-91064928D01*
X134301840Y-91086009D01*
X134291452Y-91105445D01*
X134277476Y-91122476D01*
X134260445Y-91136452D01*
X134241009Y-91146840D01*
X134219928Y-91153236D01*
X134191860Y-91156000D01*
X132378140Y-91156000D01*
X132350072Y-91153236D01*
X132328991Y-91146840D01*
X132309555Y-91136452D01*
X132292524Y-91122476D01*
X132278548Y-91105445D01*
X132268160Y-91086009D01*
X132261764Y-91064928D01*
X132259000Y-91036860D01*
X132259000Y-90573140D01*
X132261764Y-90545072D01*
X132268160Y-90523991D01*
X132278548Y-90504555D01*
X132292524Y-90487524D01*
X132309555Y-90473548D01*
X132328991Y-90463160D01*
X132350072Y-90456764D01*
X132378140Y-90454000D01*
X134191860Y-90454000D01*
X134219928Y-90456764D01*
G37*
G36*
X122364499Y-89203445D02*
G01*
X122401995Y-89214820D01*
X122436554Y-89233292D01*
X122466847Y-89258153D01*
X122491708Y-89288446D01*
X122510180Y-89323005D01*
X122521555Y-89360501D01*
X122526000Y-89405638D01*
X122526000Y-90144362D01*
X122521555Y-90189499D01*
X122510180Y-90226995D01*
X122491708Y-90261554D01*
X122466847Y-90291847D01*
X122436554Y-90316708D01*
X122401995Y-90335180D01*
X122364499Y-90346555D01*
X122319362Y-90351000D01*
X121680638Y-90351000D01*
X121635501Y-90346555D01*
X121598005Y-90335180D01*
X121563446Y-90316708D01*
X121533153Y-90291847D01*
X121508292Y-90261554D01*
X121489820Y-90226995D01*
X121478445Y-90189499D01*
X121474000Y-90144362D01*
X121474000Y-89405638D01*
X121478445Y-89360501D01*
X121489820Y-89323005D01*
X121508292Y-89288446D01*
X121533153Y-89258153D01*
X121563446Y-89233292D01*
X121598005Y-89214820D01*
X121635501Y-89203445D01*
X121680638Y-89199000D01*
X122319362Y-89199000D01*
X122364499Y-89203445D01*
G37*
G36*
X148675056Y-86622251D02*
G01*
X148821150Y-86651311D01*
X148910777Y-86688436D01*
X149021520Y-86734307D01*
X149201844Y-86854795D01*
X149355205Y-87008156D01*
X149475693Y-87188480D01*
X149558689Y-87388851D01*
X149601000Y-87601560D01*
X149601000Y-87818440D01*
X149558689Y-88031149D01*
X149475693Y-88231520D01*
X149355205Y-88411844D01*
X149201844Y-88565205D01*
X149021520Y-88685693D01*
X148821150Y-88768689D01*
X148714795Y-88789844D01*
X148608440Y-88811000D01*
X148391560Y-88811000D01*
X148285205Y-88789844D01*
X148178850Y-88768689D01*
X147978480Y-88685693D01*
X147798156Y-88565205D01*
X147644795Y-88411844D01*
X147524307Y-88231520D01*
X147441311Y-88031149D01*
X147399000Y-87818440D01*
X147399000Y-87601560D01*
X147441311Y-87388851D01*
X147524307Y-87188480D01*
X147644795Y-87008156D01*
X147798156Y-86854795D01*
X147978480Y-86734307D01*
X148089223Y-86688436D01*
X148178850Y-86651311D01*
X148324944Y-86622251D01*
X148391560Y-86609000D01*
X148608440Y-86609000D01*
X148675056Y-86622251D01*
G37*
G36*
X116684166Y-86544063D02*
G01*
X116821150Y-86571311D01*
X116912139Y-86609000D01*
X117021520Y-86654307D01*
X117201844Y-86774795D01*
X117355205Y-86928156D01*
X117475693Y-87108480D01*
X117558689Y-87308851D01*
X117601000Y-87521560D01*
X117601000Y-87738440D01*
X117558689Y-87951149D01*
X117475693Y-88151520D01*
X117355205Y-88331844D01*
X117201844Y-88485205D01*
X117021520Y-88605693D01*
X116821150Y-88688689D01*
X116714795Y-88709844D01*
X116608440Y-88731000D01*
X116391560Y-88731000D01*
X116285205Y-88709844D01*
X116178850Y-88688689D01*
X115978480Y-88605693D01*
X115798156Y-88485205D01*
X115644795Y-88331844D01*
X115524307Y-88151520D01*
X115441311Y-87951149D01*
X115399000Y-87738440D01*
X115399000Y-87521560D01*
X115441311Y-87308851D01*
X115524307Y-87108480D01*
X115644795Y-86928156D01*
X115798156Y-86774795D01*
X115978480Y-86654307D01*
X116087861Y-86609000D01*
X116178850Y-86571311D01*
X116315834Y-86544063D01*
X116391560Y-86529000D01*
X116608440Y-86529000D01*
X116684166Y-86544063D01*
G37*
G36*
X122364499Y-87453445D02*
G01*
X122401995Y-87464820D01*
X122436554Y-87483292D01*
X122466847Y-87508153D01*
X122491708Y-87538446D01*
X122510180Y-87573005D01*
X122521555Y-87610501D01*
X122526000Y-87655638D01*
X122526000Y-88394362D01*
X122521555Y-88439499D01*
X122510180Y-88476995D01*
X122491708Y-88511554D01*
X122466847Y-88541847D01*
X122436554Y-88566708D01*
X122401995Y-88585180D01*
X122364499Y-88596555D01*
X122319362Y-88601000D01*
X121680638Y-88601000D01*
X121635501Y-88596555D01*
X121598005Y-88585180D01*
X121563446Y-88566708D01*
X121533153Y-88541847D01*
X121508292Y-88511554D01*
X121489820Y-88476995D01*
X121478445Y-88439499D01*
X121474000Y-88394362D01*
X121474000Y-87655638D01*
X121478445Y-87610501D01*
X121489820Y-87573005D01*
X121508292Y-87538446D01*
X121533153Y-87508153D01*
X121563446Y-87483292D01*
X121598005Y-87464820D01*
X121635501Y-87453445D01*
X121680638Y-87449000D01*
X122319362Y-87449000D01*
X122364499Y-87453445D01*
G37*
G36*
X143600562Y-86708181D02*
G01*
X143635481Y-86718774D01*
X143667663Y-86735976D01*
X143695873Y-86759127D01*
X143719024Y-86787337D01*
X143736226Y-86819519D01*
X143746819Y-86854438D01*
X143751000Y-86896895D01*
X143751000Y-88363105D01*
X143746819Y-88405562D01*
X143736226Y-88440481D01*
X143719024Y-88472663D01*
X143695873Y-88500873D01*
X143667663Y-88524024D01*
X143635481Y-88541226D01*
X143600562Y-88551819D01*
X143558105Y-88556000D01*
X142416895Y-88556000D01*
X142374438Y-88551819D01*
X142339519Y-88541226D01*
X142307337Y-88524024D01*
X142279127Y-88500873D01*
X142255976Y-88472663D01*
X142238774Y-88440481D01*
X142228181Y-88405562D01*
X142224000Y-88363105D01*
X142224000Y-86896895D01*
X142228181Y-86854438D01*
X142238774Y-86819519D01*
X142255976Y-86787337D01*
X142279127Y-86759127D01*
X142307337Y-86735976D01*
X142339519Y-86718774D01*
X142374438Y-86708181D01*
X142416895Y-86704000D01*
X143558105Y-86704000D01*
X143600562Y-86708181D01*
G37*
G36*
X140625562Y-86708181D02*
G01*
X140660481Y-86718774D01*
X140692663Y-86735976D01*
X140720873Y-86759127D01*
X140744024Y-86787337D01*
X140761226Y-86819519D01*
X140771819Y-86854438D01*
X140776000Y-86896895D01*
X140776000Y-88363105D01*
X140771819Y-88405562D01*
X140761226Y-88440481D01*
X140744024Y-88472663D01*
X140720873Y-88500873D01*
X140692663Y-88524024D01*
X140660481Y-88541226D01*
X140625562Y-88551819D01*
X140583105Y-88556000D01*
X139441895Y-88556000D01*
X139399438Y-88551819D01*
X139364519Y-88541226D01*
X139332337Y-88524024D01*
X139304127Y-88500873D01*
X139280976Y-88472663D01*
X139263774Y-88440481D01*
X139253181Y-88405562D01*
X139249000Y-88363105D01*
X139249000Y-86896895D01*
X139253181Y-86854438D01*
X139263774Y-86819519D01*
X139280976Y-86787337D01*
X139304127Y-86759127D01*
X139332337Y-86735976D01*
X139364519Y-86718774D01*
X139399438Y-86708181D01*
X139441895Y-86704000D01*
X140583105Y-86704000D01*
X140625562Y-86708181D01*
G37*
G36*
X137565295Y-85160323D02*
G01*
X137572310Y-85162451D01*
X137578776Y-85165908D01*
X137584442Y-85170558D01*
X137589092Y-85176224D01*
X137592549Y-85182690D01*
X137594677Y-85189705D01*
X137596000Y-85203140D01*
X137596000Y-85516860D01*
X137594677Y-85530295D01*
X137592549Y-85537309D01*
X137585190Y-85551077D01*
X137575813Y-85573716D01*
X137571033Y-85597749D01*
X137571033Y-85622253D01*
X137575814Y-85646286D01*
X137585190Y-85668923D01*
X137592549Y-85682691D01*
X137594677Y-85689705D01*
X137596000Y-85703140D01*
X137596000Y-86016860D01*
X137594677Y-86030295D01*
X137592549Y-86037309D01*
X137585190Y-86051077D01*
X137575813Y-86073716D01*
X137571033Y-86097749D01*
X137571033Y-86122253D01*
X137575814Y-86146286D01*
X137585190Y-86168923D01*
X137592549Y-86182691D01*
X137594677Y-86189705D01*
X137596000Y-86203140D01*
X137596000Y-86516860D01*
X137594677Y-86530295D01*
X137592549Y-86537309D01*
X137585190Y-86551077D01*
X137575813Y-86573716D01*
X137571033Y-86597749D01*
X137571033Y-86622253D01*
X137575814Y-86646286D01*
X137585190Y-86668923D01*
X137592549Y-86682691D01*
X137594677Y-86689705D01*
X137596000Y-86703140D01*
X137596000Y-87016859D01*
X137594677Y-87030295D01*
X137592549Y-87037309D01*
X137585190Y-87051077D01*
X137575813Y-87073716D01*
X137571033Y-87097749D01*
X137571033Y-87122253D01*
X137575814Y-87146286D01*
X137585190Y-87168923D01*
X137592549Y-87182691D01*
X137594677Y-87189705D01*
X137596000Y-87203140D01*
X137596000Y-87516860D01*
X137594677Y-87530295D01*
X137592549Y-87537310D01*
X137589092Y-87543776D01*
X137584442Y-87549442D01*
X137578776Y-87554092D01*
X137572310Y-87557549D01*
X137565295Y-87559677D01*
X137551860Y-87561000D01*
X136088140Y-87561000D01*
X136074705Y-87559677D01*
X136067690Y-87557549D01*
X136061224Y-87554092D01*
X136055558Y-87549442D01*
X136050908Y-87543776D01*
X136047451Y-87537310D01*
X136045323Y-87530295D01*
X136044000Y-87516860D01*
X136044000Y-87203140D01*
X136045323Y-87189705D01*
X136047451Y-87182691D01*
X136054810Y-87168923D01*
X136064187Y-87146284D01*
X136068967Y-87122251D01*
X136068967Y-87097747D01*
X136064186Y-87073714D01*
X136054810Y-87051077D01*
X136047451Y-87037309D01*
X136045323Y-87030295D01*
X136044000Y-87016859D01*
X136044000Y-86703140D01*
X136045323Y-86689705D01*
X136047451Y-86682691D01*
X136054810Y-86668923D01*
X136064187Y-86646284D01*
X136068967Y-86622251D01*
X136068967Y-86597747D01*
X136064186Y-86573714D01*
X136054810Y-86551077D01*
X136047451Y-86537309D01*
X136045323Y-86530295D01*
X136044000Y-86516860D01*
X136044000Y-86203140D01*
X136045323Y-86189705D01*
X136047451Y-86182691D01*
X136054810Y-86168923D01*
X136064187Y-86146284D01*
X136068967Y-86122251D01*
X136068967Y-86097747D01*
X136064186Y-86073714D01*
X136054810Y-86051077D01*
X136047451Y-86037309D01*
X136045323Y-86030295D01*
X136044000Y-86016860D01*
X136044000Y-85703140D01*
X136045323Y-85689705D01*
X136047451Y-85682691D01*
X136054810Y-85668923D01*
X136064187Y-85646284D01*
X136068967Y-85622251D01*
X136068967Y-85597747D01*
X136064186Y-85573714D01*
X136054810Y-85551077D01*
X136047451Y-85537309D01*
X136045323Y-85530295D01*
X136044000Y-85516860D01*
X136044000Y-85203140D01*
X136045323Y-85189705D01*
X136047451Y-85182690D01*
X136050908Y-85176224D01*
X136055558Y-85170558D01*
X136061224Y-85165908D01*
X136067690Y-85162451D01*
X136074705Y-85160323D01*
X136088140Y-85159000D01*
X137551860Y-85159000D01*
X137565295Y-85160323D01*
G37*
G36*
X133165295Y-85160323D02*
G01*
X133172310Y-85162451D01*
X133178776Y-85165908D01*
X133184442Y-85170558D01*
X133189092Y-85176224D01*
X133192549Y-85182690D01*
X133194677Y-85189705D01*
X133196000Y-85203140D01*
X133196000Y-85516860D01*
X133194677Y-85530295D01*
X133192549Y-85537309D01*
X133185190Y-85551077D01*
X133175813Y-85573716D01*
X133171033Y-85597749D01*
X133171033Y-85622253D01*
X133175814Y-85646286D01*
X133185190Y-85668923D01*
X133192549Y-85682691D01*
X133194677Y-85689705D01*
X133196000Y-85703140D01*
X133196000Y-86016860D01*
X133194677Y-86030295D01*
X133192549Y-86037309D01*
X133185190Y-86051077D01*
X133175813Y-86073716D01*
X133171033Y-86097749D01*
X133171033Y-86122253D01*
X133175814Y-86146286D01*
X133185190Y-86168923D01*
X133192549Y-86182691D01*
X133194677Y-86189705D01*
X133196000Y-86203140D01*
X133196000Y-86516860D01*
X133194677Y-86530295D01*
X133192549Y-86537309D01*
X133185190Y-86551077D01*
X133175813Y-86573716D01*
X133171033Y-86597749D01*
X133171033Y-86622253D01*
X133175814Y-86646286D01*
X133185190Y-86668923D01*
X133192549Y-86682691D01*
X133194677Y-86689705D01*
X133196000Y-86703140D01*
X133196000Y-87016859D01*
X133194677Y-87030295D01*
X133192549Y-87037309D01*
X133185190Y-87051077D01*
X133175813Y-87073716D01*
X133171033Y-87097749D01*
X133171033Y-87122253D01*
X133175814Y-87146286D01*
X133185190Y-87168923D01*
X133192549Y-87182691D01*
X133194677Y-87189705D01*
X133196000Y-87203140D01*
X133196000Y-87516860D01*
X133194677Y-87530295D01*
X133192549Y-87537310D01*
X133189092Y-87543776D01*
X133184442Y-87549442D01*
X133178776Y-87554092D01*
X133172310Y-87557549D01*
X133165295Y-87559677D01*
X133151860Y-87561000D01*
X131688140Y-87561000D01*
X131674705Y-87559677D01*
X131667690Y-87557549D01*
X131661224Y-87554092D01*
X131655558Y-87549442D01*
X131650908Y-87543776D01*
X131647451Y-87537310D01*
X131645323Y-87530295D01*
X131644000Y-87516860D01*
X131644000Y-87203140D01*
X131645323Y-87189705D01*
X131647451Y-87182691D01*
X131654810Y-87168923D01*
X131664187Y-87146284D01*
X131668967Y-87122251D01*
X131668967Y-87097747D01*
X131664186Y-87073714D01*
X131654810Y-87051077D01*
X131647451Y-87037309D01*
X131645323Y-87030295D01*
X131644000Y-87016859D01*
X131644000Y-86703140D01*
X131645323Y-86689705D01*
X131647451Y-86682691D01*
X131654810Y-86668923D01*
X131664187Y-86646284D01*
X131668967Y-86622251D01*
X131668967Y-86597747D01*
X131664186Y-86573714D01*
X131654810Y-86551077D01*
X131647451Y-86537309D01*
X131645323Y-86530295D01*
X131644000Y-86516860D01*
X131644000Y-86203140D01*
X131645323Y-86189705D01*
X131647451Y-86182691D01*
X131654810Y-86168923D01*
X131664187Y-86146284D01*
X131668967Y-86122251D01*
X131668967Y-86097747D01*
X131664186Y-86073714D01*
X131654810Y-86051077D01*
X131647451Y-86037309D01*
X131645323Y-86030295D01*
X131644000Y-86016860D01*
X131644000Y-85703140D01*
X131645323Y-85689705D01*
X131647451Y-85682691D01*
X131654810Y-85668923D01*
X131664187Y-85646284D01*
X131668967Y-85622251D01*
X131668967Y-85597747D01*
X131664186Y-85573714D01*
X131654810Y-85551077D01*
X131647451Y-85537309D01*
X131645323Y-85530295D01*
X131644000Y-85516860D01*
X131644000Y-85203140D01*
X131645323Y-85189705D01*
X131647451Y-85182690D01*
X131650908Y-85176224D01*
X131655558Y-85170558D01*
X131661224Y-85165908D01*
X131667690Y-85162451D01*
X131674705Y-85160323D01*
X131688140Y-85159000D01*
X133151860Y-85159000D01*
X133165295Y-85160323D01*
G37*
G36*
X126588674Y-85903465D02*
G01*
X126626367Y-85914899D01*
X126661103Y-85933466D01*
X126691548Y-85958452D01*
X126716534Y-85988897D01*
X126735101Y-86023633D01*
X126746535Y-86061326D01*
X126751000Y-86106661D01*
X126751000Y-86943339D01*
X126746535Y-86988674D01*
X126735101Y-87026367D01*
X126716534Y-87061103D01*
X126691548Y-87091548D01*
X126661103Y-87116534D01*
X126626367Y-87135101D01*
X126588674Y-87146535D01*
X126543339Y-87151000D01*
X125456661Y-87151000D01*
X125411326Y-87146535D01*
X125373633Y-87135101D01*
X125338897Y-87116534D01*
X125308452Y-87091548D01*
X125283466Y-87061103D01*
X125264899Y-87026367D01*
X125253465Y-86988674D01*
X125249000Y-86943339D01*
X125249000Y-86106661D01*
X125253465Y-86061326D01*
X125264899Y-86023633D01*
X125283466Y-85988897D01*
X125308452Y-85958452D01*
X125338897Y-85933466D01*
X125373633Y-85914899D01*
X125411326Y-85903465D01*
X125456661Y-85899000D01*
X126543339Y-85899000D01*
X126588674Y-85903465D01*
G37*
G36*
X129088674Y-85903465D02*
G01*
X129126367Y-85914899D01*
X129161103Y-85933466D01*
X129191548Y-85958452D01*
X129216534Y-85988897D01*
X129235101Y-86023633D01*
X129246535Y-86061326D01*
X129251000Y-86106661D01*
X129251000Y-86943339D01*
X129246535Y-86988674D01*
X129235101Y-87026367D01*
X129216534Y-87061103D01*
X129191548Y-87091548D01*
X129161103Y-87116534D01*
X129126367Y-87135101D01*
X129088674Y-87146535D01*
X129043339Y-87151000D01*
X127956661Y-87151000D01*
X127911326Y-87146535D01*
X127873633Y-87135101D01*
X127838897Y-87116534D01*
X127808452Y-87091548D01*
X127783466Y-87061103D01*
X127764899Y-87026367D01*
X127753465Y-86988674D01*
X127749000Y-86943339D01*
X127749000Y-86106661D01*
X127753465Y-86061326D01*
X127764899Y-86023633D01*
X127783466Y-85988897D01*
X127808452Y-85958452D01*
X127838897Y-85933466D01*
X127873633Y-85914899D01*
X127911326Y-85903465D01*
X127956661Y-85899000D01*
X129043339Y-85899000D01*
X129088674Y-85903465D01*
G37*
G36*
X141389499Y-84178445D02*
G01*
X141426995Y-84189820D01*
X141461554Y-84208292D01*
X141491847Y-84233153D01*
X141516708Y-84263446D01*
X141535180Y-84298005D01*
X141546555Y-84335501D01*
X141551000Y-84380638D01*
X141551000Y-85019362D01*
X141546555Y-85064499D01*
X141535180Y-85101995D01*
X141516708Y-85136554D01*
X141491847Y-85166847D01*
X141461554Y-85191708D01*
X141426995Y-85210180D01*
X141389499Y-85221555D01*
X141344362Y-85226000D01*
X140605638Y-85226000D01*
X140560501Y-85221555D01*
X140523005Y-85210180D01*
X140488446Y-85191708D01*
X140458153Y-85166847D01*
X140433292Y-85136554D01*
X140414820Y-85101995D01*
X140403445Y-85064499D01*
X140399000Y-85019362D01*
X140399000Y-84380638D01*
X140403445Y-84335501D01*
X140414820Y-84298005D01*
X140433292Y-84263446D01*
X140458153Y-84233153D01*
X140488446Y-84208292D01*
X140523005Y-84189820D01*
X140560501Y-84178445D01*
X140605638Y-84174000D01*
X141344362Y-84174000D01*
X141389499Y-84178445D01*
G37*
G36*
X139639499Y-84178445D02*
G01*
X139676995Y-84189820D01*
X139711554Y-84208292D01*
X139741847Y-84233153D01*
X139766708Y-84263446D01*
X139785180Y-84298005D01*
X139796555Y-84335501D01*
X139801000Y-84380638D01*
X139801000Y-85019362D01*
X139796555Y-85064499D01*
X139785180Y-85101995D01*
X139766708Y-85136554D01*
X139741847Y-85166847D01*
X139711554Y-85191708D01*
X139676995Y-85210180D01*
X139639499Y-85221555D01*
X139594362Y-85226000D01*
X138855638Y-85226000D01*
X138810501Y-85221555D01*
X138773005Y-85210180D01*
X138738446Y-85191708D01*
X138708153Y-85166847D01*
X138683292Y-85136554D01*
X138664820Y-85101995D01*
X138653445Y-85064499D01*
X138649000Y-85019362D01*
X138649000Y-84380638D01*
X138653445Y-84335501D01*
X138664820Y-84298005D01*
X138683292Y-84263446D01*
X138708153Y-84233153D01*
X138738446Y-84208292D01*
X138773005Y-84189820D01*
X138810501Y-84178445D01*
X138855638Y-84174000D01*
X139594362Y-84174000D01*
X139639499Y-84178445D01*
G37*
G36*
X129088674Y-83853465D02*
G01*
X129126367Y-83864899D01*
X129161103Y-83883466D01*
X129191548Y-83908452D01*
X129216534Y-83938897D01*
X129235101Y-83973633D01*
X129246535Y-84011326D01*
X129251000Y-84056661D01*
X129251000Y-84893339D01*
X129246535Y-84938674D01*
X129235101Y-84976367D01*
X129216534Y-85011103D01*
X129191548Y-85041548D01*
X129161103Y-85066534D01*
X129126367Y-85085101D01*
X129088674Y-85096535D01*
X129043339Y-85101000D01*
X127956661Y-85101000D01*
X127911326Y-85096535D01*
X127873633Y-85085101D01*
X127838897Y-85066534D01*
X127808452Y-85041548D01*
X127783466Y-85011103D01*
X127764899Y-84976367D01*
X127753465Y-84938674D01*
X127749000Y-84893339D01*
X127749000Y-84056661D01*
X127753465Y-84011326D01*
X127764899Y-83973633D01*
X127783466Y-83938897D01*
X127808452Y-83908452D01*
X127838897Y-83883466D01*
X127873633Y-83864899D01*
X127911326Y-83853465D01*
X127956661Y-83849000D01*
X129043339Y-83849000D01*
X129088674Y-83853465D01*
G37*
G36*
X126588674Y-83853465D02*
G01*
X126626367Y-83864899D01*
X126661103Y-83883466D01*
X126691548Y-83908452D01*
X126716534Y-83938897D01*
X126735101Y-83973633D01*
X126746535Y-84011326D01*
X126751000Y-84056661D01*
X126751000Y-84893339D01*
X126746535Y-84938674D01*
X126735101Y-84976367D01*
X126716534Y-85011103D01*
X126691548Y-85041548D01*
X126661103Y-85066534D01*
X126626367Y-85085101D01*
X126588674Y-85096535D01*
X126543339Y-85101000D01*
X125456661Y-85101000D01*
X125411326Y-85096535D01*
X125373633Y-85085101D01*
X125338897Y-85066534D01*
X125308452Y-85041548D01*
X125283466Y-85011103D01*
X125264899Y-84976367D01*
X125253465Y-84938674D01*
X125249000Y-84893339D01*
X125249000Y-84056661D01*
X125253465Y-84011326D01*
X125264899Y-83973633D01*
X125283466Y-83938897D01*
X125308452Y-83908452D01*
X125338897Y-83883466D01*
X125373633Y-83864899D01*
X125411326Y-83853465D01*
X125456661Y-83849000D01*
X126543339Y-83849000D01*
X126588674Y-83853465D01*
G37*
G36*
X141088674Y-81903465D02*
G01*
X141126367Y-81914899D01*
X141161103Y-81933466D01*
X141191548Y-81958452D01*
X141216534Y-81988897D01*
X141235101Y-82023633D01*
X141246535Y-82061326D01*
X141251000Y-82106661D01*
X141251000Y-82943339D01*
X141246535Y-82988674D01*
X141235101Y-83026367D01*
X141216534Y-83061103D01*
X141191548Y-83091548D01*
X141161103Y-83116534D01*
X141126367Y-83135101D01*
X141088674Y-83146535D01*
X141043339Y-83151000D01*
X139956661Y-83151000D01*
X139911326Y-83146535D01*
X139873633Y-83135101D01*
X139838897Y-83116534D01*
X139808452Y-83091548D01*
X139783466Y-83061103D01*
X139764899Y-83026367D01*
X139753465Y-82988674D01*
X139749000Y-82943339D01*
X139749000Y-82106661D01*
X139753465Y-82061326D01*
X139764899Y-82023633D01*
X139783466Y-81988897D01*
X139808452Y-81958452D01*
X139838897Y-81933466D01*
X139873633Y-81914899D01*
X139911326Y-81903465D01*
X139956661Y-81899000D01*
X141043339Y-81899000D01*
X141088674Y-81903465D01*
G37*
G36*
X143588674Y-81903465D02*
G01*
X143626367Y-81914899D01*
X143661103Y-81933466D01*
X143691548Y-81958452D01*
X143716534Y-81988897D01*
X143735101Y-82023633D01*
X143746535Y-82061326D01*
X143751000Y-82106661D01*
X143751000Y-82943339D01*
X143746535Y-82988674D01*
X143735101Y-83026367D01*
X143716534Y-83061103D01*
X143691548Y-83091548D01*
X143661103Y-83116534D01*
X143626367Y-83135101D01*
X143588674Y-83146535D01*
X143543339Y-83151000D01*
X142456661Y-83151000D01*
X142411326Y-83146535D01*
X142373633Y-83135101D01*
X142338897Y-83116534D01*
X142308452Y-83091548D01*
X142283466Y-83061103D01*
X142264899Y-83026367D01*
X142253465Y-82988674D01*
X142249000Y-82943339D01*
X142249000Y-82106661D01*
X142253465Y-82061326D01*
X142264899Y-82023633D01*
X142283466Y-81988897D01*
X142308452Y-81958452D01*
X142338897Y-81933466D01*
X142373633Y-81914899D01*
X142411326Y-81903465D01*
X142456661Y-81899000D01*
X143543339Y-81899000D01*
X143588674Y-81903465D01*
G37*
G36*
X149375256Y-79491298D02*
G01*
X149481579Y-79512447D01*
X149782042Y-79636903D01*
X150052451Y-79817585D01*
X150282415Y-80047549D01*
X150282416Y-80047551D01*
X150463098Y-80317960D01*
X150499550Y-80405963D01*
X150587553Y-80618421D01*
X150604903Y-80705646D01*
X150651000Y-80937389D01*
X150651000Y-81262611D01*
X150632090Y-81357676D01*
X150587553Y-81581579D01*
X150463097Y-81882042D01*
X150282415Y-82152451D01*
X150052451Y-82382415D01*
X149782042Y-82563097D01*
X149481579Y-82687553D01*
X149375256Y-82708702D01*
X149162611Y-82751000D01*
X148837389Y-82751000D01*
X148624744Y-82708702D01*
X148518421Y-82687553D01*
X148217958Y-82563097D01*
X147947549Y-82382415D01*
X147717585Y-82152451D01*
X147536903Y-81882042D01*
X147412447Y-81581579D01*
X147367910Y-81357676D01*
X147349000Y-81262611D01*
X147349000Y-80937389D01*
X147395097Y-80705646D01*
X147412447Y-80618421D01*
X147500450Y-80405963D01*
X147536902Y-80317960D01*
X147717584Y-80047551D01*
X147717585Y-80047549D01*
X147947549Y-79817585D01*
X148217958Y-79636903D01*
X148518421Y-79512447D01*
X148624744Y-79491298D01*
X148837389Y-79449000D01*
X149162611Y-79449000D01*
X149375256Y-79491298D01*
G37*
G36*
X116375256Y-79491298D02*
G01*
X116481579Y-79512447D01*
X116782042Y-79636903D01*
X117052451Y-79817585D01*
X117282415Y-80047549D01*
X117282416Y-80047551D01*
X117463098Y-80317960D01*
X117499550Y-80405963D01*
X117587553Y-80618421D01*
X117604903Y-80705646D01*
X117651000Y-80937389D01*
X117651000Y-81262611D01*
X117632090Y-81357676D01*
X117587553Y-81581579D01*
X117463097Y-81882042D01*
X117282415Y-82152451D01*
X117052451Y-82382415D01*
X116782042Y-82563097D01*
X116481579Y-82687553D01*
X116375256Y-82708702D01*
X116162611Y-82751000D01*
X115837389Y-82751000D01*
X115624744Y-82708702D01*
X115518421Y-82687553D01*
X115217958Y-82563097D01*
X114947549Y-82382415D01*
X114717585Y-82152451D01*
X114536903Y-81882042D01*
X114412447Y-81581579D01*
X114367910Y-81357676D01*
X114349000Y-81262611D01*
X114349000Y-80937389D01*
X114395097Y-80705646D01*
X114412447Y-80618421D01*
X114500450Y-80405963D01*
X114536902Y-80317960D01*
X114717584Y-80047551D01*
X114717585Y-80047549D01*
X114947549Y-79817585D01*
X115217958Y-79636903D01*
X115518421Y-79512447D01*
X115624744Y-79491298D01*
X115837389Y-79449000D01*
X116162611Y-79449000D01*
X116375256Y-79491298D01*
G37*
G36*
X123781938Y-81641716D02*
G01*
X123802557Y-81647971D01*
X123821553Y-81658124D01*
X123838208Y-81671792D01*
X123851876Y-81688447D01*
X123862029Y-81707443D01*
X123868284Y-81728062D01*
X123871000Y-81755640D01*
X123871000Y-82214360D01*
X123868284Y-82241938D01*
X123862029Y-82262557D01*
X123851876Y-82281553D01*
X123838208Y-82298208D01*
X123821553Y-82311876D01*
X123802557Y-82322029D01*
X123781938Y-82328284D01*
X123754360Y-82331000D01*
X123245640Y-82331000D01*
X123218062Y-82328284D01*
X123197443Y-82322029D01*
X123178447Y-82311876D01*
X123161792Y-82298208D01*
X123148124Y-82281553D01*
X123137971Y-82262557D01*
X123131716Y-82241938D01*
X123129000Y-82214360D01*
X123129000Y-81755640D01*
X123131716Y-81728062D01*
X123137971Y-81707443D01*
X123148124Y-81688447D01*
X123161792Y-81671792D01*
X123178447Y-81658124D01*
X123197443Y-81647971D01*
X123218062Y-81641716D01*
X123245640Y-81639000D01*
X123754360Y-81639000D01*
X123781938Y-81641716D01*
G37*
G36*
X134733512Y-80383927D02*
G01*
X134882812Y-80413624D01*
X135046784Y-80481544D01*
X135194354Y-80580147D01*
X135319853Y-80705646D01*
X135418456Y-80853216D01*
X135486376Y-81017188D01*
X135521000Y-81191259D01*
X135521000Y-81368741D01*
X135486376Y-81542812D01*
X135418456Y-81706784D01*
X135319853Y-81854354D01*
X135194354Y-81979853D01*
X135046784Y-82078456D01*
X134882812Y-82146376D01*
X134733512Y-82176073D01*
X134708742Y-82181000D01*
X134531258Y-82181000D01*
X134506488Y-82176073D01*
X134357188Y-82146376D01*
X134193216Y-82078456D01*
X134045646Y-81979853D01*
X133920147Y-81854354D01*
X133821544Y-81706784D01*
X133753624Y-81542812D01*
X133719000Y-81368741D01*
X133719000Y-81191259D01*
X133753624Y-81017188D01*
X133821544Y-80853216D01*
X133920147Y-80705646D01*
X134045646Y-80580147D01*
X134193216Y-80481544D01*
X134357188Y-80413624D01*
X134506488Y-80383927D01*
X134531258Y-80379000D01*
X134708742Y-80379000D01*
X134733512Y-80383927D01*
G37*
G36*
X132193512Y-80383927D02*
G01*
X132342812Y-80413624D01*
X132506784Y-80481544D01*
X132654354Y-80580147D01*
X132779853Y-80705646D01*
X132878456Y-80853216D01*
X132946376Y-81017188D01*
X132981000Y-81191259D01*
X132981000Y-81368741D01*
X132946376Y-81542812D01*
X132878456Y-81706784D01*
X132779853Y-81854354D01*
X132654354Y-81979853D01*
X132506784Y-82078456D01*
X132342812Y-82146376D01*
X132193512Y-82176073D01*
X132168742Y-82181000D01*
X131991258Y-82181000D01*
X131966488Y-82176073D01*
X131817188Y-82146376D01*
X131653216Y-82078456D01*
X131505646Y-81979853D01*
X131380147Y-81854354D01*
X131281544Y-81706784D01*
X131213624Y-81542812D01*
X131179000Y-81368741D01*
X131179000Y-81191259D01*
X131213624Y-81017188D01*
X131281544Y-80853216D01*
X131380147Y-80705646D01*
X131505646Y-80580147D01*
X131653216Y-80481544D01*
X131817188Y-80413624D01*
X131966488Y-80383927D01*
X131991258Y-80379000D01*
X132168742Y-80379000D01*
X132193512Y-80383927D01*
G37*
G36*
X129653512Y-80383927D02*
G01*
X129802812Y-80413624D01*
X129966784Y-80481544D01*
X130114354Y-80580147D01*
X130239853Y-80705646D01*
X130338456Y-80853216D01*
X130406376Y-81017188D01*
X130441000Y-81191259D01*
X130441000Y-81368741D01*
X130406376Y-81542812D01*
X130338456Y-81706784D01*
X130239853Y-81854354D01*
X130114354Y-81979853D01*
X129966784Y-82078456D01*
X129802812Y-82146376D01*
X129653512Y-82176073D01*
X129628742Y-82181000D01*
X129451258Y-82181000D01*
X129426488Y-82176073D01*
X129277188Y-82146376D01*
X129113216Y-82078456D01*
X128965646Y-81979853D01*
X128840147Y-81854354D01*
X128741544Y-81706784D01*
X128673624Y-81542812D01*
X128639000Y-81368741D01*
X128639000Y-81191259D01*
X128673624Y-81017188D01*
X128741544Y-80853216D01*
X128840147Y-80705646D01*
X128965646Y-80580147D01*
X129113216Y-80481544D01*
X129277188Y-80413624D01*
X129426488Y-80383927D01*
X129451258Y-80379000D01*
X129628742Y-80379000D01*
X129653512Y-80383927D01*
G37*
G36*
X127901000Y-82181000D02*
G01*
X126099000Y-82181000D01*
X126099000Y-80379000D01*
X127901000Y-80379000D01*
X127901000Y-82181000D01*
G37*
G36*
X137273512Y-80383927D02*
G01*
X137422812Y-80413624D01*
X137586784Y-80481544D01*
X137734354Y-80580147D01*
X137859853Y-80705646D01*
X137958456Y-80853216D01*
X138026376Y-81017188D01*
X138061000Y-81191259D01*
X138061000Y-81368741D01*
X138026376Y-81542812D01*
X137958456Y-81706784D01*
X137859853Y-81854354D01*
X137734354Y-81979853D01*
X137586784Y-82078456D01*
X137422812Y-82146376D01*
X137273512Y-82176073D01*
X137248742Y-82181000D01*
X137071258Y-82181000D01*
X137046488Y-82176073D01*
X136897188Y-82146376D01*
X136733216Y-82078456D01*
X136585646Y-81979853D01*
X136460147Y-81854354D01*
X136361544Y-81706784D01*
X136293624Y-81542812D01*
X136259000Y-81368741D01*
X136259000Y-81191259D01*
X136293624Y-81017188D01*
X136361544Y-80853216D01*
X136460147Y-80705646D01*
X136585646Y-80580147D01*
X136733216Y-80481544D01*
X136897188Y-80413624D01*
X137046488Y-80383927D01*
X137071258Y-80379000D01*
X137248742Y-80379000D01*
X137273512Y-80383927D01*
G37*
G36*
X123781938Y-80671716D02*
G01*
X123802557Y-80677971D01*
X123821553Y-80688124D01*
X123838208Y-80701792D01*
X123851876Y-80718447D01*
X123862029Y-80737443D01*
X123868284Y-80758062D01*
X123871000Y-80785640D01*
X123871000Y-81244360D01*
X123868284Y-81271938D01*
X123862029Y-81292557D01*
X123851876Y-81311553D01*
X123838208Y-81328208D01*
X123821553Y-81341876D01*
X123802557Y-81352029D01*
X123781938Y-81358284D01*
X123754360Y-81361000D01*
X123245640Y-81361000D01*
X123218062Y-81358284D01*
X123197443Y-81352029D01*
X123178447Y-81341876D01*
X123161792Y-81328208D01*
X123148124Y-81311553D01*
X123137971Y-81292557D01*
X123131716Y-81271938D01*
X123129000Y-81244360D01*
X123129000Y-80785640D01*
X123131716Y-80758062D01*
X123137971Y-80737443D01*
X123148124Y-80718447D01*
X123161792Y-80701792D01*
X123178447Y-80688124D01*
X123197443Y-80677971D01*
X123218062Y-80671716D01*
X123245640Y-80669000D01*
X123754360Y-80669000D01*
X123781938Y-80671716D01*
G37*
G36*
X141088674Y-79853465D02*
G01*
X141126367Y-79864899D01*
X141161103Y-79883466D01*
X141191548Y-79908452D01*
X141216534Y-79938897D01*
X141235101Y-79973633D01*
X141246535Y-80011326D01*
X141251000Y-80056661D01*
X141251000Y-80893339D01*
X141246535Y-80938674D01*
X141235101Y-80976367D01*
X141216534Y-81011103D01*
X141191548Y-81041548D01*
X141161103Y-81066534D01*
X141126367Y-81085101D01*
X141088674Y-81096535D01*
X141043339Y-81101000D01*
X139956661Y-81101000D01*
X139911326Y-81096535D01*
X139873633Y-81085101D01*
X139838897Y-81066534D01*
X139808452Y-81041548D01*
X139783466Y-81011103D01*
X139764899Y-80976367D01*
X139753465Y-80938674D01*
X139749000Y-80893339D01*
X139749000Y-80056661D01*
X139753465Y-80011326D01*
X139764899Y-79973633D01*
X139783466Y-79938897D01*
X139808452Y-79908452D01*
X139838897Y-79883466D01*
X139873633Y-79864899D01*
X139911326Y-79853465D01*
X139956661Y-79849000D01*
X141043339Y-79849000D01*
X141088674Y-79853465D01*
G37*
G36*
X143588674Y-79853465D02*
G01*
X143626367Y-79864899D01*
X143661103Y-79883466D01*
X143691548Y-79908452D01*
X143716534Y-79938897D01*
X143735101Y-79973633D01*
X143746535Y-80011326D01*
X143751000Y-80056661D01*
X143751000Y-80893339D01*
X143746535Y-80938674D01*
X143735101Y-80976367D01*
X143716534Y-81011103D01*
X143691548Y-81041548D01*
X143661103Y-81066534D01*
X143626367Y-81085101D01*
X143588674Y-81096535D01*
X143543339Y-81101000D01*
X142456661Y-81101000D01*
X142411326Y-81096535D01*
X142373633Y-81085101D01*
X142338897Y-81066534D01*
X142308452Y-81041548D01*
X142283466Y-81011103D01*
X142264899Y-80976367D01*
X142253465Y-80938674D01*
X142249000Y-80893339D01*
X142249000Y-80056661D01*
X142253465Y-80011326D01*
X142264899Y-79973633D01*
X142283466Y-79938897D01*
X142308452Y-79908452D01*
X142338897Y-79883466D01*
X142373633Y-79864899D01*
X142411326Y-79853465D01*
X142456661Y-79849000D01*
X143543339Y-79849000D01*
X143588674Y-79853465D01*
G37*
M02*
