%TF.GenerationSoftware,KiCad,Pcbnew,5.1.12-84ad8e8a86~92~ubuntu20.04.1*%
%TF.CreationDate,2021-11-18T20:56:59-07:00*%
%TF.ProjectId,macro-pad,6d616372-6f2d-4706-9164-2e6b69636164,rev?*%
%TF.SameCoordinates,Original*%
%TF.FileFunction,Copper,L1,Top*%
%TF.FilePolarity,Positive*%
%FSLAX46Y46*%
G04 Gerber Fmt 4.6, Leading zero omitted, Abs format (unit mm)*
G04 Created by KiCad (PCBNEW 5.1.12-84ad8e8a86~92~ubuntu20.04.1) date 2021-11-18 20:56:59*
%MOMM*%
%LPD*%
G01*
G04 APERTURE LIST*
%TA.AperFunction,ComponentPad*%
%ADD10C,1.700000*%
%TD*%
%TA.AperFunction,ComponentPad*%
%ADD11O,1.700000X1.700000*%
%TD*%
%TA.AperFunction,ComponentPad*%
%ADD12R,1.700000X1.700000*%
%TD*%
%TA.AperFunction,Conductor*%
%ADD13C,0.250000*%
%TD*%
G04 APERTURE END LIST*
D10*
%TO.P,SW6,1*%
%TO.N,GND*%
X136000000Y-68000000D03*
%TO.P,SW6,2*%
%TO.N,Net-(J1-Pad6)*%
X142500000Y-68000000D03*
%TO.P,SW6,3*%
%TO.N,Net-(SW6-Pad3)*%
X136000000Y-72500000D03*
%TO.P,SW6,4*%
%TO.N,Net-(SW6-Pad4)*%
X142500000Y-72500000D03*
%TD*%
%TO.P,SW5,1*%
%TO.N,GND*%
X121000000Y-68000000D03*
%TO.P,SW5,2*%
%TO.N,Net-(J1-Pad5)*%
X127500000Y-68000000D03*
%TO.P,SW5,3*%
%TO.N,Net-(SW5-Pad3)*%
X121000000Y-72500000D03*
%TO.P,SW5,4*%
%TO.N,Net-(SW5-Pad4)*%
X127500000Y-72500000D03*
%TD*%
%TO.P,SW4,1*%
%TO.N,GND*%
X106000000Y-68000000D03*
%TO.P,SW4,2*%
%TO.N,Net-(J1-Pad4)*%
X112500000Y-68000000D03*
%TO.P,SW4,3*%
%TO.N,Net-(SW4-Pad3)*%
X106000000Y-72500000D03*
%TO.P,SW4,4*%
%TO.N,Net-(SW4-Pad4)*%
X112500000Y-72500000D03*
%TD*%
%TO.P,SW3,1*%
%TO.N,GND*%
X136000000Y-53000000D03*
%TO.P,SW3,2*%
%TO.N,Net-(J1-Pad3)*%
X142500000Y-53000000D03*
%TO.P,SW3,3*%
%TO.N,Net-(SW3-Pad3)*%
X136000000Y-57500000D03*
%TO.P,SW3,4*%
%TO.N,Net-(SW3-Pad4)*%
X142500000Y-57500000D03*
%TD*%
%TO.P,SW2,1*%
%TO.N,GND*%
X121000000Y-53000000D03*
%TO.P,SW2,2*%
%TO.N,Net-(J1-Pad2)*%
X127500000Y-53000000D03*
%TO.P,SW2,3*%
%TO.N,Net-(SW2-Pad3)*%
X121000000Y-57500000D03*
%TO.P,SW2,4*%
%TO.N,Net-(SW2-Pad4)*%
X127500000Y-57500000D03*
%TD*%
%TO.P,SW1,1*%
%TO.N,GND*%
X105750000Y-53000000D03*
%TO.P,SW1,2*%
%TO.N,Net-(J1-Pad1)*%
X112250000Y-53000000D03*
%TO.P,SW1,3*%
%TO.N,Net-(SW1-Pad3)*%
X105750000Y-57500000D03*
%TO.P,SW1,4*%
%TO.N,Net-(SW1-Pad4)*%
X112250000Y-57500000D03*
%TD*%
D11*
%TO.P,J1,7*%
%TO.N,GND*%
X99000000Y-71240000D03*
%TO.P,J1,6*%
%TO.N,Net-(J1-Pad6)*%
X99000000Y-68700000D03*
%TO.P,J1,5*%
%TO.N,Net-(J1-Pad5)*%
X99000000Y-66160000D03*
%TO.P,J1,4*%
%TO.N,Net-(J1-Pad4)*%
X99000000Y-63620000D03*
%TO.P,J1,3*%
%TO.N,Net-(J1-Pad3)*%
X99000000Y-61080000D03*
%TO.P,J1,2*%
%TO.N,Net-(J1-Pad2)*%
X99000000Y-58540000D03*
D12*
%TO.P,J1,1*%
%TO.N,Net-(J1-Pad1)*%
X99000000Y-56000000D03*
%TD*%
D13*
%TO.N,Net-(J1-Pad6)*%
X140874988Y-69625012D02*
X142500000Y-68000000D01*
X99925012Y-69625012D02*
X140874988Y-69625012D01*
X99000000Y-68700000D02*
X99925012Y-69625012D01*
%TO.N,Net-(J1-Pad5)*%
X126324999Y-69175001D02*
X127500000Y-68000000D01*
X102015001Y-69175001D02*
X126324999Y-69175001D01*
X99000000Y-66160000D02*
X102015001Y-69175001D01*
%TO.N,Net-(J1-Pad4)*%
X108120000Y-63620000D02*
X112500000Y-68000000D01*
X99000000Y-63620000D02*
X108120000Y-63620000D01*
%TO.N,Net-(J1-Pad3)*%
X142239002Y-53000000D02*
X142500000Y-53000000D01*
X134159002Y-61080000D02*
X142239002Y-53000000D01*
X99000000Y-61080000D02*
X134159002Y-61080000D01*
%TO.N,Net-(J1-Pad2)*%
X121110001Y-59389999D02*
X127500000Y-53000000D01*
X99849999Y-59389999D02*
X121110001Y-59389999D01*
X99000000Y-58540000D02*
X99849999Y-59389999D01*
%TO.N,Net-(J1-Pad1)*%
X107489002Y-53000000D02*
X112250000Y-53000000D01*
X104489002Y-56000000D02*
X107489002Y-53000000D01*
X99000000Y-56000000D02*
X104489002Y-56000000D01*
%TD*%
M02*
