%TF.GenerationSoftware,KiCad,Pcbnew,5.1.12-84ad8e8a86~92~ubuntu20.04.1*%
%TF.CreationDate,2021-11-18T20:56:59-07:00*%
%TF.ProjectId,macro-pad,6d616372-6f2d-4706-9164-2e6b69636164,rev?*%
%TF.SameCoordinates,Original*%
%TF.FileFunction,Legend,Top*%
%TF.FilePolarity,Positive*%
%FSLAX46Y46*%
G04 Gerber Fmt 4.6, Leading zero omitted, Abs format (unit mm)*
G04 Created by KiCad (PCBNEW 5.1.12-84ad8e8a86~92~ubuntu20.04.1) date 2021-11-18 20:56:59*
%MOMM*%
%LPD*%
G01*
G04 APERTURE LIST*
%ADD10C,0.150000*%
%ADD11C,0.200000*%
%ADD12C,0.120000*%
G04 APERTURE END LIST*
D10*
X104290476Y-67152380D02*
X104100000Y-67152380D01*
X104004761Y-67200000D01*
X103957142Y-67247619D01*
X103861904Y-67390476D01*
X103814285Y-67580952D01*
X103814285Y-67961904D01*
X103861904Y-68057142D01*
X103909523Y-68104761D01*
X104004761Y-68152380D01*
X104195238Y-68152380D01*
X104290476Y-68104761D01*
X104338095Y-68057142D01*
X104385714Y-67961904D01*
X104385714Y-67723809D01*
X104338095Y-67628571D01*
X104290476Y-67580952D01*
X104195238Y-67533333D01*
X104004761Y-67533333D01*
X103909523Y-67580952D01*
X103861904Y-67628571D01*
X103814285Y-67723809D01*
X119338095Y-67152380D02*
X118861904Y-67152380D01*
X118814285Y-67628571D01*
X118861904Y-67580952D01*
X118957142Y-67533333D01*
X119195238Y-67533333D01*
X119290476Y-67580952D01*
X119338095Y-67628571D01*
X119385714Y-67723809D01*
X119385714Y-67961904D01*
X119338095Y-68057142D01*
X119290476Y-68104761D01*
X119195238Y-68152380D01*
X118957142Y-68152380D01*
X118861904Y-68104761D01*
X118814285Y-68057142D01*
X134290476Y-67485714D02*
X134290476Y-68152380D01*
X134052380Y-67104761D02*
X133814285Y-67819047D01*
X134433333Y-67819047D01*
X133766666Y-51952380D02*
X134385714Y-51952380D01*
X134052380Y-52333333D01*
X134195238Y-52333333D01*
X134290476Y-52380952D01*
X134338095Y-52428571D01*
X134385714Y-52523809D01*
X134385714Y-52761904D01*
X134338095Y-52857142D01*
X134290476Y-52904761D01*
X134195238Y-52952380D01*
X133909523Y-52952380D01*
X133814285Y-52904761D01*
X133766666Y-52857142D01*
X118814285Y-52047619D02*
X118861904Y-52000000D01*
X118957142Y-51952380D01*
X119195238Y-51952380D01*
X119290476Y-52000000D01*
X119338095Y-52047619D01*
X119385714Y-52142857D01*
X119385714Y-52238095D01*
X119338095Y-52380952D01*
X118766666Y-52952380D01*
X119385714Y-52952380D01*
X104185714Y-52952380D02*
X103614285Y-52952380D01*
X103900000Y-52952380D02*
X103900000Y-51952380D01*
X103804761Y-52095238D01*
X103709523Y-52190476D01*
X103614285Y-52238095D01*
X101590476Y-68152380D02*
X101400000Y-68152380D01*
X101304761Y-68200000D01*
X101257142Y-68247619D01*
X101161904Y-68390476D01*
X101114285Y-68580952D01*
X101114285Y-68961904D01*
X101161904Y-69057142D01*
X101209523Y-69104761D01*
X101304761Y-69152380D01*
X101495238Y-69152380D01*
X101590476Y-69104761D01*
X101638095Y-69057142D01*
X101685714Y-68961904D01*
X101685714Y-68723809D01*
X101638095Y-68628571D01*
X101590476Y-68580952D01*
X101495238Y-68533333D01*
X101304761Y-68533333D01*
X101209523Y-68580952D01*
X101161904Y-68628571D01*
X101114285Y-68723809D01*
X101638095Y-65652380D02*
X101161904Y-65652380D01*
X101114285Y-66128571D01*
X101161904Y-66080952D01*
X101257142Y-66033333D01*
X101495238Y-66033333D01*
X101590476Y-66080952D01*
X101638095Y-66128571D01*
X101685714Y-66223809D01*
X101685714Y-66461904D01*
X101638095Y-66557142D01*
X101590476Y-66604761D01*
X101495238Y-66652380D01*
X101257142Y-66652380D01*
X101161904Y-66604761D01*
X101114285Y-66557142D01*
X101590476Y-63385714D02*
X101590476Y-64052380D01*
X101352380Y-63004761D02*
X101114285Y-63719047D01*
X101733333Y-63719047D01*
X101066666Y-60652380D02*
X101685714Y-60652380D01*
X101352380Y-61033333D01*
X101495238Y-61033333D01*
X101590476Y-61080952D01*
X101638095Y-61128571D01*
X101685714Y-61223809D01*
X101685714Y-61461904D01*
X101638095Y-61557142D01*
X101590476Y-61604761D01*
X101495238Y-61652380D01*
X101209523Y-61652380D01*
X101114285Y-61604761D01*
X101066666Y-61557142D01*
X101114285Y-58147619D02*
X101161904Y-58100000D01*
X101257142Y-58052380D01*
X101495238Y-58052380D01*
X101590476Y-58100000D01*
X101638095Y-58147619D01*
X101685714Y-58242857D01*
X101685714Y-58338095D01*
X101638095Y-58480952D01*
X101066666Y-59052380D01*
X101685714Y-59052380D01*
X101785714Y-56452380D02*
X101214285Y-56452380D01*
X101500000Y-56452380D02*
X101500000Y-55452380D01*
X101404761Y-55595238D01*
X101309523Y-55690476D01*
X101214285Y-55738095D01*
D11*
X102423809Y-70300000D02*
X102233333Y-70204761D01*
X101947619Y-70204761D01*
X101661904Y-70300000D01*
X101471428Y-70490476D01*
X101376190Y-70680952D01*
X101280952Y-71061904D01*
X101280952Y-71347619D01*
X101376190Y-71728571D01*
X101471428Y-71919047D01*
X101661904Y-72109523D01*
X101947619Y-72204761D01*
X102138095Y-72204761D01*
X102423809Y-72109523D01*
X102519047Y-72014285D01*
X102519047Y-71347619D01*
X102138095Y-71347619D01*
D12*
%TO.C,SW6*%
X140664214Y-70250000D02*
G75*
G03*
X140664214Y-70250000I-1414214J0D01*
G01*
X136280000Y-73370000D02*
X142220000Y-73370000D01*
X136280000Y-67130000D02*
X142220000Y-67130000D01*
X136130000Y-71590000D02*
X136130000Y-68910000D01*
X142370000Y-68910000D02*
X142370000Y-71590000D01*
%TO.C,SW5*%
X125664214Y-70250000D02*
G75*
G03*
X125664214Y-70250000I-1414214J0D01*
G01*
X121280000Y-73370000D02*
X127220000Y-73370000D01*
X121280000Y-67130000D02*
X127220000Y-67130000D01*
X121130000Y-71590000D02*
X121130000Y-68910000D01*
X127370000Y-68910000D02*
X127370000Y-71590000D01*
%TO.C,SW4*%
X110664214Y-70250000D02*
G75*
G03*
X110664214Y-70250000I-1414214J0D01*
G01*
X106280000Y-73370000D02*
X112220000Y-73370000D01*
X106280000Y-67130000D02*
X112220000Y-67130000D01*
X106130000Y-71590000D02*
X106130000Y-68910000D01*
X112370000Y-68910000D02*
X112370000Y-71590000D01*
%TO.C,SW3*%
X140664214Y-55250000D02*
G75*
G03*
X140664214Y-55250000I-1414214J0D01*
G01*
X136280000Y-58370000D02*
X142220000Y-58370000D01*
X136280000Y-52130000D02*
X142220000Y-52130000D01*
X136130000Y-56590000D02*
X136130000Y-53910000D01*
X142370000Y-53910000D02*
X142370000Y-56590000D01*
%TO.C,SW2*%
X125664214Y-55250000D02*
G75*
G03*
X125664214Y-55250000I-1414214J0D01*
G01*
X121280000Y-58370000D02*
X127220000Y-58370000D01*
X121280000Y-52130000D02*
X127220000Y-52130000D01*
X121130000Y-56590000D02*
X121130000Y-53910000D01*
X127370000Y-53910000D02*
X127370000Y-56590000D01*
%TO.C,SW1*%
X110414214Y-55250000D02*
G75*
G03*
X110414214Y-55250000I-1414214J0D01*
G01*
X106030000Y-58370000D02*
X111970000Y-58370000D01*
X106030000Y-52130000D02*
X111970000Y-52130000D01*
X105880000Y-56590000D02*
X105880000Y-53910000D01*
X112120000Y-53910000D02*
X112120000Y-56590000D01*
%TO.C,J1*%
X97670000Y-72570000D02*
X100330000Y-72570000D01*
X97670000Y-57270000D02*
X97670000Y-72570000D01*
X100330000Y-57270000D02*
X100330000Y-72570000D01*
X97670000Y-57270000D02*
X100330000Y-57270000D01*
X97670000Y-56000000D02*
X97670000Y-54670000D01*
X97670000Y-54670000D02*
X99000000Y-54670000D01*
%TD*%
M02*
