M48
; DRILL file {KiCad 5.1.12-84ad8e8a86~92~ubuntu20.04.1} date Thu 18 Nov 2021 08:57:01 PM MST
; FORMAT={-:-/ absolute / inch / decimal}
; #@! TF.CreationDate,2021-11-18T20:57:01-07:00
; #@! TF.GenerationSoftware,Kicad,Pcbnew,5.1.12-84ad8e8a86~92~ubuntu20.04.1
; #@! TF.FileFunction,Plated,1,2,PTH
FMAT,2
INCH
T1C0.0394
%
G90
G05
T1
X3.8976Y-2.2047
X3.8976Y-2.3047
X3.8976Y-2.4047
X3.8976Y-2.5047
X3.8976Y-2.6047
X3.8976Y-2.7047
X3.8976Y-2.8047
X4.1634Y-2.0866
X4.1634Y-2.2638
X4.1732Y-2.6772
X4.1732Y-2.8543
X4.4193Y-2.0866
X4.4193Y-2.2638
X4.4291Y-2.6772
X4.4291Y-2.8543
X4.7638Y-2.0866
X4.7638Y-2.2638
X4.7638Y-2.6772
X4.7638Y-2.8543
X5.0197Y-2.0866
X5.0197Y-2.2638
X5.0197Y-2.6772
X5.0197Y-2.8543
X5.3543Y-2.0866
X5.3543Y-2.2638
X5.3543Y-2.6772
X5.3543Y-2.8543
X5.6102Y-2.0866
X5.6102Y-2.2638
X5.6102Y-2.6772
X5.6102Y-2.8543
T0
M30
